<?xml version="1.0" encoding="utf-8"?>
<!-- Generator: Adobe Illustrator 15.1.0, SVG Export Plug-In . SVG Version: 6.00 Build 0)  -->
<!DOCTYPE svg PUBLIC "-//W3C//DTD SVG 1.1//EN" "http://www.w3.org/Graphics/SVG/1.1/DTD/svg11.dtd">
<svg version="1.1" id="Layer_1" xmlns="http://www.w3.org/2000/svg" xmlns:xlink="http://www.w3.org/1999/xlink" x="0px" y="0px"
	 width="142.048px" height="96.429px" viewBox="0 0 142.048 96.429" enable-background="new 0 0 142.048 96.429"
	 xml:space="preserve">
<g>
	<path fill="#62B5E5" d="M27.907,41.314l-7.028-7.026c13.415-13.416,31.224-20.803,50.147-20.803
		c18.919,0,36.728,7.388,50.143,20.801l-7.031,7.026C102.603,29.776,87.29,23.425,71.026,23.425
		C54.754,23.425,39.442,29.776,27.907,41.314L27.907,41.314z M27.907,41.314"/>
	<path fill="#225FAC" d="M41.111,54.517l-7.028-7.026c9.88-9.884,23.001-15.326,36.939-15.326c13.941,0,27.059,5.442,36.943,15.324
		l-7.028,7.028c-8.004-8.006-18.625-12.415-29.915-12.415C59.736,42.102,49.111,46.511,41.111,54.517L41.111,54.517z M41.111,54.517
		"/>
	<path fill="#225FAC" d="M54.311,67.721l-7.028-7.028c6.35-6.348,14.779-9.846,23.743-9.846c8.953,0,17.386,3.498,23.739,9.846
		l-7.028,7.026c-4.473-4.473-10.41-6.934-16.711-6.934C64.718,60.783,58.784,63.246,54.311,67.721L54.311,67.721z M54.311,67.721"/>
	<path fill="#225FAC" d="M71.026,69.727c-4.061,0-7.741,1.646-10.4,4.307l10.4,10.398l10.396-10.398
		C78.76,71.373,75.083,69.727,71.026,69.727L71.026,69.727z M71.026,69.727"/>
</g>
</svg>
