<?xml version="1.0" encoding="utf-8"?>
<!-- Generator: Adobe Illustrator 15.1.0, SVG Export Plug-In . SVG Version: 6.00 Build 0)  -->
<!DOCTYPE svg PUBLIC "-//W3C//DTD SVG 1.1//EN" "http://www.w3.org/Graphics/SVG/1.1/DTD/svg11.dtd">
<svg version="1.1" id="Capa_1" xmlns="http://www.w3.org/2000/svg" xmlns:xlink="http://www.w3.org/1999/xlink" x="0px" y="0px"
	 width="433.5px" height="433.5px" viewBox="0 0 433.5 433.5" enable-background="new 0 0 433.5 433.5" xml:space="preserve">
<g>
	<g>
		<g>
			<g>
				<g>
					
						<linearGradient id="SVGID_1_" gradientUnits="userSpaceOnUse" x1="237.1719" y1="377.0046" x2="237.1719" y2="5.4153" gradientTransform="matrix(-1 0 0 -1 453.9219 407.9595)">
						<stop  offset="0" style="stop-color:#79A02D"/>
						<stop  offset="0.3226" style="stop-color:#699523"/>
						<stop  offset="0.9504" style="stop-color:#40780A"/>
						<stop  offset="1" style="stop-color:#3C7608"/>
					</linearGradient>
					<polygon fill="url(#SVGID_1_)" points="302.501,30.955 130.998,30.955 130.998,202.458 16.663,202.458 216.75,402.545 
						416.837,202.458 302.501,202.458 					"/>
				</g>
			</g>
		</g>
	</g>
	<g>
		<g>
			<g>
				<g>
					
						<linearGradient id="SVGID_2_" gradientUnits="userSpaceOnUse" x1="237.1719" y1="366.6384" x2="237.1719" y2="17.9153" gradientTransform="matrix(-1 0 0 -1 453.9219 407.9595)">
						<stop  offset="0" style="stop-color:#D3EAA4"/>
						<stop  offset="1" style="stop-color:#769E3B"/>
					</linearGradient>
					<polygon fill="url(#SVGID_2_)" points="293.25,41.322 140.25,41.322 140.25,211.544 38.25,211.544 216.75,390.045 
						395.25,211.544 293.25,211.544 					"/>
				</g>
			</g>
		</g>
	</g>
	<g>
		<g>
			<g>
				<g>
					
						<linearGradient id="SVGID_3_" gradientUnits="userSpaceOnUse" x1="237.1719" y1="351.4802" x2="237.1719" y2="38.7922" gradientTransform="matrix(-1 0 0 -1 453.9219 407.9595)">
						<stop  offset="0" style="stop-color:#B0D36F"/>
						<stop  offset="1" style="stop-color:#628C1C"/>
					</linearGradient>
					<polygon fill="url(#SVGID_3_)" points="276.75,56.48 156.75,56.48 156.75,229.17 76.75,229.17 216.75,369.168 356.75,229.17 
						276.75,229.17 					"/>
				</g>
			</g>
		</g>
	</g>
</g>
<g>
	<g id="file-upload_5_">
		<g>
			<polygon fill="#2D8FAA" points="637.583,379.408 588.042,379.408 588.042,428.949 555.016,428.949 612.813,486.746 
				670.61,428.949 637.583,428.949 			"/>
			<path fill="#269ED3" d="M637.583,379.408l-12.385,0.152l-12.385,0.114l-24.771,0.226l0.492-0.492l0.164,24.771l0.121,24.77
				l0.004,0.775l-0.781,0.002l-33.026,0.111l0.63-1.519l28.944,28.853l28.895,28.903h-1.342l14.467-14.434l14.489-14.406
				l14.498-14.402l14.52-14.379l0.495,1.195l-33.027-0.207l-0.498-0.004l0.004-0.49l0.228-24.77l0.113-12.386L637.583,379.408z
				 M637.583,379.408l0.154,12.387l0.112,12.386l0.228,24.77l-0.494-0.494l33.027-0.204l1.688-0.013l-1.194,1.207l-14.38,14.519
				l-14.4,14.498l-14.407,14.491l-14.434,14.466l-0.67,0.67l-0.672-0.67l-28.902-28.896l-28.854-28.945l-1.521-1.524l2.148,0.008
				l33.026,0.111l-0.776,0.776l0.121-24.77l0.164-24.771l0.003-0.496l0.488,0.006l24.771,0.226l12.386,0.112L637.583,379.408z"/>
		</g>
	</g>
</g>
<g>
	<g id="file-upload_4_">
		<g>
			<polygon fill="#26C2D3" points="632.241,385.318 593.386,385.318 593.386,433.806 567.481,433.806 612.813,479.138 
				658.144,433.806 632.241,433.806 			"/>
			<path fill="#70E6D3" d="M632.241,385.318l-38.855,0.231l0.232-0.231l0.167,48.488l0.001,0.399h-0.4l-25.903,0.035l0.309-0.744
				l22.69,22.642l11.341,11.324l11.319,11.346h-0.656l22.69-22.639l11.345-11.32l11.371-11.297l0.252,0.61l-25.901-0.088h-0.272
				l0.001-0.27l0.125-24.244L632.241,385.318z M632.241,385.318l0.146,24.244l0.124,24.244l-0.27-0.271l25.901-0.088l0.864-0.004
				l-0.609,0.615l-11.295,11.369l-11.32,11.346l-22.642,22.691l-0.327,0.327l-0.329-0.327l-11.346-11.32l-11.324-11.342
				l-22.642-22.689l-0.743-0.746l1.052,0.002l25.903,0.035l-0.399,0.4l0.168-48.488v-0.234l0.231,0.002L632.241,385.318z"/>
		</g>
	</g>
</g>
<image overflow="visible" width="256" height="256" xlink:href="BDC1D50D.jpg"  transform="matrix(1 0 0 1 -357.75 94.2498)">
</image>
</svg>
