<?xml version="1.0" encoding="utf-8"?>
<!-- Generator: Adobe Illustrator 15.1.0, SVG Export Plug-In . SVG Version: 6.00 Build 0)  -->
<!DOCTYPE svg PUBLIC "-//W3C//DTD SVG 1.1//EN" "http://www.w3.org/Graphics/SVG/1.1/DTD/svg11.dtd">
<svg version="1.1" id="Capa_1" xmlns="http://www.w3.org/2000/svg" xmlns:xlink="http://www.w3.org/1999/xlink" x="0px" y="0px"
	 width="369.793px" height="369.792px" viewBox="0 0 369.793 369.792" enable-background="new 0 0 369.793 369.792"
	 xml:space="preserve">
<g>
	<path fill="#5E5E5E" d="M235.044,215.246c-3.649-1.973-10.384-4.667-23.068-9.217l-1.758-4.197
		c5.384-12.26,8.047-18.96,9.129-22.947c1.393-5.136,0.771-8.294-2.224-11.261l-0.017-0.018l-0.019-0.018l-15.396-15.02
		c-1.763-1.734-4.428-2.811-6.964-2.811c-1.988,0-4.696,0-27.295,10.186l-4.566-1.838c-5.025-12.393-7.959-18.966-10.044-22.517
		c-2.672-4.553-5.331-6.326-9.481-6.326h-21.758c-4.159,0-6.907,1.859-9.482,6.42c-2.048,3.627-4.808,10.21-9.441,22.544
		l-4.542,1.852c-23.024-9.658-25.919-9.657-27.664-9.657c-2.548,0-5.223,1.075-6.979,2.807l-15.405,15.056l-0.009,0.01l-0.01,0.01
		c-3.033,2.991-3.661,6.284-2.168,11.366c1.155,3.933,3.959,10.494,9.607,22.463l-1.76,4.191
		c-12.894,5.001-19.409,7.782-23.031,9.818c-4.679,2.632-6.502,5.305-6.502,9.53v21.322c0,4.24,1.909,7.006,6.589,9.546
		c3.653,1.983,10.391,4.688,23.076,9.255l1.754,4.163c-5.473,12.463-8.057,18.939-9.143,22.89c-1.41,5.134-0.788,8.299,2.22,11.29
		l0.018,0.019l0.022,0.021l15.384,15.052l0.02,0.02l0.02,0.019c1.775,1.705,4.436,2.766,6.942,2.766
		c1.983,0,4.686-0.001,27.313-10.188l4.539,1.836c5.032,12.397,7.971,18.973,10.06,22.527c2.674,4.551,5.333,6.323,9.483,6.323
		h21.765c4.25,0,6.918-1.804,9.521-6.435c2.008-3.572,4.759-10.154,9.412-22.54l4.554-1.842c22.963,9.667,25.878,9.667,27.632,9.667
		c2.596,0,5.207-1.047,6.986-2.803l15.436-15.095l0.021-0.021l0.021-0.022c3.007-3.001,3.621-6.289,2.124-11.354
		c-1.16-3.925-3.971-10.478-9.63-22.432l1.752-4.159c12.896-5.019,19.422-7.813,23.052-9.861c4.678-2.639,6.5-5.313,6.5-9.539
		v-21.309C241.642,220.544,239.73,217.78,235.044,215.246z M162.068,235.9c0,15.699-13.076,28.472-29.15,28.472
		c-16.079,0-29.161-12.772-29.161-28.472c0-15.688,13.082-28.451,29.161-28.451C148.992,207.449,162.068,220.211,162.068,235.9z"/>
	<path fill="#5E5E5E" d="M143.341,129.262c4.15,0,6.809,1.773,9.481,6.326c2.085,3.551,5.02,10.124,10.044,22.517l4.566,1.838
		c22.6-10.185,25.307-10.186,27.295-10.186c2.536,0,5.201,1.077,6.964,2.811l15.396,15.02l0.019,0.018l0.017,0.018
		c2.994,2.967,3.616,6.125,2.224,11.261c-1.082,3.986-3.745,10.687-9.129,22.947l1.758,4.197
		c12.685,4.549,19.419,7.243,23.068,9.217c4.687,2.535,6.597,5.299,6.597,9.542v21.31c0,4.226-1.822,6.9-6.5,9.537
		c-3.631,2.05-10.157,4.845-23.052,9.863l-1.752,4.158c5.659,11.955,8.469,18.508,9.63,22.432c1.496,5.064,0.883,8.354-2.124,11.354
		l-0.021,0.021l-0.022,0.021l-15.435,15.095c-1.78,1.756-4.391,2.804-6.986,2.804c-1.754,0-4.668-0.001-27.633-9.667l-4.553,1.841
		c-4.654,12.385-7.404,18.967-9.413,22.541c-2.603,4.63-5.272,6.434-9.521,6.434h-21.765c-4.149,0-6.808-1.772-9.483-6.322
		c-2.089-3.556-5.028-10.13-10.06-22.528l-4.54-1.836c-22.627,10.187-25.331,10.188-27.313,10.188c-2.506,0-5.166-1.06-6.941-2.765
		l-0.021-0.02l-0.02-0.02l-15.384-15.051l-0.022-0.021l-0.018-0.018c-3.008-2.992-3.63-6.157-2.22-11.291
		c1.085-3.95,3.669-10.428,9.143-22.89l-1.754-4.163c-12.684-4.567-19.422-7.272-23.075-9.254c-4.681-2.54-6.589-5.307-6.589-9.547
		v-21.322c0-4.226,1.823-6.897,6.502-9.529c3.622-2.037,10.139-4.818,23.031-9.819l1.76-4.19c-5.648-11.97-8.453-18.53-9.607-22.463
		c-1.493-5.082-0.865-8.375,2.168-11.366l0.01-0.01l0.01-0.009l15.405-15.057c1.757-1.731,4.431-2.807,6.979-2.807h0.001
		c1.745,0,4.643,0.001,27.663,9.657l4.543-1.852c4.633-12.333,7.393-18.916,9.441-22.544c2.575-4.561,5.322-6.42,9.481-6.42
		L143.341,129.262 M132.918,264.372c16.074,0,29.15-12.772,29.15-28.472c0-15.689-13.076-28.452-29.15-28.452
		c-16.079,0-29.161,12.763-29.161,28.452C103.757,251.599,116.839,264.372,132.918,264.372 M143.341,127.042h-21.758
		c-5.013,0-8.426,2.257-11.415,7.548c-2.072,3.668-4.766,10.059-9.245,21.946l-2.795,1.139c-22.656-9.475-25.554-9.475-27.675-9.475
		c-3.11,0-6.382,1.32-8.539,3.445l-15.397,15.05l-0.009,0.009l-0.019,0.019c-3.606,3.557-4.451,7.743-2.738,13.571
		c1.167,3.976,3.877,10.352,9.308,21.891l-1.013,2.41c-12.447,4.839-18.774,7.552-22.438,9.612
		c-5.35,3.009-7.633,6.438-7.633,11.465v21.322c0,5.042,2.39,8.588,7.75,11.497c3.691,2.004,10.233,4.644,22.466,9.062l1.006,2.389
		c-5.269,12.021-7.768,18.317-8.867,22.318c-1.614,5.876-0.778,9.899,2.795,13.453l0.003,0.003l0.021,0.021l0.022,0.021
		l15.391,15.058l0.025,0.024l0.031,0.029c2.172,2.086,5.421,3.383,8.478,3.383c2.389,0,5.09,0.001,27.36-9.993l2.79,1.127
		c4.87,11.968,7.738,18.355,9.85,21.948c3.056,5.198,6.464,7.417,11.396,7.417h21.765c5.049,0,8.475-2.263,11.457-7.565
		c2.03-3.612,4.713-9.999,9.212-21.936l2.802-1.133c22.606,9.486,25.516,9.485,27.649,9.485c3.163,0,6.357-1.286,8.544-3.442
		l15.429-15.088l0.021-0.021l0.04-0.041c3.572-3.564,4.4-7.745,2.684-13.552c-1.176-3.972-3.891-10.337-9.327-21.855l1.002-2.379
		c12.454-4.859,18.787-7.584,22.461-9.656c5.348-3.017,7.63-6.446,7.63-11.472v-21.31c0-5.046-2.395-8.591-7.762-11.494
		c-3.689-1.995-10.228-4.625-22.454-9.023l-1.014-2.418c5.187-11.838,7.765-18.356,8.857-22.385
		c1.594-5.878,0.756-9.892-2.802-13.419l-0.002-0.001l-0.02-0.02l-0.004-0.004l-0.023-0.023l-15.396-15.02
		c-2.188-2.153-5.374-3.442-8.515-3.442c-2.394,0-5.102,0-27.343,9.993l-2.815-1.134c-4.862-11.96-7.725-18.344-9.833-21.933
		C151.682,129.261,148.274,127.042,143.341,127.042L143.341,127.042z M132.918,262.152c-14.855,0-26.941-11.776-26.941-26.252
		c0-14.464,12.086-26.23,26.941-26.23c14.849,0,26.93,11.767,26.93,26.23C159.848,250.375,147.767,262.152,132.918,262.152
		L132.918,262.152z"/>
</g>
<g>
	<g>
		<g>
			<g>
				<g>
					
						<linearGradient id="SVGID_1_" gradientUnits="userSpaceOnUse" x1="82.5093" y1="45.7095" x2="183.2504" y2="220.1984" gradientTransform="matrix(1 0 0 -1 0.04 368.8564)">
						<stop  offset="0" style="stop-color:#A0A0A4"/>
						<stop  offset="1" style="stop-color:#D1D1D5"/>
					</linearGradient>
					<path fill="url(#SVGID_1_)" d="M208.362,211.22l-0.978-0.349l-3.813-9.102l0.413-0.935
						c11.551-26.197,10.754-26.979,8.839-28.878l-15.409-15.031c-0.629-0.625-1.735-1.064-2.688-1.064
						c-0.866,0-3.492,0-26.249,10.306l-0.912,0.41l-9.388-3.781l-0.378-0.934c-10.702-26.497-11.797-26.497-14.46-26.497h-21.757
						c-2.653,0-3.861,0-13.784,26.543l-0.374,0.966l-9.339,3.807l-0.893-0.371c-15.403-6.494-24.396-9.787-26.74-9.787
						c-0.952,0-2.062,0.426-2.694,1.05l-15.422,15.075c-1.957,1.93-2.768,2.738,9.388,28.388l0.447,0.951l-3.819,9.091l-0.935,0.362
						c-27.117,10.479-27.117,11.501-27.117,14.229v21.322c0,2.737,0,3.873,27.171,13.61l0.971,0.344l3.82,9.065l-0.41,0.926
						c-11.55,26.209-10.818,26.918-8.853,28.873l15.384,15.053c0.645,0.619,1.761,1.063,2.712,1.063c0.862,0,3.481,0,26.252-10.301
						l0.912-0.428l9.395,3.8l0.366,0.94c10.708,26.486,11.807,26.486,14.472,26.486h21.765c2.733,0,3.866,0,13.797-26.56
						l0.371-0.967l9.353-3.783l0.892,0.363c15.39,6.512,24.378,9.799,26.707,9.799c0.943,0,2.063-0.413,2.706-1.051l15.447-15.107
						c1.943-1.939,2.753-2.733-9.425-28.358l-0.452-0.963l3.813-9.051l0.91-0.356c27.161-10.536,27.161-11.563,27.161-14.295v-21.31
						C235.537,222.051,235.537,220.921,208.362,211.22z M132.918,270.476c-19.446,0-35.266-15.517-35.266-34.576
						s15.82-34.557,35.266-34.557c19.437,0,35.255,15.5,35.255,34.557C168.173,254.956,152.356,270.476,132.918,270.476z"/>
					<path fill="#A0A0A4" d="M144.258,336.703h-21.765c-2.876,0-3.951,0-14.729-26.661l-0.324-0.831l-9.171-3.709l-0.803,0.377
						c-22.829,10.326-25.494,10.326-26.37,10.326c-1.011,0-2.206-0.469-2.905-1.141l-15.386-15.053
						c-2.118-2.106-2.83-2.815,8.792-29.184l0.361-0.816l-3.726-8.842l-0.856-0.303c-27.356-9.803-27.356-10.911-27.356-13.872
						v-21.322c0-2.948,0-3.941,27.295-14.489l0.824-0.318l3.726-8.869l-0.394-0.84c-12.241-25.833-11.449-26.615-9.331-28.704
						l15.423-15.075c0.674-0.665,1.862-1.129,2.888-1.129c2.378,0,11.411,3.3,26.847,9.808l0.786,0.327l9.123-3.719l0.331-0.854
						c9.989-26.721,11.176-26.721,14.042-26.721h21.758c2.872,0,3.947,0,14.718,26.671l0.333,0.825l9.169,3.692l0.805-0.361
						c22.81-10.331,25.484-10.331,26.362-10.331c1.02,0,2.205,0.471,2.885,1.146l15.407,15.029
						c2.071,2.055,2.846,2.822-8.779,29.188l-0.365,0.826l3.719,8.878l0.861,0.308c27.359,9.768,27.359,10.873,27.359,13.829v21.31
						c0,2.954,0,3.949-27.338,14.552l-0.801,0.315l-3.719,8.83l0.4,0.85c12.257,25.791,11.472,26.575,9.372,28.671l-15.451,15.109
						c-0.67,0.666-1.863,1.131-2.899,1.131c-2.393,0-11.416-3.305-26.815-9.82l-0.783-0.319l-9.137,3.694l-0.327,0.854
						C148.317,336.703,147.212,336.703,144.258,336.703z M98.253,304.897l0.112,0.044l9.506,3.845l0.408,1.052
						c10.637,26.312,11.758,26.312,14.214,26.312h21.765c2.523,0,3.675,0,13.537-26.381l0.415-1.081l0.111-0.045l9.459-3.824
						l0.995,0.406c19.1,8.081,25.009,9.776,26.603,9.776c0.901,0,1.934-0.398,2.51-0.97l15.449-15.108
						c1.791-1.788,2.607-2.603-9.48-28.042l-0.507-1.074l3.906-9.274l1.02-0.399c26.983-10.467,26.983-11.511,26.983-14.035v-21.31
						c0-2.521,0-3.67-26.99-13.307l-1.092-0.389l-3.905-9.324l0.462-1.045c11.472-26.016,10.664-26.815,8.897-28.567l-15.407-15.03
						c-0.585-0.582-1.611-0.986-2.495-0.986c-0.849,0-3.433,0-26.135,10.282l-1.02,0.458l-9.607-3.87l-0.421-1.043
						c-10.63-26.323-11.751-26.323-14.203-26.323h-21.759c-2.443,0-3.669,0-13.524,26.363l-0.418,1.081l-9.556,3.895l-0.999-0.415
						c-15.369-6.48-24.33-9.765-26.633-9.765c-0.892,0-1.92,0.399-2.499,0.97l-15.423,15.075c-1.805,1.78-2.629,2.594,9.445,28.071
						l0.5,1.064l-3.913,9.313l-1.044,0.404c-26.94,10.411-26.94,11.453-26.94,13.972v21.322c0,2.525,0,3.678,26.987,13.35
						l1.086,0.383l3.914,9.288l-0.458,1.036c-11.468,26.021-10.72,26.765-8.913,28.562l15.386,15.052
						c0.593,0.569,1.652,0.983,2.519,0.983c0.847,0,3.421,0,26.138-10.276L98.253,304.897z M132.918,270.754
						c-19.599,0-35.543-15.636-35.543-34.854c0-19.208,15.944-34.834,35.543-34.834c19.593,0,35.533,15.626,35.533,34.834
						C168.451,255.119,152.511,270.754,132.918,270.754z M132.918,201.622c-19.293,0-34.988,15.377-34.988,34.278
						c0,18.911,15.695,34.299,34.988,34.299c19.287,0,34.978-15.388,34.978-34.299C167.896,216.999,152.205,201.622,132.918,201.622
						z"/>
				</g>
				
					<linearGradient id="SVGID_2_" gradientUnits="userSpaceOnUse" x1="132.8774" y1="26.3247" x2="132.8774" y2="239.5947" gradientTransform="matrix(1 0 0 -1 0.04 368.8564)">
					<stop  offset="0" style="stop-color:#808080"/>
					<stop  offset="1" style="stop-color:#A0A0A4"/>
				</linearGradient>
				<path fill="url(#SVGID_2_)" d="M143.341,135.367c2.664,0,3.759,0,14.46,26.497l0.378,0.934l9.387,3.781l0.912-0.41
					c22.757-10.306,25.382-10.306,26.249-10.306c0.954,0,2.059,0.44,2.689,1.064l15.408,15.031c1.915,1.899,2.711,2.681-8.84,28.878
					l-0.412,0.935l3.813,9.102l0.977,0.349c27.175,9.701,27.175,10.831,27.175,13.566v21.31c0,2.733,0,3.76-27.16,14.294
					l-0.911,0.357l-3.813,9.051l0.453,0.963c12.178,25.625,11.368,26.419,9.425,28.358l-15.447,15.107
					c-0.644,0.638-1.763,1.051-2.706,1.051c-2.329,0-11.318-3.287-26.708-9.799l-0.891-0.363l-9.354,3.783l-0.37,0.967
					c-9.931,26.56-11.064,26.56-13.798,26.56h-21.765c-2.665,0-3.764,0-14.472-26.486l-0.366-0.94l-9.395-3.8l-0.912,0.428
					c-22.771,10.301-25.39,10.301-26.251,10.301c-0.952,0-2.067-0.443-2.712-1.063L53,299.812
					c-1.966-1.955-2.699-2.664,8.853-28.873l0.41-0.926l-3.82-9.065l-0.971-0.344c-27.171-9.737-27.171-10.873-27.171-13.61v-21.322
					c0-2.729,0-3.751,27.117-14.229l0.935-0.362l3.819-9.091l-0.447-0.951c-12.156-25.65-11.345-26.458-9.389-28.388l15.421-15.074
					c0.633-0.624,1.743-1.05,2.694-1.05c2.344,0,11.337,3.292,26.74,9.787l0.893,0.371l9.339-3.806l0.374-0.966
					c9.923-26.543,11.131-26.543,13.784-26.543L143.341,135.367 M132.918,270.476c19.438,0,35.255-15.521,35.255-34.576
					c0-19.057-15.818-34.557-35.255-34.557c-19.445,0-35.266,15.497-35.266,34.557S113.472,270.476,132.918,270.476
					 M143.341,129.262h-21.758c-4.159,0-6.907,1.859-9.482,6.42c-2.048,3.627-4.808,10.21-9.441,22.544l-4.542,1.852
					c-23.024-9.658-25.919-9.657-27.664-9.657c-2.548,0-5.223,1.075-6.979,2.807l-15.405,15.056l-0.009,0.01l-0.01,0.01
					c-3.033,2.991-3.661,6.284-2.168,11.366c1.155,3.933,3.959,10.494,9.607,22.463l-1.76,4.191
					c-12.894,5.001-19.409,7.782-23.031,9.818c-4.679,2.632-6.502,5.305-6.502,9.53v21.322c0,4.24,1.909,7.006,6.589,9.546
					c3.653,1.983,10.391,4.688,23.076,9.255l1.754,4.163c-5.473,12.463-8.057,18.939-9.143,22.89
					c-1.41,5.134-0.788,8.299,2.22,11.29l0.018,0.019l0.022,0.021l15.384,15.052l0.02,0.02l0.02,0.019
					c1.775,1.705,4.436,2.766,6.942,2.766c1.983,0,4.686-0.001,27.313-10.188l4.539,1.836c5.032,12.397,7.971,18.973,10.06,22.527
					c2.674,4.551,5.333,6.323,9.483,6.323h21.765c4.25,0,6.918-1.804,9.521-6.435c2.008-3.572,4.759-10.154,9.412-22.54l4.554-1.842
					c22.963,9.667,25.878,9.667,27.632,9.667c2.596,0,5.207-1.047,6.986-2.803l15.436-15.095l0.021-0.021l0.021-0.022
					c3.007-3.001,3.621-6.289,2.124-11.354c-1.16-3.925-3.971-10.478-9.63-22.432l1.752-4.159
					c12.896-5.019,19.422-7.813,23.052-9.861c4.678-2.639,6.5-5.313,6.5-9.539v-21.309c0-4.242-1.911-7.007-6.597-9.542
					c-3.649-1.974-10.384-4.667-23.068-9.217l-1.758-4.198c5.385-12.259,8.047-18.96,9.129-22.946
					c1.394-5.136,0.771-8.294-2.223-11.261l-0.017-0.018l-0.019-0.018l-15.396-15.02c-1.764-1.734-4.428-2.811-6.965-2.811
					c-1.988,0-4.695,0-27.295,10.186l-4.566-1.838c-5.024-12.393-7.959-18.965-10.044-22.517
					C150.149,131.035,147.491,129.262,143.341,129.262L143.341,129.262z M132.918,264.372c-16.079,0-29.161-12.772-29.161-28.472
					c0-15.689,13.082-28.452,29.161-28.452c16.074,0,29.15,12.763,29.15,28.452C162.068,251.599,148.992,264.372,132.918,264.372
					L132.918,264.372z"/>
			</g>
		</g>
	</g>
</g>
<g>
	<path fill="#5E5E5E" d="M337.425,103.409c-1.926-2.104-5.693-5.372-12.909-11.188l-0.195-3.123
		c6.261-6.751,9.501-10.504,11.103-12.85c2.063-3.022,2.371-5.215,1.094-7.817l-0.006-0.015l-0.009-0.016l-6.617-13.229
		c-0.754-1.523-2.243-2.824-3.891-3.396c-1.292-0.448-3.051-1.059-20.028,0.465l-2.552-2.224c-0.471-9.184-0.896-14.116-1.45-16.893
		c-0.71-3.56-2.037-5.311-4.733-6.246l-14.135-4.905c-2.703-0.938-4.907-0.349-7.607,2.033c-2.148,1.896-5.426,5.55-11.216,12.518
		l-3.368,0.179c-12.781-11.464-14.662-12.116-15.796-12.51c-1.656-0.575-3.635-0.479-5.167,0.25l-13.401,6.31l-0.009,0.003
		l-0.009,0.005c-2.645,1.259-3.794,3.257-3.971,6.895c-0.136,2.816,0.207,7.71,1.178,16.759l-2.088,2.326
		c-9.504,0.343-14.363,0.681-17.175,1.188c-3.635,0.655-5.421,1.98-6.373,4.726l-4.807,13.853c-0.955,2.755-0.339,4.981,2.13,7.687
		c1.926,2.112,5.692,5.387,12.904,11.213l0.202,3.1c-6.365,6.863-9.505,10.488-11.1,12.81c-2.073,3.018-2.383,5.214-1.104,7.835
		l0.008,0.017l0.01,0.018l6.602,13.247l0.009,0.017l0.009,0.017c0.77,1.508,2.259,2.797,3.887,3.362
		c1.288,0.447,3.044,1.055,20.04-0.462l2.536,2.216c0.474,9.188,0.9,14.123,1.457,16.903c0.712,3.559,2.039,5.31,4.735,6.245
		l14.141,4.906c2.761,0.958,4.9,0.388,7.635-2.035c2.11-1.868,5.381-5.524,11.196-12.521l3.374-0.17
		c12.739,11.457,14.633,12.114,15.772,12.51c1.686,0.584,3.618,0.493,5.17-0.246l13.431-6.328l0.019-0.009l0.019-0.009
		c2.631-1.272,3.771-3.27,3.939-6.897c0.131-2.811-0.218-7.702-1.199-16.744l2.075-2.307c9.509-0.354,14.379-0.698,17.199-1.21
		c3.634-0.66,5.42-1.987,6.373-4.732l4.803-13.843C340.517,108.338,339.898,106.112,337.425,103.409z M285.359,100.377
		c-3.539,10.2-14.913,15.549-25.356,11.926c-10.445-3.624-16.064-14.87-12.525-25.069c3.536-10.192,14.911-15.535,25.356-11.911
		C283.277,78.947,288.896,90.186,285.359,100.377z"/>
	<path fill="#5E5E5E" d="M297.23,26.878c2.696,0.935,4.023,2.687,4.733,6.246c0.554,2.777,0.979,7.709,1.45,16.893l2.552,2.224
		c16.979-1.522,18.736-0.913,20.028-0.465c1.647,0.572,3.137,1.872,3.891,3.396l6.617,13.229l0.009,0.016l0.006,0.015
		c1.277,2.602,0.969,4.794-1.094,7.817c-1.602,2.346-4.842,6.099-11.103,12.85l0.195,3.123c7.216,5.814,10.983,9.083,12.909,11.188
		c2.474,2.704,3.092,4.929,2.135,7.686l-4.803,13.844c-0.953,2.745-2.739,4.072-6.373,4.73c-2.821,0.514-7.691,0.858-17.199,1.212
		l-2.075,2.307c0.981,9.042,1.329,13.933,1.199,16.744c-0.17,3.627-1.31,5.625-3.939,6.898l-0.019,0.009l-0.02,0.008l-13.43,6.327
		c-1.553,0.74-3.484,0.832-5.171,0.247c-1.14-0.396-3.032-1.053-15.772-12.51l-3.373,0.17c-5.815,6.997-9.086,10.653-11.196,12.522
		c-2.733,2.421-4.875,2.992-7.636,2.034l-14.14-4.906c-2.695-0.936-4.023-2.687-4.736-6.245c-0.556-2.781-0.982-7.714-1.456-16.903
		l-2.536-2.216c-16.997,1.517-18.753,0.908-20.041,0.461c-1.628-0.565-3.117-1.853-3.886-3.36l-0.009-0.018l-0.01-0.017
		l-6.601-13.246l-0.01-0.019l-0.008-0.016c-1.279-2.622-0.97-4.818,1.104-7.835c1.595-2.322,4.734-5.947,11.1-12.81l-0.202-3.1
		c-7.211-5.827-10.979-9.103-12.905-11.213c-2.468-2.706-3.085-4.933-2.129-7.688l4.806-13.853c0.953-2.745,2.74-4.07,6.373-4.725
		c2.813-0.507,7.673-0.845,17.175-1.188l2.089-2.326c-0.971-9.049-1.314-13.943-1.178-16.759c0.176-3.638,1.326-5.636,3.971-6.896
		l0.009-0.004l0.009-0.004l13.401-6.31c1.532-0.728,3.512-0.824,5.167-0.25l0,0c1.134,0.393,3.017,1.047,15.796,12.509l3.368-0.179
		c5.791-6.968,9.067-10.622,11.216-12.518c2.7-2.382,4.905-2.971,7.607-2.034L297.23,26.878 M260.003,112.303
		c10.443,3.624,21.817-1.726,25.356-11.926c3.537-10.193-2.082-21.432-12.524-25.055c-10.446-3.625-21.821,1.718-25.357,11.912
		C243.938,97.433,249.558,108.679,260.003,112.303 M297.731,25.435l-14.136-4.904c-3.257-1.13-5.983-0.433-9.117,2.331
		c-2.173,1.916-5.363,5.46-10.953,12.174l-2.072,0.11c-12.583-11.262-14.466-11.916-15.844-12.394
		c-2.021-0.701-4.443-0.581-6.324,0.313l-13.395,6.307l-0.009,0.004l-0.017,0.008c-3.144,1.498-4.637,4.027-4.838,8.199
		c-0.137,2.846,0.186,7.599,1.113,16.32l-1.202,1.337c-9.176,0.338-13.897,0.675-16.742,1.188c-4.154,0.749-6.411,2.461-7.544,5.728
		l-4.807,13.852c-1.137,3.276-0.383,6.118,2.443,9.216c1.946,2.134,5.602,5.323,12.554,10.951l0.115,1.779
		c-6.134,6.622-9.176,10.149-10.791,12.501c-2.373,3.454-2.737,6.255-1.217,9.37l0.001,0.002l0.008,0.018l0.01,0.019l6.605,13.251
		l0.011,0.021l0.013,0.026c0.941,1.844,2.761,3.42,4.746,4.108c1.552,0.539,3.307,1.148,20.027-0.325l1.559,1.361
		c0.465,8.873,0.89,13.669,1.451,16.479c0.813,4.066,2.528,6.276,5.732,7.388l14.14,4.906c3.28,1.139,6.016,0.44,9.147-2.333
		c2.134-1.889,5.316-5.433,10.93-12.174l2.076-0.104c12.548,11.258,14.438,11.914,15.824,12.395
		c2.055,0.713,4.421,0.598,6.327-0.311l13.425-6.324l0.019-0.008l0.035-0.018c3.124-1.51,4.604-4.04,4.798-8.199
		c0.132-2.846-0.197-7.593-1.133-16.301l1.187-1.32c9.187-0.35,13.915-0.692,16.769-1.21c4.154-0.754,6.41-2.468,7.543-5.733
		l4.804-13.844c1.138-3.278,0.381-6.121-2.451-9.217c-1.947-2.128-5.603-5.311-12.555-10.924l-0.113-1.799
		c6.039-6.521,9.183-10.175,10.801-12.546c2.36-3.46,2.721-6.256,1.205-9.35l-0.002-0.001l-0.008-0.017l-0.001-0.004l-0.011-0.021
		l-6.616-13.228c-0.937-1.892-2.717-3.448-4.756-4.156c-1.555-0.539-3.314-1.149-20.017,0.329l-1.573-1.371
		c-0.462-8.866-0.884-13.659-1.444-16.466C302.649,28.757,300.937,26.547,297.731,25.435L297.731,25.435z M260.504,110.861
		c-9.65-3.348-14.849-13.724-11.586-23.127c3.261-9.397,13.766-14.316,23.416-10.968c9.646,3.347,14.843,13.714,11.583,23.111
		C280.653,109.281,270.15,114.208,260.504,110.861L260.504,110.861z"/>
</g>
<g>
	<g>
		<g>
			<g>
				<g>
					
						<linearGradient id="SVGID_3_" gradientUnits="userSpaceOnUse" x1="228.5977" y1="32.7471" x2="297.7129" y2="152.4582" gradientTransform="matrix(0.9447 0.3278 -0.3278 0.9447 48.1613 -79.9381)">
						<stop  offset="0" style="stop-color:#A0A0A4"/>
						<stop  offset="1" style="stop-color:#D1D1D5"/>
					</linearGradient>
					<path fill="url(#SVGID_3_)" d="M320.998,94.779l-0.557-0.447l-0.426-6.772l0.479-0.514
						c13.409-14.416,13.068-15.103,12.252-16.769l-6.622-13.238c-0.269-0.547-0.888-1.083-1.507-1.297
						c-0.563-0.195-2.269-0.787-19.376,0.779l-0.686,0.06l-5.246-4.572l-0.035-0.692c-0.979-19.626-1.692-19.874-3.422-20.474
						l-14.134-4.904c-1.725-0.598-2.509-0.87-14.938,14.138l-0.461,0.543l-6.926,0.368l-0.495-0.442
						c-8.544-7.691-13.644-11.857-15.167-12.386c-0.618-0.214-1.435-0.187-1.986,0.075l-13.418,6.317
						c-1.705,0.813-2.414,1.155-0.3,20.559l0.076,0.719l-4.53,5.045l-0.689,0.024c-19.979,0.696-20.209,1.359-20.824,3.132
						l-4.807,13.853c-0.617,1.778-0.873,2.516,14.584,14.967l0.554,0.442l0.438,6.75l-0.476,0.509
						c-13.411,14.424-13.096,15.049-12.26,16.762l6.603,13.248c0.279,0.547,0.904,1.086,1.522,1.301
						c0.56,0.194,2.262,0.785,19.376-0.774l0.689-0.072l5.246,4.586l0.025,0.693c0.986,19.621,1.7,19.869,3.432,20.469l14.141,4.906
						c1.775,0.616,2.511,0.871,14.95-14.145l0.459-0.545l6.929-0.349l0.498,0.437c8.529,7.699,13.629,11.861,15.142,12.386
						c0.612,0.212,1.433,0.196,1.994-0.073l13.44-6.333c1.701-0.822,2.405-1.155,0.271-20.548l-0.076-0.728l4.516-5.021l0.672-0.026
						c20.021-0.723,20.253-1.389,20.868-3.165l4.804-13.844C336.211,107.941,336.466,107.207,320.998,94.779z M258.627,116.269
						c-12.633-4.383-19.412-18.029-15.116-30.412c4.297-12.382,18.066-18.884,30.7-14.501c12.628,4.382,19.41,18.017,15.115,30.397
						C285.03,114.133,271.256,120.651,258.627,116.269z"/>
					<path fill="#A0A0A4" d="M251.067,161.851l-14.141-4.906c-1.868-0.648-2.567-0.891-3.56-20.641l-0.022-0.613l-5.122-4.477
						l-0.606,0.064c-17.158,1.563-18.891,0.962-19.459,0.765c-0.656-0.228-1.327-0.802-1.63-1.396l-6.603-13.247
						c-0.901-1.846-1.204-2.467,12.29-16.978l0.419-0.449l-0.428-6.584L211.719,93c-15.563-12.535-15.313-13.255-14.646-15.179
						l4.806-13.853c0.665-1.916,0.889-2.561,20.999-3.26l0.606-0.021l4.42-4.922l-0.066-0.635
						c-2.129-19.541-1.439-19.871,0.408-20.751l13.418-6.317c0.588-0.28,1.464-0.313,2.131-0.083
						c1.545,0.537,6.669,4.716,15.231,12.424l0.437,0.39l6.765-0.36l0.407-0.48c12.514-15.108,13.283-14.84,15.146-14.194
						l14.135,4.905c1.867,0.647,2.565,0.89,3.551,20.645l0.029,0.611l5.125,4.466l0.604-0.054
						c17.147-1.57,18.885-0.967,19.456-0.769c0.662,0.23,1.326,0.803,1.616,1.395l6.621,13.237
						c0.883,1.802,1.213,2.475-12.283,16.983l-0.423,0.454l0.415,6.606l0.49,0.394c15.572,12.513,15.322,13.231,14.656,15.151
						l-4.804,13.844c-0.666,1.919-0.89,2.565-21.04,3.292l-0.592,0.024l-4.405,4.898l0.068,0.643
						c2.148,19.518,1.463,19.851-0.374,20.739l-13.444,6.333c-0.585,0.282-1.465,0.314-2.139,0.081
						c-1.554-0.539-6.671-4.72-15.207-12.424l-0.438-0.384l-6.768,0.341l-0.406,0.481
						C253.704,162.766,252.986,162.517,251.067,161.851z M228.349,130.818l0.063,0.054l5.309,4.641l0.028,0.775
						c0.979,19.491,1.708,19.744,3.304,20.297l14.14,4.906c1.639,0.568,2.387,0.828,14.741-14.087l0.513-0.609l0.083-0.004
						l7.007-0.352l0.556,0.488c10.586,9.556,14.043,11.989,15.078,12.348c0.586,0.204,1.347,0.177,1.85-0.064l13.442-6.333
						c1.566-0.758,2.28-1.103,0.162-20.354l-0.087-0.813l4.627-5.145l0.753-0.03c19.89-0.718,20.125-1.396,20.694-3.036
						l4.804-13.844c0.567-1.637,0.827-2.384-14.536-14.729l-0.621-0.498l-0.435-6.938l0.535-0.575
						c13.316-14.316,12.972-15.018,12.219-16.554l-6.621-13.237c-0.249-0.51-0.825-1.004-1.398-1.203
						c-0.552-0.191-2.23-0.774-19.297,0.789l-0.766,0.068l-5.369-4.679l-0.039-0.773c-0.973-19.497-1.701-19.75-3.294-20.303
						l-14.136-4.904c-1.587-0.551-2.384-0.827-14.729,14.078l-0.516,0.608l-7.086,0.376l-0.555-0.495
						c-8.524-7.674-13.605-11.828-15.102-12.347c-0.579-0.201-1.338-0.173-1.843,0.066l-13.417,6.317
						c-1.574,0.75-2.294,1.093-0.191,20.366l0.084,0.804l-4.642,5.168l-0.771,0.027c-19.848,0.691-20.083,1.368-20.65,3.004
						l-4.807,13.853c-0.569,1.641-0.829,2.389,14.523,14.756l0.619,0.494l0.449,6.916l-0.53,0.57
						c-13.315,14.32-12.998,14.972-12.229,16.546l6.604,13.247c0.257,0.504,0.853,1.012,1.414,1.207
						c0.551,0.191,2.224,0.771,19.298-0.785L228.349,130.818z M258.564,116.45c-12.731-4.417-19.566-18.17-15.234-30.655
						c4.33-12.479,18.211-19.037,30.943-14.619c12.729,4.417,19.563,18.162,15.233,30.64
						C285.175,114.302,271.294,120.867,258.564,116.45z M274.148,71.537c-12.534-4.349-26.197,2.104-30.457,14.383
						c-4.264,12.286,2.465,25.821,14.998,30.169c12.531,4.348,26.193-2.112,30.456-14.398
						C293.406,89.412,286.679,75.885,274.148,71.537z"/>
				</g>
				
					<linearGradient id="SVGID_4_" gradientUnits="userSpaceOnUse" x1="263.1543" y1="19.27" x2="263.1543" y2="165.9268" gradientTransform="matrix(0.9447 0.3278 -0.3278 0.9447 48.1613 -79.9381)">
					<stop  offset="0" style="stop-color:#808080"/>
					<stop  offset="1" style="stop-color:#A0A0A4"/>
				</linearGradient>
				<path fill="url(#SVGID_4_)" d="M295.854,30.844c1.729,0.6,2.442,0.847,3.421,20.473l0.036,0.692l5.245,4.572l0.686-0.06
					c17.107-1.566,18.813-0.975,19.376-0.779c0.62,0.215,1.238,0.75,1.508,1.298l6.622,13.238
					c0.815,1.666,1.156,2.353-12.253,16.768l-0.479,0.514l0.426,6.772l0.556,0.447c15.468,12.428,15.213,13.162,14.597,14.939
					l-4.804,13.844c-0.616,1.776-0.848,2.443-20.866,3.164l-0.674,0.027l-4.516,5.021l0.077,0.728
					c2.135,19.392,1.431,19.726-0.271,20.547l-13.44,6.333c-0.562,0.269-1.382,0.286-1.995,0.073
					c-1.513-0.525-6.611-4.687-15.142-12.386l-0.498-0.437l-6.929,0.349l-0.459,0.545c-12.438,15.017-13.175,14.761-14.949,14.145
					l-14.142-4.906c-1.73-0.601-2.444-0.848-3.431-20.469l-0.026-0.694l-5.246-4.586l-0.688,0.072
					c-17.115,1.56-18.816,0.969-19.377,0.775c-0.618-0.214-1.243-0.754-1.522-1.301l-6.603-13.248
					c-0.835-1.713-1.152-2.339,12.261-16.762l0.475-0.51l-0.438-6.75l-0.553-0.442c-15.457-12.451-15.201-13.188-14.584-14.966
					l4.807-13.853c0.615-1.773,0.846-2.437,20.823-3.132l0.689-0.024l4.53-5.045l-0.075-0.718
					c-2.115-19.404-1.406-19.747,0.299-20.56l13.416-6.317c0.553-0.262,1.37-0.289,1.987-0.075
					c1.523,0.529,6.623,4.695,15.167,12.386l0.495,0.441l6.926-0.367l0.461-0.543c12.43-15.007,13.215-14.735,14.938-14.137
					L295.854,30.844 M258.627,116.269c12.629,4.382,26.403-2.136,30.699-14.515c4.295-12.38-2.487-26.016-15.115-30.397
					c-12.633-4.383-26.403,2.119-30.7,14.501C239.215,98.24,245.994,111.886,258.627,116.269 M297.23,26.878l-14.135-4.905
					c-2.703-0.938-4.907-0.349-7.607,2.033c-2.148,1.896-5.426,5.55-11.216,12.518l-3.368,0.179
					c-12.781-11.464-14.662-12.116-15.796-12.51c-1.656-0.575-3.635-0.479-5.167,0.25l-13.401,6.31l-0.009,0.003l-0.009,0.005
					c-2.645,1.259-3.794,3.257-3.971,6.895c-0.136,2.816,0.207,7.71,1.178,16.759l-2.088,2.326
					c-9.504,0.343-14.363,0.681-17.175,1.188c-3.635,0.655-5.421,1.98-6.373,4.726l-4.807,13.853
					c-0.955,2.755-0.339,4.981,2.13,7.687c1.926,2.112,5.692,5.387,12.904,11.213l0.202,3.1c-6.365,6.863-9.505,10.488-11.1,12.81
					c-2.073,3.018-2.383,5.214-1.104,7.835l0.008,0.017l0.01,0.018l6.602,13.247l0.009,0.017l0.009,0.017
					c0.77,1.508,2.259,2.797,3.887,3.362c1.288,0.447,3.044,1.055,20.04-0.462l2.536,2.216c0.474,9.188,0.9,14.123,1.457,16.903
					c0.712,3.559,2.039,5.31,4.735,6.245l14.141,4.906c2.761,0.958,4.9,0.388,7.635-2.035c2.11-1.868,5.381-5.524,11.196-12.521
					l3.374-0.17c12.739,11.457,14.633,12.114,15.772,12.51c1.686,0.584,3.618,0.493,5.17-0.246l13.431-6.328l0.019-0.009
					l0.019-0.009c2.631-1.272,3.771-3.27,3.939-6.897c0.131-2.811-0.218-7.702-1.199-16.744l2.075-2.307
					c9.509-0.354,14.379-0.698,17.199-1.21c3.634-0.66,5.42-1.987,6.373-4.732l4.803-13.843c0.956-2.756,0.338-4.983-2.135-7.686
					c-1.926-2.105-5.694-5.373-12.909-11.188l-0.195-3.123c6.262-6.751,9.502-10.504,11.103-12.85
					c2.063-3.022,2.37-5.214,1.095-7.817l-0.007-0.015l-0.008-0.017l-6.617-13.228c-0.755-1.524-2.243-2.824-3.891-3.396
					c-1.292-0.448-3.051-1.059-20.028,0.464l-2.553-2.224c-0.471-9.184-0.896-14.115-1.449-16.892
					C301.254,29.564,299.927,27.813,297.23,26.878L297.23,26.878z M260.003,112.303c-10.445-3.624-16.064-14.87-12.525-25.069
					c3.536-10.193,14.911-15.536,25.357-11.912c10.442,3.624,16.062,14.862,12.524,25.055
					C281.82,110.577,270.446,115.927,260.003,112.303L260.003,112.303z"/>
			</g>
		</g>
	</g>
</g>
</svg>
