<?xml version="1.0" encoding="utf-8"?>
<!-- Generator: Adobe Illustrator 15.1.0, SVG Export Plug-In . SVG Version: 6.00 Build 0)  -->
<!DOCTYPE svg PUBLIC "-//W3C//DTD SVG 1.1//EN" "http://www.w3.org/Graphics/SVG/1.1/DTD/svg11.dtd">
<svg version="1.1" id="Layer_1" xmlns="http://www.w3.org/2000/svg" xmlns:xlink="http://www.w3.org/1999/xlink" x="0px" y="0px"
	 width="335.983px" height="332.984px" viewBox="0 0 335.983 332.984" enable-background="new 0 0 335.983 332.984"
	 xml:space="preserve">
<g>
	<linearGradient id="SVGID_1_" gradientUnits="userSpaceOnUse" x1="169.9004" y1="15.5771" x2="169.9004" y2="324.5127">
		<stop  offset="0" style="stop-color:#FFFFFF"/>
		<stop  offset="0.5218" style="stop-color:#FDFDFD"/>
		<stop  offset="0.7781" style="stop-color:#F5F6F6"/>
		<stop  offset="0.9763" style="stop-color:#E8E9EA"/>
		<stop  offset="1" style="stop-color:#E6E7E8"/>
	</linearGradient>
	<path fill="url(#SVGID_1_)" d="M309.53,227.401c-20-23-38.5-21-61.5-32s-37-19-37-19s1.5-2,0-4.5s-4-4.5-4-4.5
		s-0.154-0.105-0.314-0.625l-0.351-3.852c0.019-1.834,0.193-4.41,0.665-8.023c0,0,0.012-0.848,3.375-8.473
		c0.423-0.934,0.874-1.932,1.367-3.027c3.134-6.965,4.568-11.738,5.151-14h1.606c0,0,5.5-4,7.5-15.5s1-17.5-2-20
		c0,0,4.5-9.5,3.5-23.5s-5.5-49.5-49-54.5c-2.996-0.344-5.869-0.404-8.629-0.225c-2.76-0.179-5.633-0.119-8.629,0.225
		c-43.5,5-48,40.5-49,54.5s3.5,23.5,3.5,23.5c-3,2.5-4,8.5-2,20s7.5,15.5,7.5,15.5h1.606c0.583,2.262,2.018,7.035,5.151,14
		c0.493,1.096,0.944,2.094,1.367,3.027c3.363,7.625,3.375,8.473,3.375,8.473c0.471,3.613,0.646,6.189,0.665,8.023l-0.35,3.852
		c-0.16,0.52-0.314,0.625-0.314,0.625s-2.5,2-4,4.5s0,4.5,0,4.5s-14,8-37,19s-41.5,9-61.5,32s-17.5,58.5-17.5,58.5s0,9.5,11.5,17.5
		s32,17.5,78,20c23.677,1.287,48.811,1.249,67.629,0.909c18.818,0.34,43.952,0.378,67.629-0.909c46-2.5,66.5-12,78-20
		s11.5-17.5,11.5-17.5S329.53,250.401,309.53,227.401z"/>
	<g>
		<linearGradient id="SVGID_2_" gradientUnits="userSpaceOnUse" x1="145.1592" y1="167.4014" x2="145.1592" y2="232.4014">
			<stop  offset="0" style="stop-color:#FFFFFF"/>
			<stop  offset="1" style="stop-color:#E6E7E8"/>
		</linearGradient>
		<path fill="url(#SVGID_2_)" d="M150.041,190.901c-9.998-10.498-16.625-23.494-16.629-23.5c-0.003,0.003-2.5,2.001-4,4.5
			c-1.5,2.5,0,4.5,0,4.5s-2.869,1.639-8.127,4.445l12.813,33.795l20.802,17.76l14.132-30.215
			C169.013,202.184,160.031,201.389,150.041,190.901z"/>
		<linearGradient id="SVGID_3_" gradientUnits="userSpaceOnUse" x1="195.3462" y1="167.4014" x2="195.3462" y2="232.4014">
			<stop  offset="0" style="stop-color:#FFFFFF"/>
			<stop  offset="1" style="stop-color:#E6E7E8"/>
		</linearGradient>
		<path fill="url(#SVGID_3_)" d="M211.092,176.401c0,0,1.5-2,0-4.5c-1.499-2.498-3.996-4.497-4-4.5
			c-0.003,0.006-6.631,13.001-16.629,23.5c-9.989,10.488-18.972,11.283-18.991,11.285l14.132,30.215l20.802-17.76l12.813-33.795
			C213.96,178.04,211.092,176.401,211.092,176.401z"/>
	</g>
	<g>
		<linearGradient id="SVGID_4_" gradientUnits="userSpaceOnUse" x1="231.644" y1="176.6509" x2="231.644" y2="324.7622">
			<stop  offset="0" style="stop-color:#231F20"/>
			<stop  offset="0.5" style="stop-color:#252122"/>
			<stop  offset="0.6801" style="stop-color:#2B2829"/>
			<stop  offset="0.8085" style="stop-color:#353334"/>
			<stop  offset="0.9115" style="stop-color:#444445"/>
			<stop  offset="1" style="stop-color:#58595B"/>
		</linearGradient>
		<path fill="url(#SVGID_4_)" d="M285.667,281.151c-2.5-31-3.285-72.523-3.285-72.523l-0.039-0.777
			c-10.561-4.188-21.491-6.366-33.688-12.199c-23-11-37-19-37-19s-9.988,66.5-19.488,102.5
			c-5.198,19.698-11.932,35.347-16.966,45.484c18.192,0.262,41.183,0.199,62.954-0.984c21.778-1.184,37.834-3.938,49.933-7.357
			C287.528,306.619,286.734,294.391,285.667,281.151z"/>
		<linearGradient id="SVGID_5_" gradientUnits="userSpaceOnUse" x1="106.6733" y1="176.9136" x2="106.6733" y2="324.7593">
			<stop  offset="0" style="stop-color:#231F20"/>
			<stop  offset="0.5" style="stop-color:#252122"/>
			<stop  offset="0.6801" style="stop-color:#2B2829"/>
			<stop  offset="0.8085" style="stop-color:#353334"/>
			<stop  offset="0.9115" style="stop-color:#444445"/>
			<stop  offset="1" style="stop-color:#58595B"/>
		</linearGradient>
		<path fill="url(#SVGID_5_)" d="M146.026,278.887c-9.01-34.144-16.786-95.712-17.563-101.974
			c-3.476,1.945-16.517,9.124-36.065,18.474c-13.319,6.37-25.128,8.387-36.595,13.418c-0.092,4.508-0.926,42.942-3.276,72.082
			c-1.038,12.864-1.816,25.343-2.372,34.883c12.391,3.801,29.155,6.652,52.667,7.931c20.649,1.122,42.662,1.173,60.372,0.958
			C158.157,314.522,151.23,298.61,146.026,278.887z"/>
	</g>
	<linearGradient id="SVGID_6_" gradientUnits="userSpaceOnUse" x1="168.3926" y1="199.4009" x2="168.3926" y2="224.4009">
		<stop  offset="0" style="stop-color:#231F20"/>
		<stop  offset="0.2539" style="stop-color:#272324"/>
		<stop  offset="0.5208" style="stop-color:#323031"/>
		<stop  offset="0.7926" style="stop-color:#454446"/>
		<stop  offset="1" style="stop-color:#58595B"/>
	</linearGradient>
	<path fill="url(#SVGID_6_)" d="M170.385,201.901l-1.992,0.284l-1.992-0.284l-30-2.5l5,25l21.985-12.5c0,0,0.515,0,4.515,0
		c0.171,0,0.331-0.038,0.492-0.069c0.162,0.031,0.321,0.069,0.492,0.069c4,0,4.516,0,4.516,0l21.984,12.5l5-25L170.385,201.901z"/>
	<linearGradient id="SVGID_7_" gradientUnits="userSpaceOnUse" x1="169.9004" y1="15.5771" x2="169.9004" y2="202.1855">
		<stop  offset="0" style="stop-color:#231F20"/>
		<stop  offset="0.5" style="stop-color:#252122"/>
		<stop  offset="0.6801" style="stop-color:#2B2829"/>
		<stop  offset="0.8085" style="stop-color:#353334"/>
		<stop  offset="0.9115" style="stop-color:#444445"/>
		<stop  offset="1" style="stop-color:#58595B"/>
	</linearGradient>
	<path fill="url(#SVGID_7_)" d="M224.03,93.901c0,0,4.5-9.5,3.5-23.5s-5.5-49.5-49-54.5c-2.996-0.344-5.869-0.404-8.629-0.225
		c-0.69-0.045-1.387-0.075-2.092-0.089c-2.113-0.042-4.291,0.056-6.537,0.314c-43.5,5-48,40.5-49,54.5s3.5,23.5,3.5,23.5
		c-3,2.5-4,8.5-2,20s7.5,15.5,7.5,15.5h1.606c0.546,2.12,1.842,6.448,4.583,12.72c0.183,0.418,0.372,0.845,0.568,1.28
		c0.493,1.096,0.944,2.094,1.367,3.027c3.363,7.625,3.375,8.473,3.375,8.473c0.061,0.468,0.117,0.917,0.168,1.35
		c0.013,0.107,0.023,0.206,0.035,0.311c0.038,0.331,0.076,0.66,0.108,0.971c0.007,0.062,0.012,0.118,0.018,0.179
		c0.036,0.347,0.069,0.686,0.099,1.008c0.003,0.031,0.005,0.06,0.008,0.091c0.03,0.337,0.057,0.663,0.081,0.975
		c0.094,1.231,0.139,2.272,0.148,3.14l-0.351,3.852c-0.16,0.52-0.314,0.625-0.314,0.625s6.629,13,16.629,23.5
		s18.992,11.284,18.992,11.284l1.508-0.215l1.508,0.215c0,0,8.992-0.784,18.992-11.284s16.629-23.5,16.629-23.5
		s-0.154-0.105-0.314-0.625l-0.352-3.852c0.01-0.859,0.055-1.89,0.146-3.106v0c0.025-0.343,0.057-0.7,0.09-1.074
		c0-0.003,0-0.005,0-0.008c0.029-0.313,0.061-0.643,0.096-0.978c0.008-0.083,0.016-0.159,0.023-0.243
		c0.027-0.257,0.059-0.531,0.09-0.802c0.02-0.162,0.035-0.317,0.055-0.484c0.051-0.427,0.105-0.868,0.166-1.329
		c0,0,0.012-0.848,3.375-8.473c0.422-0.934,0.873-1.932,1.367-3.027c3.133-6.965,4.568-11.738,5.15-14h1.607c0,0,5.5-4,7.5-15.5
		S227.03,96.401,224.03,93.901z"/>
	<linearGradient id="SVGID_8_" gradientUnits="userSpaceOnUse" x1="158.3301" y1="110.9009" x2="158.3301" y2="11.1255">
		<stop  offset="0.303" style="stop-color:#231F20"/>
		<stop  offset="0.4989" style="stop-color:#262223"/>
		<stop  offset="0.6712" style="stop-color:#302D2E"/>
		<stop  offset="0.8345" style="stop-color:#403F40"/>
		<stop  offset="0.9915" style="stop-color:#575759"/>
		<stop  offset="1" style="stop-color:#58595B"/>
	</linearGradient>
	<path fill="url(#SVGID_8_)" d="M126.901,108.881c0,0-7-43.98,13.5-46.48s31.5,1,47-6s12.984-11,12.984-11l5.016-16
		c0,0-0.5-10.147-9.5-13.824s-50.153-12.872-71.5,14.824s-10.978,55.5-7.989,63.5s9.489,17,9.489,17L126.901,108.881z"/>
	<linearGradient id="SVGID_9_" gradientUnits="userSpaceOnUse" x1="215.0806" y1="110.2896" x2="215.0806" y2="24.8008">
		<stop  offset="0.303" style="stop-color:#231F20"/>
		<stop  offset="0.4989" style="stop-color:#262223"/>
		<stop  offset="0.6712" style="stop-color:#302D2E"/>
		<stop  offset="0.8345" style="stop-color:#403F40"/>
		<stop  offset="0.9915" style="stop-color:#575759"/>
		<stop  offset="1" style="stop-color:#58595B"/>
	</linearGradient>
	<path fill="url(#SVGID_9_)" d="M200.385,45.401c0,0-0.984,2.725,5.016,15.612s11.5,33.388,8.5,44.388s4.5,0,4.5,0l6.27-11.5
		c0,0,8.559-30,3.645-45s-18.414-23.2-22.914-24.1L200.385,45.401z"/>
	<circle fill="#D1D3D4" cx="170.541" cy="223.735" r="4.5"/>
	<circle fill="#D1D3D4" cx="170.541" cy="275.695" r="4.5"/>
	<circle fill="#D1D3D4" cx="170.541" cy="303.901" r="4.5"/>
	<circle fill="#D1D3D4" cx="170.541" cy="250.719" r="4.5"/>
</g>
</svg>
