<?xml version="1.0" encoding="utf-8"?>
<!-- Generator: Adobe Illustrator 15.1.0, SVG Export Plug-In . SVG Version: 6.00 Build 0)  -->
<!DOCTYPE svg PUBLIC "-//W3C//DTD SVG 1.1//EN" "http://www.w3.org/Graphics/SVG/1.1/DTD/svg11.dtd">
<svg version="1.1" id="Layer_1" xmlns="http://www.w3.org/2000/svg" xmlns:xlink="http://www.w3.org/1999/xlink" x="0px" y="0px"
	 width="595.281px" height="841.891px" viewBox="0 0 595.281 841.891" enable-background="new 0 0 595.281 841.891"
	 xml:space="preserve">
<g>
	<path fill="#404040" d="M522.539,430.316c0-11.294-9.153-20.444-20.447-20.444h-81.78c-11.291,0-20.444,9.15-20.444,20.444
		c0,11.291,9.153,20.443,20.444,20.443h81.78C513.385,450.76,522.539,441.607,522.539,430.316z"/>
	<path fill="#B3B3B3" d="M195.415,430.316c0-11.291-9.153-20.444-20.444-20.444H93.186c-11.291,0-20.443,9.153-20.443,20.444
		c0,11.295,9.152,20.443,20.443,20.443h81.784C186.261,450.76,195.415,441.611,195.415,430.316z"/>
	<path fill="#606060" d="M398.835,358.031l57.832-57.828c7.985-7.985,7.985-20.927,0-28.916c-7.985-7.981-20.931-7.981-28.912,0
		l-57.832,57.832c-3.991,3.991-5.988,9.222-5.988,14.456c0,5.231,1.997,10.462,5.988,14.456
		C377.909,366.017,390.854,366.017,398.835,358.031z"/>
	<g>
		<path fill="#E6E6E6" d="M297.642,656.918c11.291,0,20.444-9.153,20.444-20.44v-81.784c0-11.291-9.153-20.443-20.444-20.443
			c-11.294,0-20.447,9.152-20.447,20.443v81.784C277.195,647.764,286.348,656.918,297.642,656.918z"/>
		<path fill="#CCCCCC" d="M225.354,531.513c7.985-7.982,7.985-20.928,0-28.912c-7.984-7.986-20.927-7.982-28.912,0l-57.828,57.831
			c-3.991,3.991-5.988,9.222-5.988,14.456s1.997,10.466,5.988,14.457c7.984,7.98,20.931,7.98,28.912,0L225.354,531.513z"/>
	</g>
	<path fill="#808080" d="M297.642,328.088c11.291,0,20.444-9.153,20.444-20.444v-81.78c0-11.291-9.153-20.448-20.444-20.448
		c-11.294,0-20.447,9.157-20.447,20.448v81.78C277.195,318.935,286.348,328.088,297.642,328.088z"/>
	<path fill="#999999" d="M225.354,358.031c7.985-7.985,7.985-20.931,0-28.912l-57.828-57.829c-7.981-7.985-20.928-7.985-28.912,0
		c-3.991,3.991-5.988,9.225-5.988,14.457c0,5.23,1.997,10.465,5.988,14.456l57.828,57.828
		C204.423,366.017,217.37,366.017,225.354,358.031z"/>
</g>
<g>
	<path fill="#404040" d="M2233.082,577.789c7.985-7.984,7.981-20.928-0.004-28.914l-57.828-57.828
		c-7.984-7.983-20.927-7.985-28.912,0c-7.985,7.984-7.985,20.929,0,28.912l57.828,57.828
		C2212.151,585.774,2225.097,585.774,2233.082,577.789z"/>
	<path fill="#B3B3B3" d="M2001.768,346.477c7.985-7.983,7.985-20.929,0-28.912l-57.828-57.831c-7.985-7.983-20.931-7.983-28.912,0
		c-7.989,7.987-7.985,20.929,0,28.913l57.828,57.83C1980.841,354.461,1993.784,354.464,2001.768,346.477z"/>
	<path fill="#606060" d="M2196.721,439.207l81.784,0.001c11.295,0,20.444-9.151,20.447-20.446
		c-0.003-11.291-9.156-20.444-20.443-20.444h-81.788c-5.642,0-10.754,2.286-14.456,5.988c-3.699,3.699-5.984,8.809-5.988,14.456
		C2176.277,430.054,2185.43,439.208,2196.721,439.207z"/>
	<g>
		<path fill="#E6E6E6" d="M1913.824,578.995c7.981,7.983,20.927,7.983,28.908,0.003l57.832-57.83c7.982-7.984,7.982-20.928,0-28.912
			c-7.988-7.986-20.934-7.986-28.916-0.004l-57.832,57.83C1905.835,558.064,1905.835,571.008,1913.824,578.995z"/>
		<path fill="#CCCCCC" d="M1951.38,439.207c11.291,0.001,20.444-9.152,20.444-20.445c0-11.293-9.153-20.442-20.444-20.444
			l-81.783,0.002c-5.642,0-10.754,2.286-14.456,5.988c-3.699,3.701-5.988,8.813-5.988,14.457
			c0.004,11.291,9.157,20.444,20.444,20.444L1951.38,439.207z"/>
	</g>
	<path fill="#808080" d="M2146.341,346.477c7.981,7.983,20.927,7.983,28.912,0l57.828-57.827c7.981-7.985,7.985-20.931,0-28.916
		c-7.984-7.985-20.934-7.983-28.916,0l-57.828,57.829C2138.352,325.547,2138.352,338.49,2146.341,346.477z"/>
	<path fill="#999999" d="M2074.053,316.536c11.291,0,20.444-9.155,20.444-20.444V214.31c0-11.291-9.153-20.444-20.444-20.444
		c-5.646,0-10.758,2.289-14.456,5.988c-3.699,3.698-5.988,8.813-5.988,14.456v81.782
		C2053.605,307.381,2062.758,316.536,2074.053,316.536z"/>
</g>
<g>
	<path fill="#404040" d="M2650.188,643.66c11.294,0,20.444-9.154,20.444-20.447V541.43c0-11.291-9.153-20.444-20.444-20.444
		s-20.444,9.153-20.444,20.444v81.782C2629.744,634.506,2638.897,643.66,2650.188,643.66z"/>
	<path fill="#B3B3B3" d="M2650.188,316.534c11.291,0.002,20.444-9.153,20.444-20.444v-81.782c0-11.293-9.153-20.446-20.444-20.444
		c-11.295-0.001-20.444,9.151-20.444,20.444v81.782C2629.744,307.381,2638.893,316.536,2650.188,316.534z"/>
	<path fill="#606060" d="M2722.472,519.955l57.828,57.832c7.985,7.987,20.928,7.985,28.916,0.002c7.981-7.986,7.981-20.931,0-28.912
		l-57.832-57.834c-3.99-3.988-9.222-5.988-14.456-5.988c-5.23,0-10.462,1.998-14.456,5.988
		C2714.487,499.028,2714.487,511.974,2722.472,519.955z"/>
	<g>
		<path fill="#E6E6E6" d="M2423.586,418.762c0,11.289,9.153,20.445,20.44,20.445l81.783,0.001
			c11.291-0.001,20.444-9.155,20.444-20.444c0-11.296-9.153-20.45-20.444-20.45h-81.783
			C2432.74,398.314,2423.586,407.466,2423.586,418.762z"/>
		<path fill="#CCCCCC" d="M2548.991,346.474c7.981,7.985,20.927,7.985,28.913,0c7.984-7.985,7.98-20.927,0-28.913l-57.832-57.828
			c-3.991-3.989-9.223-5.988-14.457-5.988c-5.234,0.001-10.465,1.997-14.456,5.988c-7.981,7.987-7.981,20.931,0,28.913
			L2548.991,346.474z"/>
	</g>
	<path fill="#808080" d="M2752.416,418.762c0,11.289,9.153,20.445,20.444,20.445l81.78,0.001
		c11.291-0.001,20.447-9.153,20.447-20.446c0-11.293-9.156-20.448-20.447-20.448h-81.78
		C2761.569,398.314,2752.416,407.466,2752.416,418.762z"/>
	<path fill="#999999" d="M2722.472,346.476c7.985,7.983,20.931,7.983,28.912,0l57.828-57.829c7.985-7.985,7.985-20.929,0-28.913
		c-3.99-3.992-9.225-5.988-14.455-5.988c-5.231,0-10.466,1.998-14.457,5.988l-57.828,57.829
		C2714.487,325.543,2714.487,338.489,2722.472,346.476z"/>
</g>
<g>
	<path fill="#404040" d="M3244.376,653.152c11.291,0,20.44-9.152,20.444-20.447v-81.782c-0.004-11.291-9.153-20.444-20.444-20.444
		c-11.295,0-20.447,9.153-20.444,20.444v81.782C3223.929,644,3233.085,653.152,3244.376,653.152z"/>
	<path fill="#B3B3B3" d="M3244.376,326.028c11.291,0.001,20.444-9.153,20.444-20.444V223.8c0-11.291-9.157-20.444-20.444-20.444
		c-11.298,0-20.444,9.153-20.444,20.444v81.784C3223.932,316.875,3233.082,326.03,3244.376,326.028z"/>
	<path fill="#606060" d="M3316.658,529.449l57.828,57.832c7.988,7.985,20.927,7.985,28.916,0c7.981-7.985,7.981-20.931,0-28.912
		l-57.832-57.832c-3.987-3.989-9.219-5.988-14.456-5.988c-5.231,0-10.458,1.998-14.456,5.988
		C3308.672,508.521,3308.672,521.466,3316.658,529.449z"/>
	<g>
		<path fill="#E6E6E6" d="M3017.775,428.256c-0.004,11.289,9.153,20.442,20.438,20.444l81.787,0.002
			c11.291-0.004,20.443-9.157,20.443-20.444c0-11.296-9.156-20.451-20.443-20.45l-81.787-0.001
			C3026.924,407.806,3017.771,416.959,3017.775,428.256z"/>
		<path fill="#CCCCCC" d="M3143.176,355.968c7.981,7.985,20.927,7.985,28.912,0c7.985-7.985,7.981-20.927,0-28.912l-57.832-57.829
			c-3.987-3.991-9.218-5.988-14.456-5.988c-5.23,0-10.466,1.997-14.456,5.988c-7.981,7.985-7.981,20.931,0,28.913L3143.176,355.968z
			"/>
	</g>
	<path fill="#808080" d="M3346.605,428.256c-0.004,11.289,9.152,20.442,20.443,20.444l81.78,0.002
		c11.291-0.004,20.444-9.155,20.444-20.448c0-11.292-9.157-20.447-20.444-20.446h-81.784
		C3355.753,407.806,3346.601,416.959,3346.605,428.256z"/>
	<path fill="#999999" d="M3316.661,355.969c7.981,7.983,20.928,7.981,28.913,0l57.828-57.83c7.981-7.983,7.981-20.927,0-28.913
		c-3.994-3.991-9.226-5.988-14.456-5.988c-5.231,0-10.466,1.997-14.456,5.988l-57.829,57.829
		C3308.675,335.037,3308.672,347.983,3316.661,355.969z"/>
</g>
<g>
	<path fill="#404040" d="M3672.333,587.881c7.985,7.984,20.928,7.982,28.916-0.003l57.828-57.829c7.981-7.984,7.985-20.926,0-28.912
		c-7.984-7.984-20.931-7.984-28.912,0l-57.828,57.828C3664.348,566.951,3664.352,579.898,3672.333,587.881z"/>
	<path fill="#B3B3B3" d="M3903.647,356.57c7.981,7.985,20.927,7.983,28.912,0l57.829-57.83c7.984-7.983,7.98-20.931,0-28.912
		c-7.989-7.989-20.928-7.983-28.913,0l-57.828,57.83C3895.662,335.641,3895.658,348.585,3903.647,356.57z"/>
	<path fill="#606060" d="M3810.915,551.521v81.783c0,11.295,9.149,20.444,20.448,20.446c11.287-0.002,20.44-9.157,20.44-20.444
		v-81.785c0.003-5.641-2.282-10.754-5.984-14.457c-3.699-3.698-8.812-5.984-14.456-5.987
		C3820.068,531.077,3810.915,540.228,3810.915,551.521z"/>
	<g>
		<path fill="#E6E6E6" d="M3671.129,268.623c-7.985,7.981-7.981,20.927-0.003,28.909l57.828,57.832
			c7.988,7.981,20.931,7.981,28.912,0c7.988-7.987,7.988-20.935,0.004-28.916l-57.829-57.832
			C3692.06,260.635,3679.115,260.635,3671.129,268.623z"/>
		<path fill="#CCCCCC" d="M3810.915,306.18c0,11.291,9.153,20.444,20.448,20.444c11.291,0,20.44-9.153,20.44-20.444v-81.784
			c0-5.642-2.286-10.752-5.988-14.456c-3.698-3.699-8.814-5.988-14.456-5.988c-11.291,0.002-20.444,9.157-20.444,20.444V306.18z"/>
	</g>
	<path fill="#808080" d="M3903.647,501.14c-7.985,7.982-7.981,20.928,0,28.912l57.825,57.83c7.988,7.98,20.93,7.982,28.916-0.003
		c7.984-7.985,7.984-20.933,0-28.915l-57.829-57.828C3924.578,493.152,3911.632,493.152,3903.647,501.14z"/>
	<path fill="#999999" d="M3933.586,428.854c0,11.289,9.157,20.442,20.444,20.444l81.784-0.002c11.287,0,20.44-9.153,20.444-20.444
		c-0.004-5.646-2.29-10.757-5.988-14.456c-3.699-3.699-8.814-5.988-14.456-5.988h-81.78
		C3942.744,408.406,3933.586,417.558,3933.586,428.854z"/>
</g>
<g>
	<path fill="#404040" d="M4207.742,429.703c0.004,11.293,9.157,20.443,20.451,20.444h81.781
		c11.291-0.001,20.443-9.151,20.443-20.444c0-11.292-9.152-20.446-20.443-20.444h-81.781
		C4216.899,409.257,4207.746,418.414,4207.742,429.703z"/>
	<path fill="#B3B3B3" d="M4534.871,429.705c-0.004,11.291,9.148,20.442,20.443,20.444l81.78-0.002
		c11.291,0.002,20.444-9.155,20.444-20.444c0-11.296-9.153-20.442-20.444-20.444l-81.78,0.002
		C4544.019,409.259,4534.867,418.41,4534.871,429.705z"/>
	<path fill="#606060" d="M4331.445,501.984l-57.828,57.83c-7.988,7.986-7.988,20.928,0,28.916c7.982,7.981,20.928,7.98,28.909-0.002
		l57.832-57.832c3.991-3.984,5.991-9.216,5.991-14.452c0-5.231-1.997-10.462-5.988-14.456
		C4352.376,494.001,4339.431,493.999,4331.445,501.984z"/>
	<g>
		<path fill="#E6E6E6" d="M4432.642,203.104c-11.291-0.004-20.443,9.153-20.443,20.438l-0.004,81.784
			c0.004,11.293,9.156,20.444,20.443,20.444c11.299,0.001,20.451-9.153,20.448-20.444l0.003-81.784
			C4453.089,212.255,4443.937,203.1,4432.642,203.104z"/>
		<path fill="#CCCCCC" d="M4504.927,328.503c-7.982,7.983-7.982,20.929,0.003,28.914c7.985,7.985,20.927,7.982,28.909-0.001
			l57.832-57.83c3.986-3.989,5.984-9.218,5.988-14.457c0-5.231-2.002-10.465-5.988-14.456c-7.985-7.981-20.932-7.981-28.912,0
			L4504.927,328.503z"/>
	</g>
	<path fill="#808080" d="M4432.642,531.933c-11.291-0.004-20.443,9.152-20.443,20.443l-0.004,81.781
		c0.004,11.291,9.156,20.443,20.447,20.443c11.295,0,20.447-9.156,20.444-20.445v-81.783
		C4453.089,541.082,4443.937,531.929,4432.642,531.933z"/>
	<path fill="#999999" d="M4504.927,501.99c-7.982,7.98-7.982,20.929,0,28.912l57.832,57.828c7.98,7.981,20.923,7.981,28.912,0
		c3.986-3.994,5.988-9.225,5.988-14.456s-2.002-10.468-5.988-14.456l-57.828-57.828
		C4525.861,494.004,4512.916,494.001,4504.927,501.99z"/>
</g>
<g>
	<path fill="#404040" d="M4840.696,271.277c-7.981,7.988-7.978,20.931,0.004,28.917l57.828,57.827
		c7.985,7.983,20.927,7.985,28.913,0c7.984-7.985,7.984-20.929,0-28.912l-57.829-57.827
		C4861.63,263.295,4848.681,263.297,4840.696,271.277z"/>
	<path fill="#B3B3B3" d="M5072.009,502.594c-7.985,7.979-7.985,20.924,0,28.912l57.828,57.824c7.982,7.986,20.932,7.984,28.912,0
		c7.989-7.986,7.982-20.927,0-28.912l-57.828-57.824C5092.937,494.605,5079.995,494.603,5072.009,502.594z"/>
	<path fill="#606060" d="M4877.056,409.858l-81.78,0.001c-11.298-0.001-20.448,9.15-20.448,20.447
		c0,11.288,9.154,20.439,20.441,20.439h81.787c5.643,0.006,10.754-2.278,14.457-5.982c3.698-3.699,5.987-8.809,5.987-14.457
		C4897.503,419.014,4888.351,409.858,4877.056,409.858z"/>
	<g>
		<path fill="#E6E6E6" d="M5159.955,270.074c-7.982-7.985-20.928-7.983-28.909-0.003l-57.832,57.828
			c-7.981,7.987-7.981,20.931,0,28.913c7.989,7.991,20.935,7.989,28.916,0.002l57.832-57.827
			C5167.943,291.005,5167.943,278.059,5159.955,270.074z"/>
		<path fill="#CCCCCC" d="M5122.397,409.858c-11.288,0.001-20.44,9.157-20.44,20.449c0,11.293,9.152,20.441,20.44,20.439
			l81.784,0.002c5.641-0.002,10.75-2.285,14.455-5.988c3.699-3.699,5.988-8.814,5.992-14.456
			c-0.004-11.289-9.156-20.444-20.447-20.444L5122.397,409.858z"/>
	</g>
	<path fill="#808080" d="M4927.437,502.594c-7.982-7.986-20.928-7.985-28.912,0l-57.829,57.824
		c-7.981,7.985-7.981,20.932,0.004,28.914c7.985,7.987,20.931,7.984,28.912-0.002l57.829-57.828
		C4935.425,523.521,4935.425,510.577,4927.437,502.594z"/>
	<path fill="#999999" d="M4999.724,532.531c-11.291,0-20.443,9.155-20.443,20.444v81.786c0,11.287,9.152,20.438,20.443,20.443
		c5.646-0.005,10.758-2.289,14.457-5.988c3.699-3.698,5.988-8.817,5.988-14.455v-81.782
		C5020.172,541.688,5011.023,532.531,4999.724,532.531z"/>
</g>
</svg>
