<?xml version="1.0" encoding="utf-8"?>
<!-- Generator: Adobe Illustrator 15.1.0, SVG Export Plug-In . SVG Version: 6.00 Build 0)  -->
<!DOCTYPE svg PUBLIC "-//W3C//DTD SVG 1.1//EN" "http://www.w3.org/Graphics/SVG/1.1/DTD/svg11.dtd">
<svg version="1.1" id="Layer_1" xmlns="http://www.w3.org/2000/svg" xmlns:xlink="http://www.w3.org/1999/xlink" x="0px" y="0px"
	 width="595.281px" height="841.891px" viewBox="0 0 595.281 841.891" enable-background="new 0 0 595.281 841.891"
	 xml:space="preserve">
<g>
	<path fill="#404040" d="M72.742,429.703c0.004,11.293,9.157,20.443,20.451,20.444h81.781c11.291-0.001,20.443-9.151,20.443-20.444
		c0-11.292-9.152-20.446-20.443-20.444H93.193C81.899,409.257,72.746,418.414,72.742,429.703z"/>
	<path fill="#B3B3B3" d="M399.871,429.705c-0.004,11.291,9.148,20.442,20.443,20.444l81.78-0.002
		c11.291,0.002,20.444-9.155,20.444-20.444c0-11.296-9.153-20.442-20.444-20.444l-81.78,0.002
		C409.019,409.259,399.867,418.41,399.871,429.705z"/>
	<path fill="#606060" d="M196.445,501.984l-57.828,57.83c-7.988,7.986-7.988,20.928,0,28.916c7.982,7.981,20.928,7.98,28.909-0.002
		l57.832-57.832c3.991-3.984,5.991-9.216,5.991-14.452c0-5.231-1.997-10.462-5.988-14.456
		C217.376,494.001,204.431,493.999,196.445,501.984z"/>
	<g>
		<path fill="#E6E6E6" d="M297.642,203.104c-11.291-0.004-20.443,9.153-20.443,20.438l-0.004,81.784
			c0.004,11.293,9.156,20.444,20.443,20.444c11.299,0.001,20.451-9.153,20.448-20.444l0.003-81.784
			C318.089,212.255,308.937,203.1,297.642,203.104z"/>
		<path fill="#CCCCCC" d="M369.927,328.503c-7.982,7.983-7.982,20.929,0.003,28.914c7.985,7.985,20.927,7.982,28.909-0.001
			l57.832-57.83c3.986-3.989,5.984-9.218,5.988-14.457c0-5.231-2.002-10.465-5.988-14.456c-7.985-7.981-20.932-7.981-28.912,0
			L369.927,328.503z"/>
	</g>
	<path fill="#808080" d="M297.642,531.933c-11.291-0.004-20.443,9.152-20.443,20.443l-0.004,81.781
		c0.004,11.291,9.156,20.443,20.447,20.443c11.295,0,20.447-9.156,20.444-20.445v-81.783
		C318.089,541.082,308.937,531.929,297.642,531.933z"/>
	<path fill="#999999" d="M369.927,501.99c-7.982,7.98-7.982,20.929,0,28.912l57.832,57.828c7.98,7.981,20.923,7.981,28.912,0
		c3.986-3.994,5.988-9.225,5.988-14.456s-2.002-10.468-5.988-14.456l-57.828-57.828C390.861,494.004,377.916,494.001,369.927,501.99
		z"/>
</g>
<g>
	<path fill="#404040" d="M1921.649,271.277c-7.981,7.988-7.978,20.931,0.004,28.917l57.828,57.827
		c7.985,7.983,20.927,7.985,28.913,0c7.984-7.985,7.984-20.929,0-28.912l-57.829-57.827
		C1942.583,263.295,1929.634,263.297,1921.649,271.277z"/>
	<path fill="#B3B3B3" d="M2152.962,502.594c-7.985,7.979-7.985,20.924,0,28.912l57.828,57.824c7.982,7.986,20.932,7.984,28.912,0
		c7.989-7.986,7.982-20.927,0-28.912l-57.828-57.824C2173.89,494.605,2160.948,494.603,2152.962,502.594z"/>
	<path fill="#606060" d="M1958.009,409.858l-81.78,0.001c-11.298-0.001-20.448,9.15-20.448,20.447
		c0,11.288,9.154,20.439,20.441,20.439h81.787c5.643,0.006,10.754-2.278,14.457-5.982c3.698-3.699,5.987-8.809,5.987-14.457
		C1978.457,419.014,1969.304,409.858,1958.009,409.858z"/>
	<g>
		<path fill="#E6E6E6" d="M2240.908,270.074c-7.982-7.985-20.928-7.983-28.909-0.003l-57.832,57.828
			c-7.981,7.987-7.981,20.931,0,28.913c7.989,7.991,20.935,7.989,28.916,0.002l57.832-57.827
			C2248.896,291.005,2248.896,278.059,2240.908,270.074z"/>
		<path fill="#CCCCCC" d="M2203.35,409.858c-11.288,0.001-20.44,9.157-20.44,20.449c0,11.293,9.152,20.441,20.44,20.439
			l81.784,0.002c5.641-0.002,10.75-2.285,14.455-5.988c3.699-3.699,5.988-8.814,5.992-14.456
			c-0.004-11.289-9.156-20.444-20.447-20.444L2203.35,409.858z"/>
	</g>
	<path fill="#808080" d="M2008.39,502.594c-7.982-7.986-20.928-7.985-28.912,0l-57.829,57.824
		c-7.981,7.985-7.981,20.932,0.004,28.914c7.985,7.987,20.931,7.984,28.912-0.002l57.829-57.828
		C2016.378,523.521,2016.378,510.577,2008.39,502.594z"/>
	<path fill="#999999" d="M2080.677,532.531c-11.291,0-20.443,9.155-20.443,20.444v81.786c0,11.287,9.152,20.438,20.443,20.443
		c5.646-0.005,10.758-2.289,14.457-5.988c3.699-3.698,5.988-8.817,5.988-14.455v-81.782
		C2101.125,541.688,2091.976,532.531,2080.677,532.531z"/>
</g>
</svg>
