<?xml version="1.0" encoding="utf-8"?>
<!-- Generator: Adobe Illustrator 15.1.0, SVG Export Plug-In . SVG Version: 6.00 Build 0)  -->
<!DOCTYPE svg PUBLIC "-//W3C//DTD SVG 1.1//EN" "http://www.w3.org/Graphics/SVG/1.1/DTD/svg11.dtd">
<svg version="1.1" id="Layer_1" xmlns="http://www.w3.org/2000/svg" xmlns:xlink="http://www.w3.org/1999/xlink" x="0px" y="0px"
	 width="595.281px" height="841.891px" viewBox="0 0 595.281 841.891" enable-background="new 0 0 595.281 841.891"
	 xml:space="preserve">
<g>
	<path fill="#404040" d="M138.608,271.277c-7.981,7.988-7.978,20.931,0.004,28.917l57.828,57.827c7.985,7.983,20.927,7.985,28.913,0
		c7.984-7.985,7.984-20.929,0-28.912l-57.829-57.827C159.542,263.295,146.593,263.297,138.608,271.277z"/>
	<path fill="#B3B3B3" d="M369.921,502.594c-7.985,7.979-7.985,20.924,0,28.912l57.828,57.824c7.982,7.986,20.932,7.984,28.912,0
		c7.989-7.986,7.982-20.927,0-28.912l-57.828-57.824C390.849,494.605,377.907,494.603,369.921,502.594z"/>
	<path fill="#606060" d="M174.968,409.858l-81.78,0.001c-11.298-0.001-20.448,9.15-20.448,20.447
		c0,11.288,9.154,20.439,20.441,20.439h81.787c5.643,0.006,10.754-2.278,14.457-5.982c3.698-3.699,5.987-8.809,5.987-14.457
		C195.416,419.014,186.263,409.858,174.968,409.858z"/>
	<g>
		<path fill="#E6E6E6" d="M457.867,270.074c-7.982-7.985-20.928-7.983-28.909-0.003l-57.832,57.828
			c-7.981,7.987-7.981,20.931,0,28.913c7.989,7.991,20.935,7.989,28.916,0.002l57.832-57.827
			C465.855,291.005,465.855,278.059,457.867,270.074z"/>
		<path fill="#CCCCCC" d="M420.309,409.858c-11.288,0.001-20.44,9.157-20.44,20.449c0,11.293,9.152,20.441,20.44,20.439
			l81.784,0.002c5.641-0.002,10.75-2.285,14.455-5.988c3.699-3.699,5.988-8.814,5.992-14.456
			c-0.004-11.289-9.156-20.444-20.447-20.444L420.309,409.858z"/>
	</g>
	<path fill="#808080" d="M225.349,502.594c-7.982-7.986-20.928-7.985-28.912,0l-57.829,57.824
		c-7.981,7.985-7.981,20.932,0.004,28.914c7.985,7.987,20.931,7.984,28.912-0.002l57.829-57.828
		C233.337,523.521,233.337,510.577,225.349,502.594z"/>
	<path fill="#999999" d="M297.636,532.531c-11.291,0-20.443,9.155-20.443,20.444v81.786c0,11.287,9.152,20.438,20.443,20.443
		c5.646-0.005,10.758-2.289,14.457-5.988c3.699-3.698,5.988-8.817,5.988-14.455v-81.782
		C318.084,541.688,308.935,532.531,297.636,532.531z"/>
</g>
</svg>
