<?xml version="1.0" encoding="utf-8"?>
<!-- Generator: Adobe Illustrator 15.1.0, SVG Export Plug-In . SVG Version: 6.00 Build 0)  -->
<!DOCTYPE svg PUBLIC "-//W3C//DTD SVG 1.1//EN" "http://www.w3.org/Graphics/SVG/1.1/DTD/svg11.dtd">
<svg version="1.1" id="Layer_1" xmlns="http://www.w3.org/2000/svg" xmlns:xlink="http://www.w3.org/1999/xlink" x="0px" y="0px"
	 width="699.932px" height="171.293px" viewBox="0 0 699.932 171.293" enable-background="new 0 0 699.932 171.293"
	 xml:space="preserve">
<rect x="-264.728" y="158.509" fill="none" width="189.833" height="47.946"/>
<text transform="matrix(1 0 0 1 -264.7275 184.1143)" font-family="'LuzSans-Book'" font-size="31">powered by</text>
<rect x="-207.062" y="222.85" fill="none" width="178.001" height="44.957"/>
<text transform="matrix(1 0 0 1 -207.0605 246.8604)" font-family="'LuzSans-Book'" font-size="29.0678">.info</text>
<g>
	<g>
		<g>
			<polygon id="SVGID_1_" fill="#FFFFFF" points="7.351,43.733 0,43.733 0,133.615 7.351,133.615 7.351,51.083 67.83,51.083 
				67.83,43.733 			"/>
		</g>
	</g>
	<g>
		<g>
			<polygon id="SVGID_3_" fill="#FFFFFF" points="219.565,0 219.565,43.733 197.511,43.733 197.511,51.083 219.565,51.083 
				219.565,133.615 226.919,133.615 287.468,133.615 287.468,126.266 226.919,126.266 226.919,51.083 265.427,51.083 
				265.427,43.733 226.919,43.733 226.919,0 			"/>
		</g>
	</g>
	<g>
		<g>
			<polygon id="SVGID_5_" fill="#FFFFFF" points="385.503,43.733 302.971,43.733 302.971,51.083 385.503,51.083 385.503,126.266 
				310.321,126.266 310.321,73.055 370.868,73.055 370.868,65.701 310.321,65.701 302.971,65.701 302.971,133.615 310.321,133.615 
				385.503,133.615 392.853,133.615 392.853,43.733 			"/>
		</g>
		<g>
			<g>
				<polygon id="SVGID_2_" fill="#FFFFFF" points="385.503,43.733 302.971,43.733 302.971,51.083 385.503,51.083 385.503,126.266 
					310.321,126.266 310.321,73.055 370.868,73.055 370.868,65.701 310.321,65.701 302.971,65.701 302.971,133.615 310.321,133.615 
					385.503,133.615 392.853,133.615 392.853,43.733 				"/>
			</g>
		</g>
	</g>
	<g>
		<g>
			<polygon id="SVGID_7_" fill="#FFFFFF" points="423.53,0 423.53,133.615 430.878,133.615 506.063,133.615 513.417,133.615 
				513.417,133.594 513.417,43.733 506.063,43.733 445.499,43.733 445.499,51.083 506.063,51.083 506.063,126.266 430.878,126.266 
				430.878,0 			"/>
		</g>
	</g>
	<g>
		<g>
			<polygon id="SVGID_9_" fill="#FFFFFF" points="617.454,43.733 610.101,43.733 610.101,133.615 617.454,133.615 699.933,133.615 
				699.933,126.266 617.454,126.266 617.454,51.083 692.585,51.083 692.585,65.825 631.952,65.825 631.952,73.176 692.585,73.176 
				699.933,73.176 699.933,51.083 699.933,43.733 			"/>
		</g>
	</g>
	<g>
		<g>
			<polygon id="SVGID_11_" fill="#FFFFFF" points="543.991,0 543.991,0 543.991,133.615 551.343,133.615 589.952,133.615 
				589.952,126.266 551.343,126.266 551.343,0 			"/>
		</g>
	</g>
	<g>
		<g>
			<path id="SVGID_13_" fill="#FFFFFF" d="M113.929,102.631l4.595-32.699l32.697,4.596l-4.595,32.697L113.929,102.631z
				 M87.645,43.649v89.863h0.021h89.839v-0.027V43.649h-0.025H87.645z"/>
		</g>
		<g>
			<g>
				<path id="SVGID_6_" fill="#FFFFFF" d="M113.929,102.631l4.595-32.699l32.697,4.596l-4.595,32.697L113.929,102.631z
					 M87.645,43.649v89.863h0.021h89.839v-0.027V43.649h-0.025H87.645z"/>
			</g>
		</g>
	</g>
	<g>
		<path fill="#FFFFFF" d="M15.683,18.701c0,1.164-0.186,2.247-0.558,3.253c-0.372,1.005-0.89,1.878-1.556,2.616
			c-0.666,0.739-1.464,1.319-2.396,1.745c-0.933,0.424-1.965,0.637-3.096,0.637c-0.566,0-1.129-0.066-1.689-0.197
			S5.299,26.436,4.8,26.188c-0.497-0.246-0.95-0.547-1.359-0.902c-0.408-0.355-0.75-0.76-1.021-1.21H2.356v11.299H0V11.08h2.357
			v2.403H2.42c0.314-0.439,0.681-0.832,1.1-1.178c0.418-0.346,0.877-0.637,1.375-0.873c0.497-0.234,1.021-0.414,1.571-0.535
			c0.551-0.121,1.108-0.18,1.674-0.18c1.141,0,2.176,0.204,3.103,0.612c0.928,0.409,1.721,0.972,2.381,1.69
			c0.66,0.717,1.168,1.563,1.525,2.537C15.504,16.533,15.683,17.58,15.683,18.701z M13.482,18.764c0-0.817-0.133-1.593-0.4-2.326
			c-0.268-0.733-0.647-1.373-1.139-1.918c-0.493-0.543-1.084-0.977-1.776-1.295c-0.691-0.32-1.461-0.479-2.31-0.479
			s-1.621,0.155-2.318,0.464c-0.697,0.309-1.289,0.73-1.776,1.266c-0.486,0.533-0.863,1.157-1.131,1.869
			c-0.266,0.713-0.4,1.479-0.4,2.295c0,0.838,0.12,1.637,0.362,2.396c0.24,0.76,0.597,1.428,1.068,2.003
			c0.471,0.577,1.053,1.035,1.744,1.375c0.692,0.34,1.488,0.511,2.389,0.511c0.859,0,1.64-0.17,2.342-0.511
			c0.702-0.34,1.298-0.793,1.792-1.359c0.492-0.564,0.874-1.22,1.147-1.964C13.346,20.346,13.482,19.571,13.482,18.764z"/>
		<path fill="#FFFFFF" d="M36.337,18.827c0,1.143-0.2,2.208-0.597,3.197c-0.399,0.99-0.959,1.849-1.682,2.578
			c-0.723,0.729-1.589,1.303-2.601,1.721c-1.011,0.418-2.128,0.629-3.355,0.629c-1.226,0-2.335-0.21-3.331-0.629
			c-0.996-0.419-1.847-0.993-2.554-1.721c-0.707-0.729-1.252-1.588-1.634-2.578c-0.382-0.989-0.574-2.055-0.574-3.197
			c0-1.152,0.199-2.221,0.598-3.206c0.398-0.983,0.955-1.841,1.673-2.569c0.718-0.728,1.582-1.299,2.593-1.713
			c1.011-0.414,2.129-0.621,3.355-0.621c1.235,0,2.354,0.209,3.355,0.629c1,0.42,1.851,0.996,2.553,1.729
			c0.702,0.733,1.244,1.592,1.626,2.577C36.146,16.637,36.337,17.696,36.337,18.827z M34.074,18.827
			c0-0.807-0.131-1.579-0.393-2.316c-0.262-0.74-0.645-1.393-1.147-1.957c-0.503-0.566-1.116-1.02-1.839-1.361
			c-0.723-0.34-1.545-0.51-2.467-0.51c-0.912,0-1.737,0.168-2.475,0.502c-0.739,0.336-1.368,0.783-1.886,1.345
			c-0.519,0.56-0.92,1.213-1.202,1.956c-0.283,0.744-0.424,1.525-0.424,2.342c0,0.817,0.13,1.598,0.393,2.341
			c0.262,0.744,0.645,1.397,1.147,1.963c0.502,0.566,1.118,1.019,1.846,1.353c0.728,0.336,1.553,0.503,2.475,0.503
			c0.943,0,1.783-0.165,2.523-0.495c0.738-0.33,1.362-0.777,1.869-1.344c0.509-0.565,0.898-1.221,1.171-1.965
			C33.938,20.44,34.074,19.655,34.074,18.827z"/>
		<path fill="#FFFFFF" d="M57.996,27.266h-0.943l-4.919-12.195l-4.887,12.195h-1.005l-6.695-16.188h2.452l4.824,11.88h0.063
			l4.888-12.272h0.801l4.903,12.272h0.094l4.762-11.88h2.452L57.996,27.266z"/>
		<path fill="#FFFFFF" d="M70.29,19.188c0.021,0.9,0.184,1.716,0.487,2.443c0.304,0.729,0.715,1.346,1.234,1.854
			c0.519,0.508,1.124,0.901,1.815,1.178c0.691,0.278,1.43,0.417,2.216,0.417c1.162,0,2.17-0.286,3.024-0.857
			c0.854-0.57,1.564-1.336,2.13-2.302l1.964,0.519c-0.325,0.724-0.736,1.365-1.234,1.926c-0.497,0.561-1.063,1.031-1.697,1.415
			c-0.634,0.382-1.32,0.673-2.058,0.872c-0.739,0.197-1.512,0.299-2.318,0.299c-1.194,0-2.273-0.21-3.237-0.629
			c-0.964-0.418-1.789-0.993-2.476-1.721c-0.686-0.729-1.215-1.588-1.587-2.578c-0.372-0.989-0.558-2.055-0.558-3.197
			c0-1.121,0.189-2.174,0.566-3.159c0.377-0.983,0.905-1.844,1.587-2.578c0.681-0.731,1.498-1.312,2.452-1.735
			c0.953-0.426,2.005-0.637,3.159-0.637c1.225,0,2.318,0.204,3.276,0.612c0.96,0.409,1.768,0.985,2.428,1.729
			c0.66,0.744,1.161,1.634,1.5,2.67c0.341,1.037,0.506,2.19,0.496,3.459H70.29L70.29,19.188z M80.567,15.574
			c-0.262-0.608-0.608-1.138-1.037-1.587c-0.43-0.451-0.956-0.801-1.579-1.053c-0.624-0.252-1.355-0.377-2.192-0.377
			c-0.755,0-1.446,0.127-2.075,0.383c-0.628,0.259-1.179,0.611-1.65,1.063c-0.472,0.45-0.852,0.98-1.14,1.587
			c-0.288,0.607-0.469,1.263-0.542,1.964h10.781C81.018,16.842,80.829,16.182,80.567,15.574z"/>
		<path fill="#FFFFFF" d="M95.156,13.059c-0.293-0.063-0.592-0.095-0.896-0.095c-0.985,0-1.744,0.472-2.279,1.413
			c-0.534,0.942-0.801,2.407-0.801,4.396v7.815h-2.358V11.08h2.358v2.122h0.062c0.367-0.838,0.857-1.456,1.469-1.854
			c0.613-0.398,1.354-0.598,2.224-0.598c0.273,0,0.535,0.031,0.786,0.094c0.252,0.063,0.498,0.143,0.739,0.236l-0.519,2.264
			C95.711,13.217,95.449,13.122,95.156,13.059z"/>
		<path fill="#FFFFFF" d="M101.604,19.188c0.021,0.9,0.184,1.716,0.487,2.443c0.304,0.729,0.716,1.346,1.233,1.854
			c0.519,0.508,1.124,0.901,1.816,1.178c0.691,0.278,1.431,0.417,2.215,0.417c1.164,0,2.172-0.286,3.025-0.857
			c0.854-0.57,1.563-1.336,2.129-2.302l1.965,0.519c-0.324,0.724-0.736,1.365-1.233,1.926c-0.499,0.561-1.065,1.031-1.698,1.415
			c-0.634,0.382-1.319,0.673-2.06,0.872c-0.738,0.197-1.511,0.299-2.318,0.299c-1.194,0-2.273-0.21-3.236-0.629
			c-0.965-0.418-1.79-0.993-2.476-1.721c-0.685-0.729-1.215-1.588-1.587-2.578c-0.371-0.989-0.558-2.055-0.558-3.197
			c0-1.121,0.188-2.174,0.566-3.159c0.377-0.983,0.906-1.844,1.587-2.578c0.681-0.731,1.499-1.312,2.451-1.735
			c0.954-0.426,2.006-0.637,3.16-0.637c1.225,0,2.318,0.204,3.277,0.612c0.957,0.409,1.767,0.985,2.427,1.729
			c0.66,0.744,1.16,1.634,1.5,2.67c0.341,1.037,0.505,2.19,0.495,3.459H101.604L101.604,19.188z M111.88,15.574
			c-0.261-0.608-0.607-1.138-1.036-1.587c-0.43-0.451-0.957-0.801-1.579-1.053c-0.624-0.252-1.355-0.377-2.192-0.377
			c-0.754,0-1.446,0.127-2.074,0.383c-0.629,0.259-1.179,0.611-1.651,1.063c-0.471,0.45-0.852,0.98-1.139,1.587
			c-0.289,0.607-0.469,1.263-0.542,1.964h10.78C112.331,16.842,112.142,16.182,111.88,15.574z"/>
		<path fill="#FFFFFF" d="M132.394,26.589v-2.702h-0.078c-0.284,0.471-0.628,0.896-1.031,1.272
			c-0.405,0.377-0.854,0.698-1.354,0.966c-0.498,0.268-1.025,0.473-1.581,0.613c-0.556,0.142-1.122,0.212-1.699,0.212
			c-1.155,0-2.203-0.21-3.147-0.629c-0.944-0.419-1.75-0.995-2.416-1.728c-0.666-0.733-1.183-1.599-1.549-2.594
			c-0.367-0.995-0.55-2.064-0.55-3.206c0-1.12,0.174-2.173,0.526-3.157c0.351-0.985,0.857-1.842,1.519-2.569
			c0.66-0.729,1.463-1.302,2.407-1.722c0.944-0.418,2.003-0.629,3.178-0.629c0.566,0,1.123,0.065,1.668,0.197
			c0.545,0.131,1.064,0.319,1.557,0.564c0.494,0.246,0.95,0.551,1.37,0.912c0.418,0.36,0.785,0.772,1.101,1.233h0.078V0h2.357
			v26.589H132.394L132.394,26.589z M132.52,18.637c0-0.795-0.137-1.55-0.409-2.263c-0.273-0.712-0.656-1.338-1.149-1.877
			c-0.493-0.54-1.092-0.967-1.794-1.28c-0.703-0.314-1.479-0.473-2.329-0.473s-1.618,0.148-2.306,0.447
			c-0.688,0.3-1.269,0.716-1.748,1.25c-0.476,0.535-0.843,1.169-1.101,1.902c-0.258,0.732-0.386,1.539-0.386,2.42
			c0,0.807,0.134,1.582,0.402,2.325c0.268,0.744,0.645,1.404,1.133,1.979c0.486,0.576,1.08,1.035,1.778,1.375
			c0.698,0.341,1.47,0.512,2.32,0.512c0.902,0,1.7-0.172,2.393-0.52c0.693-0.346,1.275-0.81,1.747-1.391
			c0.472-0.582,0.832-1.251,1.078-2.012C132.396,20.274,132.52,19.477,132.52,18.637z"/>
		<path fill="#FFFFFF" d="M167.322,18.701c0,1.164-0.187,2.247-0.557,3.253c-0.374,1.005-0.892,1.878-1.558,2.616
			c-0.665,0.739-1.464,1.319-2.396,1.745c-0.933,0.424-1.964,0.637-3.095,0.637c-0.565,0-1.134-0.069-1.705-0.205
			c-0.572-0.136-1.108-0.332-1.611-0.589c-0.503-0.257-0.956-0.576-1.359-0.959c-0.403-0.382-0.73-0.819-0.981-1.312h-0.063v2.702
			h-2.359V0h2.359v13.656h0.063c0.291-0.473,0.649-0.889,1.068-1.25c0.418-0.361,0.877-0.668,1.375-0.919
			c0.498-0.252,1.026-0.443,1.588-0.574c0.56-0.131,1.124-0.197,1.689-0.197c1.142,0,2.176,0.205,3.103,0.613
			c0.929,0.409,1.722,0.972,2.382,1.69c0.66,0.717,1.167,1.563,1.523,2.537C167.143,16.533,167.322,17.58,167.322,18.701z
			 M165.09,18.764c0-0.85-0.128-1.646-0.385-2.39c-0.256-0.743-0.622-1.388-1.099-1.933c-0.476-0.545-1.061-0.975-1.751-1.289
			c-0.692-0.314-1.479-0.471-2.359-0.471c-0.847,0-1.62,0.156-2.318,0.471c-0.696,0.314-1.287,0.744-1.775,1.289
			c-0.487,0.544-0.864,1.176-1.132,1.894c-0.265,0.718-0.399,1.485-0.399,2.302c0,0.84,0.12,1.642,0.361,2.404
			c0.241,0.766,0.597,1.441,1.068,2.027c0.472,0.587,1.052,1.054,1.745,1.398c0.691,0.346,1.488,0.519,2.388,0.519
			c0.86,0,1.637-0.173,2.333-0.519c0.698-0.346,1.292-0.808,1.785-1.383c0.491-0.576,0.872-1.238,1.139-1.988
			C164.955,20.348,165.09,19.571,165.09,18.764z"/>
		<path fill="#FFFFFF" d="M176.063,35.374h-2.404l3.96-9.005l-7.402-15.29h2.593l5.988,12.775h0.063l5.42-12.775h2.5L176.063,35.374
			z"/>
	</g>
	<g>
		<path fill="#FFFFFF" d="M632.729,169.648c0,0.463-0.158,0.854-0.479,1.17c-0.313,0.315-0.709,0.475-1.17,0.475
			c-0.453,0-0.838-0.158-1.154-0.475c-0.313-0.316-0.477-0.707-0.477-1.17c0-0.229,0.043-0.439,0.129-0.64
			c0.084-0.196,0.201-0.373,0.348-0.522c0.148-0.154,0.32-0.275,0.521-0.365c0.199-0.092,0.41-0.137,0.637-0.137
			c0.229,0,0.441,0.045,0.646,0.137c0.2,0.09,0.377,0.211,0.521,0.365c0.148,0.149,0.269,0.326,0.353,0.522
			C632.688,169.209,632.729,169.422,632.729,169.648z"/>
		<path fill="#FFFFFF" d="M644.54,148.49c0,0.215-0.047,0.418-0.137,0.609c-0.091,0.192-0.209,0.362-0.357,0.512
			c-0.145,0.145-0.315,0.262-0.518,0.348c-0.195,0.084-0.404,0.127-0.619,0.127c-0.228,0-0.441-0.043-0.646-0.127
			c-0.203-0.086-0.379-0.201-0.524-0.348c-0.146-0.148-0.265-0.316-0.349-0.512c-0.084-0.191-0.129-0.396-0.129-0.609
			c0-0.451,0.158-0.83,0.478-1.137c0.313-0.308,0.709-0.457,1.17-0.457c0.215,0,0.424,0.039,0.618,0.117
			c0.197,0.077,0.371,0.19,0.519,0.34c0.147,0.146,0.27,0.315,0.356,0.51C644.495,148.055,644.54,148.264,644.54,148.49z
			 M641.62,170.869v-16.746h2.545v16.746H641.62z"/>
		<path fill="#FFFFFF" d="M662.36,170.869v-10.246c0-0.715-0.062-1.365-0.168-1.953c-0.115-0.588-0.313-1.094-0.587-1.518
			c-0.278-0.424-0.659-0.752-1.146-0.984c-0.486-0.229-1.104-0.348-1.85-0.348c-0.728,0-1.361,0.149-1.918,0.459
			c-0.556,0.305-1.021,0.729-1.398,1.27c-0.379,0.543-0.666,1.186-0.865,1.918c-0.196,0.734-0.297,1.525-0.297,2.375v9.025h-2.545
			v-16.746h2.545v2.393h0.068c0.52-0.881,1.213-1.563,2.078-2.053c0.864-0.486,1.895-0.729,3.096-0.729
			c1.764,0,3.129,0.537,4.09,1.608c0.959,1.076,1.441,2.647,1.441,4.72v10.807h-2.545V170.869z"/>
		<path fill="#FFFFFF" d="M674.747,156.381v14.488h-2.545v-14.488h-1.916v-2.258h1.916v-6.6c0-1.01,0.125-1.875,0.375-2.605
			c0.246-0.729,0.592-1.328,1.033-1.799c0.44-0.469,0.973-0.814,1.588-1.035c0.617-0.221,1.287-0.33,2.01-0.33
			c0.236,0,0.527,0.025,0.873,0.076s0.631,0.127,0.857,0.229v2.291c-0.451-0.203-0.945-0.305-1.486-0.305
			c-0.428,0-0.812,0.064-1.148,0.195c-0.34,0.129-0.625,0.348-0.854,0.65c-0.232,0.307-0.404,0.713-0.523,1.215
			c-0.117,0.504-0.178,1.135-0.178,1.891v6.125h4.191v2.258h-4.193V156.381z"/>
		<path fill="#FFFFFF" d="M699.933,162.488c0,1.229-0.217,2.383-0.646,3.453c-0.43,1.065-1.035,1.996-1.816,2.779
			c-0.774,0.786-1.715,1.405-2.805,1.858c-1.094,0.451-2.301,0.678-3.625,0.678c-1.322,0-2.52-0.228-3.598-0.678
			c-1.074-0.453-1.99-1.072-2.754-1.858c-0.767-0.783-1.354-1.714-1.767-2.779c-0.414-1.07-0.619-2.224-0.619-3.453
			c0-1.244,0.215-2.398,0.646-3.461c0.43-1.064,1.033-1.988,1.807-2.775c0.773-0.785,1.707-1.398,2.803-1.848
			c1.091-0.447,2.297-0.67,3.619-0.67c1.334,0,2.541,0.227,3.623,0.678c1.078,0.453,1.998,1.074,2.76,1.867
			c0.757,0.791,1.343,1.719,1.757,2.781C699.726,160.123,699.933,161.266,699.933,162.488z M697.489,162.488
			c0-0.871-0.144-1.705-0.422-2.502c-0.283-0.799-0.695-1.502-1.24-2.113c-0.541-0.611-1.205-1.1-1.984-1.467
			c-0.778-0.369-1.67-0.551-2.664-0.551c-0.981,0-1.875,0.18-2.67,0.543c-0.799,0.358-1.479,0.844-2.037,1.447
			c-0.561,0.604-0.993,1.311-1.297,2.112c-0.307,0.804-0.461,1.646-0.461,2.526c0,0.882,0.146,1.726,0.426,2.525
			c0.281,0.807,0.695,1.512,1.24,2.121c0.541,0.611,1.207,1.1,1.99,1.459c0.787,0.363,1.68,0.543,2.674,0.543
			c1.019,0,1.926-0.178,2.724-0.531c0.799-0.356,1.471-0.844,2.02-1.451c0.549-0.61,0.971-1.317,1.266-2.121
			C697.341,164.229,697.489,163.381,697.489,162.488z"/>
	</g>
</g>
<g>
	<g>
		<polygon id="SVGID_15_" fill="#231F20" points="160.072,703.423 156.725,703.423 156.725,744.347 160.072,744.347 
			160.072,706.769 187.608,706.769 187.608,703.423 		"/>
	</g>
	<g>
		<g>
			<g>
				<defs>
					<polygon id="SVGID_4_" points="149.857,732.155 149.265,735.449 189.537,742.693 190.129,739.401 153.15,732.748 
						158.025,705.65 154.733,705.058 					"/>
				</defs>
				<clipPath id="SVGID_8_">
					<use xlink:href="#SVGID_4_"  overflow="visible"/>
				</clipPath>
				
					<rect x="150.796" y="707.247" transform="matrix(-0.0593 0.9982 -0.9982 -0.0593 904.9434 594.9722)" clip-path="url(#SVGID_8_)" fill="#231F20" width="42.68" height="33.251"/>
			</g>
		</g>
	</g>
</g>
<g>
	<g>
		<polygon id="SVGID_17_" fill="#231F20" points="256.695,683.511 256.695,703.423 246.653,703.423 246.653,706.769 
			256.695,706.769 256.695,744.347 260.043,744.347 287.61,744.347 287.61,741 260.043,741 260.043,706.769 277.575,706.769 
			277.575,703.423 260.043,703.423 260.043,683.511 		"/>
	</g>
	<g>
		<g>
			<g>
				<defs>
					<polygon id="SVGID_10_" points="235.324,718.829 254.918,722.356 253.141,732.238 256.433,732.828 258.212,722.947 
						295.19,729.601 295.784,726.306 300.663,699.178 297.369,698.586 292.489,725.712 258.804,719.652 261.908,702.399 
						258.616,701.807 255.511,719.062 235.917,715.535 					"/>
				</defs>
				<clipPath id="SVGID_12_">
					<use xlink:href="#SVGID_10_"  overflow="visible"/>
				</clipPath>
				
					<rect x="235.529" y="691.702" transform="matrix(-0.0593 0.9982 -0.9982 -0.0593 995.6326 489.6516)" clip-path="url(#SVGID_12_)" fill="#231F20" width="63.15" height="44.485"/>
			</g>
		</g>
	</g>
</g>
<g>
	<g>
		<polygon id="SVGID_19_" fill="#231F20" points="332.247,703.423 294.669,703.423 294.669,706.769 332.247,706.769 332.247,741 
			298.016,741 298.016,716.773 325.583,716.773 325.583,713.423 298.016,713.423 294.669,713.423 294.669,744.347 298.016,744.347 
			332.247,744.347 335.593,744.347 335.593,703.423 		"/>
	</g>
	<g>
		<g>
			<g>
				<defs>
					<polygon id="SVGID_14_" points="298.012,703.473 291.359,740.452 294.652,741.045 301.305,704.065 334.99,710.126 
						328.93,743.811 305.088,739.521 309.969,712.395 306.672,711.8 301.792,738.929 301.2,742.224 331.63,747.697 332.224,744.404 
						338.284,710.718 338.876,707.424 298.604,700.181 					"/>
				</defs>
				<clipPath id="SVGID_16_">
					<use xlink:href="#SVGID_14_"  overflow="visible"/>
				</clipPath>
				
					<rect x="293.479" y="702.303" transform="matrix(-0.0593 0.9982 -0.9982 -0.0593 1056.47 452.3097)" clip-path="url(#SVGID_16_)" fill="#231F20" width="43.275" height="43.272"/>
			</g>
		</g>
	</g>
</g>
<g>
	<g>
		<polygon id="SVGID_21_" fill="#231F20" points="349.56,683.511 349.56,744.347 352.907,744.347 387.138,744.347 390.487,744.347 
			390.487,744.337 390.487,703.423 387.138,703.423 359.563,703.423 359.563,706.769 387.138,706.769 387.138,741 352.907,741 
			352.907,683.511 		"/>
	</g>
	<g>
		<g>
			<g>
				<defs>
					<polygon id="SVGID_18_" points="336.433,728.684 396.298,739.455 396.892,736.161 402.952,702.475 403.544,699.18 
						403.534,699.178 363.274,691.933 362.682,695.229 357.798,722.364 361.091,722.959 365.974,695.822 399.659,701.883 
						393.597,735.569 337.025,725.389 					"/>
				</defs>
				<clipPath id="SVGID_20_">
					<use xlink:href="#SVGID_18_"  overflow="visible"/>
				</clipPath>
				
					<rect x="338.416" y="691.701" transform="matrix(-0.0593 0.9982 -0.9982 -0.0593 1104.6042 386.9292)" clip-path="url(#SVGID_20_)" fill="#231F20" width="63.146" height="44.459"/>
			</g>
		</g>
	</g>
</g>
<g>
	<g>
		<polygon id="SVGID_23_" fill="#231F20" points="437.855,703.423 434.507,703.423 434.507,744.347 437.855,744.347 
			475.408,744.347 475.408,741 437.855,741 437.855,706.769 472.063,706.769 472.063,713.482 444.457,713.482 444.457,716.828 
			472.063,716.828 475.408,716.828 475.408,706.769 475.408,703.423 		"/>
	</g>
</g>
<g>
	<g>
		<polygon id="SVGID_25_" fill="#231F20" points="404.406,683.511 404.406,683.511 404.406,744.347 407.755,744.347 
			425.332,744.347 425.332,741 407.755,741 407.755,683.511 		"/>
	</g>
</g>
<g>
	<g>
		<path id="SVGID_27_" fill="#231F20" d="M208.598,730.24l2.092-14.891l14.887,2.094l-2.092,14.889L208.598,730.24z M196.63,703.384
			V744.3h0.009h40.904v-0.014v-40.902h-0.011H196.63L196.63,703.384z"/>
	</g>
	<g>
		<g>
			<g>
				<defs>
					<path id="SVGID_22_" d="M221.844,733.314l-14.28-4.693l4.695-14.279l14.28,4.694L221.844,733.314z M193.299,740.338
						l40.263,7.244l0.001-0.008l7.243-40.253l-0.013-0.003l-40.25-7.243l-0.002,0.013L193.299,740.338z"/>
				</defs>
				<clipPath id="SVGID_24_">
					<use xlink:href="#SVGID_22_"  overflow="visible"/>
				</clipPath>
				
					<rect x="195.421" y="702.198" transform="matrix(-0.0593 0.9982 -0.9982 -0.0593 952.4793 550.0814)" clip-path="url(#SVGID_24_)" fill="#231F20" width="43.263" height="43.264"/>
			</g>
		</g>
	</g>
</g>
<g>
	<path fill="#231F20" d="M163.614,692.025c0,0.527-0.085,1.021-0.254,1.479c-0.169,0.459-0.405,0.855-0.708,1.191
		c-0.303,0.336-0.667,0.602-1.091,0.795c-0.425,0.189-0.895,0.289-1.41,0.289c-0.258,0-0.514-0.029-0.769-0.092
		c-0.255-0.061-0.496-0.146-0.723-0.258c-0.226-0.109-0.433-0.25-0.619-0.412c-0.186-0.158-0.341-0.346-0.465-0.551h-0.028v5.146
		h-1.073v-11.064h1.073v1.098h0.028c0.144-0.199,0.311-0.381,0.501-0.535c0.19-0.158,0.399-0.289,0.626-0.396
		c0.226-0.105,0.465-0.188,0.715-0.244c0.25-0.055,0.504-0.082,0.762-0.082c0.52,0,0.991,0.096,1.413,0.279
		c0.422,0.186,0.784,0.441,1.084,0.771c0.301,0.324,0.532,0.711,0.694,1.152C163.533,691.039,163.614,691.515,163.614,692.025z
		 M162.612,692.054c0-0.373-0.061-0.725-0.182-1.059c-0.122-0.334-0.294-0.625-0.519-0.873c-0.225-0.248-0.494-0.445-0.809-0.59
		c-0.315-0.146-0.666-0.22-1.052-0.22c-0.387,0-0.738,0.069-1.056,0.212c-0.318,0.141-0.586,0.331-0.809,0.574
		c-0.221,0.242-0.393,0.527-0.515,0.854c-0.121,0.324-0.182,0.672-0.182,1.045c0,0.381,0.055,0.744,0.165,1.09
		c0.109,0.346,0.272,0.65,0.486,0.912c0.215,0.264,0.479,0.471,0.794,0.627c0.315,0.154,0.678,0.232,1.088,0.232
		c0.391,0,0.747-0.078,1.066-0.232c0.319-0.156,0.591-0.361,0.815-0.619s0.398-0.557,0.522-0.895
		C162.55,692.775,162.612,692.421,162.612,692.054z"/>
	<path fill="#231F20" d="M173.018,692.083c0,0.521-0.091,1.004-0.272,1.455c-0.182,0.451-0.437,0.842-0.766,1.174
		c-0.329,0.33-0.724,0.592-1.184,0.783c-0.46,0.188-0.969,0.287-1.527,0.287s-1.063-0.1-1.517-0.287
		c-0.454-0.191-0.841-0.453-1.163-0.783c-0.322-0.332-0.57-0.723-0.744-1.174c-0.174-0.451-0.261-0.938-0.261-1.455
		c0-0.525,0.091-1.012,0.272-1.461c0.181-0.447,0.435-0.838,0.762-1.17c0.327-0.33,0.72-0.592,1.181-0.779
		c0.46-0.188,0.969-0.283,1.528-0.283c0.562,0,1.072,0.1,1.527,0.287c0.455,0.191,0.843,0.453,1.163,0.787
		c0.319,0.334,0.566,0.727,0.74,1.174C172.931,691.085,173.018,691.568,173.018,692.083z M171.987,692.083
		c0-0.367-0.06-0.721-0.179-1.057c-0.12-0.336-0.293-0.635-0.522-0.893s-0.508-0.465-0.837-0.619c-0.33-0.152-0.704-0.23-1.123-0.23
		c-0.416,0-0.791,0.076-1.127,0.229c-0.337,0.154-0.623,0.357-0.859,0.613c-0.236,0.254-0.419,0.551-0.547,0.891
		c-0.129,0.339-0.193,0.693-0.193,1.066c0,0.371,0.059,0.727,0.179,1.063c0.119,0.342,0.293,0.639,0.522,0.896
		s0.509,0.463,0.84,0.615c0.331,0.15,0.707,0.229,1.127,0.229c0.429,0,0.812-0.073,1.148-0.225c0.336-0.152,0.62-0.354,0.851-0.611
		c0.232-0.258,0.409-0.557,0.533-0.895C171.925,692.818,171.987,692.458,171.987,692.083z"/>
	<path fill="#231F20" d="M182.879,695.925h-0.429l-2.24-5.553l-2.225,5.553h-0.458l-3.048-7.371h1.116l2.196,5.41h0.029l2.226-5.588
		h0.365l2.232,5.588h0.042l2.168-5.41h1.117L182.879,695.925z"/>
	<path fill="#231F20" d="M188.477,692.248c0.01,0.41,0.084,0.781,0.222,1.111c0.138,0.332,0.326,0.611,0.562,0.846
		c0.236,0.229,0.512,0.41,0.827,0.535c0.314,0.127,0.651,0.188,1.009,0.188c0.529,0,0.988-0.129,1.377-0.391
		c0.389-0.26,0.712-0.607,0.97-1.047l0.894,0.232c-0.148,0.33-0.335,0.621-0.562,0.88c-0.226,0.255-0.484,0.47-0.772,0.644
		c-0.289,0.174-0.602,0.307-0.937,0.396c-0.337,0.094-0.688,0.139-1.056,0.139c-0.544,0-1.035-0.1-1.474-0.285
		c-0.439-0.191-0.814-0.453-1.127-0.785c-0.312-0.33-0.553-0.723-0.723-1.172c-0.169-0.451-0.254-0.938-0.254-1.457
		c0-0.51,0.086-0.988,0.258-1.438c0.172-0.446,0.412-0.841,0.723-1.175c0.31-0.334,0.682-0.598,1.116-0.791
		c0.434-0.189,0.913-0.289,1.438-0.289c0.558,0,1.056,0.096,1.492,0.279c0.437,0.188,0.805,0.447,1.105,0.787
		c0.301,0.338,0.528,0.744,0.683,1.217c0.155,0.472,0.23,0.996,0.226,1.574h-5.997V692.248z M193.156,690.601
		c-0.119-0.273-0.277-0.518-0.472-0.723c-0.196-0.205-0.436-0.365-0.719-0.479c-0.284-0.115-0.617-0.174-0.999-0.174
		c-0.344,0-0.658,0.061-0.944,0.176s-0.537,0.277-0.751,0.482s-0.388,0.445-0.519,0.725c-0.131,0.273-0.214,0.572-0.247,0.895h4.909
		C193.361,691.179,193.275,690.878,193.156,690.601z"/>
	<path fill="#231F20" d="M199.798,689.457c-0.134-0.029-0.27-0.043-0.408-0.043c-0.449,0-0.794,0.215-1.038,0.643
		c-0.243,0.434-0.365,1.1-0.365,2.002v3.563h-1.073v-7.064h1.073v0.967h0.028c0.167-0.381,0.39-0.66,0.669-0.844
		c0.279-0.182,0.617-0.271,1.012-0.271c0.125,0,0.244,0.016,0.358,0.043c0.115,0.025,0.227,0.063,0.336,0.104l-0.236,1.031
		C200.051,689.529,199.932,689.486,199.798,689.457z"/>
	<path fill="#231F20" d="M202.734,692.248c0.009,0.41,0.083,0.781,0.222,1.111c0.139,0.332,0.326,0.611,0.562,0.846
		c0.236,0.229,0.512,0.41,0.827,0.535c0.315,0.127,0.651,0.188,1.009,0.188c0.53,0,0.989-0.129,1.377-0.391
		c0.389-0.26,0.712-0.607,0.969-1.047l0.895,0.232c-0.147,0.33-0.335,0.621-0.561,0.88c-0.227,0.255-0.485,0.47-0.773,0.644
		c-0.289,0.174-0.601,0.307-0.938,0.396c-0.336,0.094-0.688,0.139-1.055,0.139c-0.544,0-1.035-0.1-1.473-0.285
		c-0.439-0.191-0.815-0.453-1.127-0.785c-0.312-0.33-0.553-0.723-0.723-1.172c-0.169-0.451-0.254-0.938-0.254-1.457
		c0-0.51,0.085-0.988,0.257-1.438c0.172-0.446,0.413-0.841,0.723-1.175s0.682-0.598,1.116-0.791
		c0.434-0.189,0.913-0.289,1.438-0.289c0.558,0,1.055,0.096,1.492,0.279c0.435,0.188,0.804,0.447,1.105,0.787
		c0.3,0.338,0.528,0.744,0.683,1.217c0.155,0.472,0.23,0.996,0.225,1.574h-5.996V692.248z M207.413,690.601
		c-0.119-0.273-0.276-0.518-0.472-0.723c-0.196-0.205-0.436-0.365-0.719-0.479c-0.284-0.115-0.617-0.174-0.998-0.174
		c-0.343,0-0.658,0.061-0.944,0.176c-0.287,0.115-0.537,0.277-0.752,0.482c-0.214,0.205-0.388,0.445-0.519,0.725
		c-0.131,0.273-0.213,0.572-0.247,0.895h4.908C207.618,691.179,207.532,690.878,207.413,690.601z"/>
	<path fill="#231F20" d="M216.753,695.617v-1.23h-0.036c-0.129,0.215-0.286,0.408-0.469,0.58c-0.185,0.172-0.389,0.318-0.616,0.439
		c-0.227,0.121-0.467,0.215-0.72,0.279c-0.253,0.063-0.511,0.098-0.773,0.098c-0.525,0-1.003-0.098-1.433-0.287
		c-0.43-0.191-0.796-0.453-1.1-0.787c-0.304-0.334-0.539-0.727-0.706-1.18s-0.25-0.941-0.25-1.461c0-0.51,0.08-0.988,0.24-1.438
		c0.16-0.448,0.391-0.84,0.691-1.17c0.3-0.332,0.666-0.594,1.096-0.783c0.43-0.189,0.912-0.286,1.447-0.286
		c0.258,0,0.511,0.028,0.76,0.091c0.248,0.061,0.485,0.146,0.709,0.258c0.225,0.111,0.433,0.25,0.624,0.416
		c0.19,0.164,0.357,0.352,0.501,0.561h0.036v-6.203h1.073v12.105L216.753,695.617L216.753,695.617z M216.81,691.998
		c0-0.363-0.063-0.707-0.186-1.031c-0.125-0.324-0.299-0.605-0.523-0.854s-0.497-0.439-0.816-0.582
		c-0.32-0.146-0.674-0.215-1.061-0.215c-0.387,0-0.737,0.064-1.05,0.199c-0.313,0.141-0.578,0.326-0.796,0.57
		c-0.217,0.242-0.384,0.531-0.501,0.865s-0.176,0.701-0.176,1.102c0,0.367,0.061,0.725,0.183,1.063
		c0.122,0.338,0.293,0.639,0.516,0.896c0.221,0.268,0.492,0.477,0.81,0.627c0.318,0.154,0.669,0.232,1.056,0.232
		c0.411,0,0.774-0.078,1.089-0.236c0.315-0.156,0.581-0.369,0.795-0.633c0.215-0.266,0.379-0.57,0.491-0.916
		C216.754,692.742,216.81,692.378,216.81,691.998z"/>
	<path fill="#231F20" d="M232.656,692.025c0,0.527-0.085,1.021-0.253,1.479c-0.17,0.459-0.406,0.855-0.709,1.191
		c-0.303,0.336-0.667,0.602-1.091,0.795c-0.425,0.189-0.894,0.289-1.409,0.289c-0.257,0-0.517-0.031-0.776-0.096
		c-0.26-0.063-0.504-0.148-0.734-0.27c-0.229-0.115-0.435-0.262-0.619-0.436c-0.184-0.176-0.333-0.373-0.447-0.6h-0.029v1.23h-1.074
		v-12.105h1.074v6.217h0.029c0.132-0.215,0.295-0.402,0.486-0.566c0.19-0.164,0.399-0.307,0.626-0.418
		c0.226-0.115,0.467-0.201,0.723-0.264c0.255-0.061,0.512-0.09,0.77-0.09c0.52,0,0.99,0.094,1.413,0.279
		c0.423,0.184,0.784,0.439,1.084,0.77c0.3,0.326,0.531,0.711,0.693,1.154C232.574,691.039,232.656,691.515,232.656,692.025z
		 M231.639,692.054c0-0.387-0.058-0.748-0.175-1.088c-0.116-0.338-0.283-0.633-0.5-0.879c-0.217-0.248-0.483-0.445-0.797-0.588
		c-0.315-0.144-0.673-0.215-1.074-0.215c-0.386,0-0.738,0.07-1.056,0.215c-0.317,0.143-0.586,0.34-0.808,0.588
		c-0.222,0.246-0.394,0.535-0.516,0.861c-0.121,0.326-0.182,0.676-0.182,1.049c0,0.381,0.054,0.746,0.165,1.094
		c0.109,0.35,0.271,0.656,0.486,0.922c0.214,0.271,0.479,0.48,0.794,0.641c0.315,0.157,0.678,0.232,1.087,0.232
		c0.392,0,0.746-0.078,1.063-0.232c0.318-0.156,0.588-0.367,0.813-0.631c0.224-0.264,0.396-0.563,0.519-0.902
		C231.578,692.775,231.639,692.421,231.639,692.054z"/>
	<path fill="#231F20" d="M236.636,699.617h-1.095l1.803-4.102l-3.37-6.963h1.181l2.727,5.816h0.029l2.468-5.816h1.138
		L236.636,699.617z"/>
</g>
</svg>
