<?xml version="1.0" encoding="utf-8"?>
<!-- Generator: Adobe Illustrator 15.1.0, SVG Export Plug-In . SVG Version: 6.00 Build 0)  -->
<!DOCTYPE svg PUBLIC "-//W3C//DTD SVG 1.1//EN" "http://www.w3.org/Graphics/SVG/1.1/DTD/svg11.dtd">
<svg version="1.1" id="Layer_1" xmlns="http://www.w3.org/2000/svg" xmlns:xlink="http://www.w3.org/1999/xlink" x="0px" y="0px"
	 width="699.932px" height="133.511px" viewBox="0 0 699.932 133.511" enable-background="new 0 0 699.932 133.511"
	 xml:space="preserve">
<rect x="-264.728" y="158.509" fill="none" width="189.833" height="47.945"/>
<text transform="matrix(1 0 0 1 -264.7275 184.1138)" font-family="'LuzSans-Book'" font-size="31">powered by</text>
<rect x="-207.062" y="222.85" fill="none" width="178.001" height="44.957"/>
<text transform="matrix(1 0 0 1 -207.0605 246.8599)" font-family="'LuzSans-Book'" font-size="29.0678">.info</text>
<g>
	<g>
		<g>
			<polygon id="SVGID_1_" fill="#231F20" points="7.351,43.681 0,43.681 0,133.563 7.351,133.563 7.351,51.032 67.83,51.032 
				67.83,43.681 			"/>
		</g>
	</g>
	<g>
		<g>
			<polygon id="SVGID_3_" fill="#231F20" points="219.565,-0.052 219.565,43.681 197.511,43.681 197.511,51.032 219.565,51.032 
				219.565,133.563 226.919,133.563 287.468,133.563 287.468,126.212 226.919,126.212 226.919,51.032 265.427,51.032 
				265.427,43.681 226.919,43.681 226.919,-0.052 			"/>
		</g>
	</g>
	<g>
		<g>
			<polygon id="SVGID_5_" fill="#231F20" points="385.503,43.681 302.971,43.681 302.971,51.032 385.503,51.032 385.503,126.212 
				310.321,126.212 310.321,73.001 370.868,73.001 370.868,65.649 310.321,65.649 302.971,65.649 302.971,133.563 310.321,133.563 
				385.503,133.563 392.853,133.563 392.853,43.681 			"/>
		</g>
	</g>
	<g>
		<g>
			<polygon id="SVGID_7_" fill="#231F20" points="423.53,-0.052 423.53,133.563 430.878,133.563 506.063,133.563 513.417,133.563 
				513.417,133.542 513.417,43.681 506.063,43.681 445.499,43.681 445.499,51.032 506.063,51.032 506.063,126.212 430.878,126.212 
				430.878,-0.052 			"/>
		</g>
	</g>
	<g>
		<g>
			<polygon id="SVGID_9_" fill="#231F20" points="617.454,43.681 610.101,43.681 610.101,133.563 617.454,133.563 699.933,133.563 
				699.933,126.212 617.454,126.212 617.454,51.032 692.585,51.032 692.585,65.772 631.952,65.772 631.952,73.125 692.585,73.125 
				699.933,73.125 699.933,51.032 699.933,43.681 			"/>
		</g>
	</g>
	<g>
		<g>
			<polygon id="SVGID_11_" fill="#231F20" points="543.991,-0.052 543.991,-0.052 543.991,133.563 551.343,133.563 589.952,133.563 
				589.952,126.212 551.343,126.212 551.343,-0.052 			"/>
		</g>
	</g>
	<g>
		<g>
			<path id="SVGID_13_" fill="#231F20" d="M113.929,102.58l4.595-32.699l32.697,4.596l-4.595,32.695L113.929,102.58z M87.645,43.596
				v89.862h0.021h89.839v-0.024V43.597h-0.025L87.645,43.596L87.645,43.596z"/>
		</g>
	</g>
	<g>
		<path fill="#231F20" d="M15.683,18.649c0,1.164-0.186,2.246-0.558,3.252c-0.372,1.006-0.89,1.879-1.556,2.617
			s-1.464,1.318-2.396,1.744c-0.933,0.424-1.965,0.637-3.096,0.637c-0.566,0-1.129-0.065-1.689-0.197
			c-0.56-0.131-1.089-0.318-1.588-0.565c-0.497-0.246-0.95-0.547-1.359-0.903c-0.408-0.354-0.75-0.759-1.021-1.209H2.356v11.299H0
			V11.028h2.357v2.403H2.42c0.314-0.44,0.681-0.833,1.1-1.178c0.418-0.347,0.877-0.638,1.375-0.873
			c0.497-0.235,1.021-0.414,1.571-0.535c0.551-0.121,1.108-0.181,1.674-0.181c1.141,0,2.176,0.205,3.103,0.613
			c0.928,0.408,1.721,0.972,2.381,1.689c0.66,0.717,1.168,1.563,1.525,2.537C15.504,16.481,15.683,17.528,15.683,18.649z
			 M13.482,18.711c0-0.816-0.133-1.592-0.4-2.326c-0.268-0.732-0.647-1.372-1.139-1.917c-0.493-0.544-1.084-0.978-1.776-1.296
			c-0.691-0.32-1.461-0.479-2.31-0.479s-1.621,0.154-2.318,0.463c-0.697,0.309-1.289,0.729-1.776,1.266
			c-0.486,0.534-0.863,1.158-1.131,1.87c-0.266,0.712-0.4,1.478-0.4,2.294c0,0.839,0.12,1.637,0.362,2.396
			c0.24,0.76,0.597,1.428,1.068,2.002c0.471,0.578,1.053,1.035,1.744,1.375c0.692,0.34,1.488,0.512,2.389,0.512
			c0.859,0,1.64-0.17,2.342-0.512c0.702-0.34,1.298-0.793,1.792-1.358c0.492-0.565,0.874-1.22,1.147-1.964
			C13.346,20.294,13.482,19.518,13.482,18.711z"/>
		<path fill="#231F20" d="M36.337,18.774c0,1.144-0.2,2.209-0.597,3.198c-0.399,0.99-0.959,1.849-1.682,2.577
			c-0.723,0.728-1.589,1.303-2.601,1.721c-1.011,0.418-2.128,0.629-3.355,0.629c-1.226,0-2.335-0.209-3.331-0.629
			c-0.996-0.418-1.847-0.992-2.554-1.721s-1.252-1.587-1.634-2.577c-0.382-0.989-0.574-2.055-0.574-3.198
			c0-1.151,0.199-2.221,0.598-3.205c0.398-0.984,0.955-1.842,1.673-2.569c0.718-0.728,1.582-1.3,2.593-1.714
			c1.011-0.413,2.129-0.62,3.355-0.62c1.235,0,2.354,0.209,3.355,0.629c1,0.419,1.851,0.995,2.553,1.729
			c0.702,0.732,1.244,1.592,1.626,2.576C36.146,16.584,36.337,17.643,36.337,18.774z M34.074,18.774
			c0-0.807-0.131-1.578-0.393-2.316c-0.262-0.739-0.645-1.393-1.147-1.957c-0.503-0.566-1.116-1.02-1.839-1.36
			c-0.723-0.34-1.545-0.51-2.467-0.51c-0.912,0-1.737,0.167-2.475,0.502c-0.739,0.335-1.368,0.783-1.886,1.345
			c-0.519,0.559-0.92,1.213-1.202,1.955c-0.283,0.745-0.424,1.525-0.424,2.342s0.13,1.599,0.393,2.342
			c0.262,0.744,0.645,1.397,1.147,1.963c0.502,0.566,1.118,1.018,1.846,1.353s1.553,0.503,2.475,0.503
			c0.943,0,1.783-0.166,2.523-0.496c0.738-0.33,1.362-0.777,1.869-1.343c0.509-0.565,0.898-1.221,1.171-1.965
			C33.938,20.387,34.074,19.602,34.074,18.774z"/>
		<path fill="#231F20" d="M57.996,27.213h-0.943l-4.919-12.195l-4.887,12.195h-1.005l-6.695-16.188h2.452l4.824,11.881h0.063
			l4.888-12.273h0.801l4.903,12.273h0.094l4.762-11.881h2.452L57.996,27.213z"/>
		<path fill="#231F20" d="M70.29,19.135c0.021,0.9,0.184,1.717,0.487,2.443c0.304,0.729,0.715,1.347,1.234,1.855
			c0.519,0.508,1.124,0.901,1.815,1.178c0.691,0.277,1.43,0.416,2.216,0.416c1.162,0,2.17-0.285,3.024-0.856
			c0.854-0.571,1.564-1.337,2.13-2.302l1.964,0.519c-0.325,0.724-0.736,1.365-1.234,1.925c-0.497,0.562-1.063,1.032-1.697,1.416
			c-0.634,0.381-1.32,0.672-2.058,0.871c-0.739,0.198-1.512,0.299-2.318,0.299c-1.194,0-2.273-0.209-3.237-0.629
			c-0.964-0.418-1.789-0.992-2.476-1.721c-0.686-0.729-1.215-1.587-1.587-2.577c-0.372-0.989-0.558-2.055-0.558-3.198
			c0-1.121,0.189-2.174,0.566-3.158c0.377-0.984,0.905-1.844,1.587-2.578c0.681-0.732,1.498-1.313,2.452-1.736
			c0.953-0.425,2.005-0.637,3.159-0.637c1.225,0,2.318,0.205,3.276,0.613c0.96,0.408,1.768,0.984,2.428,1.729
			c0.66,0.744,1.161,1.635,1.5,2.671c0.341,1.037,0.506,2.19,0.496,3.458L70.29,19.135L70.29,19.135z M80.567,15.522
			c-0.262-0.609-0.608-1.138-1.037-1.588c-0.43-0.451-0.956-0.801-1.579-1.053c-0.624-0.251-1.355-0.377-2.192-0.377
			c-0.755,0-1.446,0.127-2.075,0.384c-0.628,0.259-1.179,0.611-1.65,1.062c-0.472,0.451-0.852,0.98-1.14,1.588
			s-0.469,1.263-0.542,1.964h10.781C81.018,16.79,80.829,16.129,80.567,15.522z"/>
		<path fill="#231F20" d="M95.156,13.007c-0.293-0.063-0.592-0.095-0.896-0.095c-0.985,0-1.744,0.471-2.279,1.412
			c-0.534,0.943-0.801,2.408-0.801,4.396v7.816h-2.358v-15.51h2.358v2.121h0.062c0.367-0.838,0.857-1.455,1.469-1.854
			c0.613-0.398,1.354-0.598,2.224-0.598c0.273,0,0.535,0.031,0.786,0.095c0.252,0.063,0.498,0.142,0.739,0.235l-0.519,2.264
			C95.711,13.165,95.449,13.069,95.156,13.007z"/>
		<path fill="#231F20" d="M101.604,19.135c0.021,0.9,0.184,1.717,0.487,2.443c0.304,0.729,0.716,1.347,1.233,1.855
			c0.519,0.508,1.124,0.901,1.816,1.178c0.691,0.277,1.431,0.416,2.215,0.416c1.164,0,2.172-0.285,3.025-0.856
			c0.854-0.571,1.563-1.337,2.129-2.302l1.965,0.519c-0.324,0.724-0.736,1.365-1.233,1.925c-0.499,0.562-1.065,1.032-1.698,1.416
			c-0.634,0.381-1.319,0.672-2.06,0.871c-0.738,0.198-1.511,0.299-2.318,0.299c-1.194,0-2.273-0.209-3.236-0.629
			c-0.965-0.418-1.79-0.992-2.476-1.721c-0.685-0.729-1.215-1.587-1.587-2.577c-0.371-0.989-0.558-2.055-0.558-3.198
			c0-1.121,0.188-2.174,0.566-3.158c0.377-0.984,0.906-1.844,1.587-2.578c0.681-0.732,1.499-1.313,2.451-1.736
			c0.954-0.425,2.006-0.637,3.16-0.637c1.225,0,2.318,0.205,3.277,0.613c0.957,0.408,1.767,0.984,2.427,1.729
			c0.66,0.744,1.16,1.635,1.5,2.671c0.341,1.037,0.505,2.19,0.495,3.458L101.604,19.135L101.604,19.135z M111.88,15.522
			c-0.261-0.609-0.607-1.138-1.036-1.588c-0.43-0.451-0.957-0.801-1.579-1.053c-0.624-0.251-1.355-0.377-2.192-0.377
			c-0.754,0-1.446,0.127-2.074,0.384c-0.629,0.259-1.179,0.611-1.651,1.062c-0.471,0.451-0.852,0.98-1.139,1.588
			c-0.289,0.607-0.469,1.263-0.542,1.964h10.78C112.331,16.79,112.142,16.129,111.88,15.522z"/>
		<path fill="#231F20" d="M132.394,26.538v-2.703h-0.078c-0.284,0.471-0.628,0.896-1.031,1.273
			c-0.405,0.377-0.854,0.698-1.354,0.965c-0.498,0.268-1.025,0.473-1.581,0.613c-0.556,0.143-1.122,0.213-1.699,0.213
			c-1.155,0-2.203-0.211-3.147-0.629c-0.944-0.42-1.75-0.996-2.416-1.729s-1.183-1.598-1.549-2.594
			c-0.367-0.994-0.55-2.063-0.55-3.205c0-1.121,0.174-2.174,0.526-3.158c0.351-0.984,0.857-1.842,1.519-2.568
			c0.66-0.73,1.463-1.303,2.407-1.722s2.003-0.629,3.178-0.629c0.566,0,1.123,0.065,1.668,0.196c0.545,0.131,1.064,0.32,1.557,0.565
			c0.494,0.246,0.95,0.55,1.37,0.912c0.418,0.36,0.785,0.772,1.101,1.233h0.078V-0.052h2.357v26.588L132.394,26.538L132.394,26.538z
			 M132.52,18.585c0-0.795-0.137-1.55-0.409-2.263c-0.273-0.713-0.656-1.338-1.149-1.877c-0.493-0.541-1.092-0.967-1.794-1.281
			c-0.703-0.314-1.479-0.473-2.329-0.473s-1.618,0.149-2.306,0.448c-0.688,0.3-1.269,0.716-1.748,1.25
			c-0.476,0.534-0.843,1.169-1.101,1.901c-0.258,0.732-0.386,1.54-0.386,2.42c0,0.807,0.134,1.583,0.402,2.326
			c0.268,0.744,0.645,1.404,1.133,1.979c0.486,0.577,1.08,1.036,1.778,1.375c0.698,0.342,1.47,0.512,2.32,0.512
			c0.902,0,1.7-0.172,2.393-0.519c0.693-0.346,1.275-0.81,1.747-1.392c0.472-0.582,0.832-1.25,1.078-2.012
			C132.396,20.222,132.52,19.424,132.52,18.585z"/>
		<path fill="#231F20" d="M167.322,18.649c0,1.164-0.187,2.246-0.557,3.252c-0.374,1.006-0.892,1.879-1.558,2.617
			c-0.665,0.738-1.464,1.318-2.396,1.744c-0.933,0.424-1.964,0.637-3.095,0.637c-0.565,0-1.134-0.068-1.705-0.205
			c-0.572-0.135-1.108-0.332-1.611-0.588c-0.503-0.258-0.956-0.576-1.359-0.959c-0.403-0.383-0.73-0.82-0.981-1.313h-0.063v2.703
			h-2.359v-26.59h2.359v13.656h0.063c0.291-0.472,0.649-0.888,1.068-1.25c0.418-0.361,0.877-0.668,1.375-0.918
			c0.498-0.252,1.026-0.443,1.588-0.574c0.56-0.131,1.124-0.197,1.689-0.197c1.142,0,2.176,0.205,3.103,0.613
			c0.929,0.408,1.722,0.972,2.382,1.689c0.66,0.717,1.167,1.563,1.523,2.537C167.143,16.481,167.322,17.528,167.322,18.649z
			 M165.09,18.711c0-0.85-0.128-1.645-0.385-2.389c-0.256-0.744-0.622-1.389-1.099-1.934c-0.476-0.544-1.061-0.975-1.751-1.289
			c-0.692-0.314-1.479-0.471-2.359-0.471c-0.847,0-1.62,0.156-2.318,0.471c-0.696,0.314-1.287,0.744-1.775,1.289
			c-0.487,0.545-0.864,1.176-1.132,1.895c-0.265,0.718-0.399,1.484-0.399,2.302c0,0.839,0.12,1.642,0.361,2.403
			c0.241,0.766,0.597,1.441,1.068,2.027c0.472,0.588,1.052,1.055,1.745,1.399c0.691,0.346,1.488,0.519,2.388,0.519
			c0.86,0,1.637-0.173,2.333-0.519c0.698-0.347,1.292-0.808,1.785-1.384c0.491-0.575,0.872-1.238,1.139-1.987
			C164.955,20.296,165.09,19.518,165.09,18.711z"/>
		<path fill="#231F20" d="M176.063,35.321h-2.404l3.96-9.004l-7.402-15.291h2.593l5.988,12.775h0.063l5.42-12.775h2.5
			L176.063,35.321z"/>
	</g>
	<g>
		<path fill="#231F20" d="M632.729,114.255c0,0.463-0.158,0.854-0.479,1.17c-0.313,0.314-0.709,0.476-1.17,0.476
			c-0.453,0-0.838-0.155-1.154-0.476c-0.313-0.315-0.477-0.707-0.477-1.17c0-0.229,0.043-0.438,0.129-0.639
			c0.084-0.199,0.201-0.373,0.348-0.523c0.148-0.153,0.32-0.274,0.521-0.364s0.41-0.138,0.637-0.138c0.23,0,0.441,0.048,0.646,0.138
			c0.2,0.09,0.377,0.211,0.521,0.364c0.148,0.15,0.269,0.324,0.353,0.523C632.688,113.817,632.729,114.03,632.729,114.255z"/>
		<path fill="#231F20" d="M644.54,93.1c0,0.215-0.047,0.418-0.137,0.606c-0.091,0.193-0.209,0.361-0.357,0.512
			c-0.145,0.146-0.315,0.263-0.518,0.349c-0.195,0.086-0.404,0.127-0.619,0.127c-0.229,0-0.441-0.041-0.646-0.127
			c-0.201-0.086-0.379-0.2-0.521-0.349c-0.146-0.145-0.269-0.315-0.353-0.512c-0.084-0.188-0.129-0.395-0.129-0.606
			c0-0.453,0.158-0.832,0.48-1.142c0.313-0.305,0.709-0.457,1.17-0.457c0.215,0,0.424,0.039,0.619,0.117
			c0.192,0.08,0.368,0.193,0.518,0.34c0.148,0.148,0.269,0.316,0.357,0.513C644.493,92.666,644.54,92.875,644.54,93.1z
			 M641.62,115.477V98.731h2.545v16.746H641.62z"/>
		<path fill="#231F20" d="M662.36,115.477v-10.246c0-0.713-0.062-1.362-0.168-1.953c-0.115-0.588-0.313-1.094-0.587-1.519
			c-0.278-0.426-0.659-0.752-1.146-0.983c-0.486-0.229-1.104-0.349-1.85-0.349c-0.728,0-1.361,0.15-1.918,0.46
			c-0.556,0.305-1.021,0.729-1.398,1.271s-0.666,1.186-0.865,1.916c-0.194,0.736-0.297,1.527-0.297,2.377v9.025h-2.545V98.731h2.545
			v2.394h0.068c0.52-0.881,1.213-1.564,2.078-2.054c0.864-0.489,1.895-0.729,3.096-0.729c1.764,0,3.129,0.533,4.09,1.607
			c0.959,1.074,1.441,2.646,1.441,4.717v10.812H662.36L662.36,115.477z"/>
		<path fill="#231F20" d="M674.747,100.99v14.487h-2.545V100.99h-1.916v-2.259h1.916v-6.603c0-1.006,0.125-1.875,0.375-2.604
			c0.246-0.73,0.592-1.33,1.033-1.799c0.438-0.471,0.973-0.814,1.588-1.035c0.617-0.221,1.287-0.33,2.01-0.33
			c0.236,0,0.527,0.025,0.873,0.076s0.631,0.127,0.857,0.229v2.291c-0.451-0.205-0.945-0.307-1.486-0.307
			c-0.428,0-0.812,0.064-1.148,0.195c-0.34,0.131-0.625,0.348-0.854,0.65c-0.232,0.309-0.404,0.711-0.523,1.213
			c-0.117,0.506-0.178,1.137-0.178,1.895v6.125h4.191v2.258L674.747,100.99L674.747,100.99z"/>
		<path fill="#231F20" d="M699.933,107.096c0,1.229-0.217,2.383-0.646,3.452c-0.43,1.066-1.035,1.994-1.816,2.779
			c-0.774,0.787-1.715,1.406-2.805,1.857c-1.094,0.453-2.301,0.68-3.625,0.68c-1.322,0-2.52-0.227-3.598-0.68
			c-1.074-0.451-1.99-1.07-2.754-1.857c-0.769-0.785-1.355-1.713-1.769-2.779c-0.414-1.069-0.619-2.223-0.619-3.452
			c0-1.244,0.217-2.397,0.646-3.462c0.429-1.063,1.032-1.985,1.807-2.772c0.774-0.786,1.707-1.401,2.801-1.85
			c1.091-0.447,2.297-0.671,3.621-0.671c1.334,0,2.541,0.228,3.623,0.679c1.078,0.453,1.998,1.076,2.758,1.867
			c0.756,0.791,1.343,1.719,1.756,2.778C699.726,104.733,699.933,105.875,699.933,107.096z M697.489,107.096
			c0-0.871-0.144-1.705-0.422-2.503c-0.283-0.801-0.695-1.502-1.24-2.112c-0.541-0.608-1.205-1.103-1.984-1.467
			c-0.776-0.367-1.67-0.554-2.664-0.554c-0.979,0-1.875,0.183-2.67,0.543c-0.799,0.361-1.479,0.849-2.037,1.449
			c-0.561,0.605-0.991,1.313-1.297,2.113c-0.307,0.803-0.461,1.645-0.461,2.527c0,0.881,0.146,1.725,0.426,2.523
			c0.281,0.807,0.695,1.512,1.24,2.12c0.541,0.611,1.207,1.099,1.99,1.459c0.787,0.363,1.68,0.544,2.674,0.544
			c1.021,0,1.926-0.179,2.726-0.533c0.799-0.354,1.471-0.842,2.02-1.447c0.549-0.611,0.971-1.318,1.266-2.121
			C697.341,108.837,697.489,107.992,697.489,107.096z"/>
	</g>
</g>
<g>
	<g>
		<polygon id="SVGID_15_" fill="#231F20" points="160.072,703.423 156.725,703.423 156.725,744.347 160.072,744.347 
			160.072,706.769 187.608,706.769 187.608,703.423 		"/>
	</g>
	<g>
		<g>
			<g>
				<g>
					<defs>
						<polygon id="SVGID_2_" points="165.218,701.142 161.966,700.357 152.348,740.126 155.598,740.914 164.432,704.394 
							191.192,710.869 191.979,707.617 						"/>
					</defs>
					<clipPath id="SVGID_4_">
						<use xlink:href="#SVGID_2_"  overflow="visible"/>
					</clipPath>
					
						<rect x="150.828" y="707.248" transform="matrix(0.0593 -0.9982 0.9982 0.0593 -560.6423 852.8093)" clip-path="url(#SVGID_4_)" fill="#231F20" width="42.677" height="33.249"/>
				</g>
			</g>
		</g>
	</g>
</g>
<g>
	<g>
		<polygon id="SVGID_17_" fill="#231F20" points="256.695,683.511 256.695,703.423 246.653,703.423 246.653,706.769 
			256.695,706.769 256.695,744.347 260.043,744.347 287.61,744.347 287.61,741 260.043,741 260.043,706.769 277.575,706.769 
			277.575,703.423 260.043,703.423 260.043,683.511 		"/>
	</g>
	<g>
		<g>
			<g>
				<g>
					<defs>
						<polygon id="SVGID_6_" points="264.142,681.925 259.459,701.275 249.701,698.916 248.917,702.166 258.675,704.529 
							249.84,741.044 253.094,741.833 279.885,748.312 280.671,745.06 253.882,738.58 261.929,705.314 278.966,709.435 
							279.754,706.185 262.713,702.062 267.396,682.712 						"/>
					</defs>
					<clipPath id="SVGID_8_">
						<use xlink:href="#SVGID_6_"  overflow="visible"/>
					</clipPath>
					
						<rect x="235.56" y="691.695" transform="matrix(0.0593 -0.9982 0.9982 0.0593 -461.3892 938.2596)" clip-path="url(#SVGID_8_)" fill="#231F20" width="63.148" height="44.483"/>
				</g>
			</g>
		</g>
	</g>
</g>
<g>
	<g>
		<polygon id="SVGID_19_" fill="#231F20" points="332.247,703.423 294.669,703.423 294.669,706.769 332.247,706.769 332.247,741 
			298.016,741 298.016,716.773 325.583,716.773 325.583,713.423 298.016,713.423 294.669,713.423 294.669,744.347 298.016,744.347 
			332.247,744.347 335.593,744.347 335.593,703.423 		"/>
	</g>
	<g>
		<g>
			<g>
				<g>
					<defs>
						<polygon id="SVGID_10_" points="336.592,708.068 300.072,699.234 299.287,702.488 335.803,711.32 327.757,744.585 
							294.493,736.539 300.188,712.994 326.977,719.476 327.765,716.22 300.974,709.74 297.72,708.953 290.453,739.003 
							293.705,739.792 326.971,747.839 330.225,748.625 339.842,708.855 						"/>
					</defs>
					<clipPath id="SVGID_12_">
						<use xlink:href="#SVGID_10_"  overflow="visible"/>
					</clipPath>
					
						<rect x="293.51" y="702.293" transform="matrix(0.0593 -0.9982 0.9982 0.0593 -426.1971 995.5869)" clip-path="url(#SVGID_12_)" fill="#231F20" width="43.273" height="43.27"/>
				</g>
			</g>
		</g>
	</g>
</g>
<g>
	<g>
		<polygon id="SVGID_21_" fill="#231F20" points="349.56,683.511 349.56,744.347 352.907,744.347 387.138,744.347 390.487,744.347 
			390.487,744.337 390.487,703.423 387.138,703.423 359.563,703.423 359.563,706.769 387.138,706.769 387.138,741 352.907,741 
			352.907,683.511 		"/>
	</g>
	<g>
		<g>
			<g>
				<g>
					<defs>
						<polygon id="SVGID_14_" points="357.282,679.546 342.98,738.666 346.232,739.453 379.5,747.5 382.754,748.287 
							382.757,748.277 392.377,708.519 389.119,707.732 362.323,701.248 361.535,704.5 388.333,710.982 380.286,744.248 
							347.019,736.199 360.537,680.333 						"/>
					</defs>
					<clipPath id="SVGID_16_">
						<use xlink:href="#SVGID_14_"  overflow="visible"/>
					</clipPath>
					
						<rect x="338.445" y="691.688" transform="matrix(0.0593 -0.9982 0.9982 0.0593 -364.583 1040.9514)" clip-path="url(#SVGID_16_)" fill="#231F20" width="63.144" height="44.457"/>
				</g>
			</g>
		</g>
	</g>
</g>
<g>
	<g>
		<polygon id="SVGID_23_" fill="#231F20" points="437.855,703.423 434.507,703.423 434.507,744.347 437.855,744.347 
			475.408,744.347 475.408,741 437.855,741 437.855,706.769 472.063,706.769 472.063,713.482 444.457,713.482 444.457,716.828 
			472.063,716.828 475.408,716.828 475.408,706.769 475.408,703.423 		"/>
	</g>
</g>
<g>
	<g>
		<polygon id="SVGID_25_" fill="#231F20" points="404.406,683.511 404.406,683.511 404.406,744.347 407.755,744.347 
			425.332,744.347 425.332,741 407.755,741 407.755,683.511 		"/>
	</g>
</g>
<g>
	<g>
		<path id="SVGID_27_" fill="#231F20" d="M208.598,730.24l2.092-14.891l14.887,2.094l-2.092,14.889L208.598,730.24z M196.63,703.384
			V744.3h0.009h40.904v-0.014v-40.902h-0.011H196.63L196.63,703.384z"/>
	</g>
	<g>
		<g>
			<g>
				<g>
					<defs>
						<path id="SVGID_18_" d="M207.33,728.039l5.531-13.975l13.975,5.533l-5.533,13.975L207.33,728.039z M202.012,699.13
							l-9.619,39.76l0.008,0.002l39.75,9.617l0.005-0.014l9.616-39.748l-0.012-0.002L202.012,699.13z"/>
					</defs>
					<clipPath id="SVGID_20_">
						<use xlink:href="#SVGID_18_"  overflow="visible"/>
					</clipPath>
					
						<rect x="195.45" y="702.189" transform="matrix(0.0593 -0.9982 0.9982 0.0593 -518.3381 897.5959)" clip-path="url(#SVGID_20_)" fill="#231F20" width="43.262" height="43.262"/>
				</g>
			</g>
		</g>
	</g>
</g>
<g>
	<path fill="#231F20" d="M163.614,692.025c0,0.527-0.085,1.021-0.254,1.479c-0.169,0.459-0.405,0.855-0.708,1.191
		c-0.303,0.336-0.667,0.602-1.091,0.795c-0.425,0.189-0.895,0.289-1.41,0.289c-0.258,0-0.514-0.029-0.769-0.092
		c-0.255-0.061-0.496-0.145-0.723-0.258c-0.226-0.109-0.433-0.25-0.619-0.412c-0.186-0.158-0.341-0.346-0.465-0.551h-0.028v5.146
		h-1.073v-11.064h1.073v1.098h0.028c0.144-0.199,0.311-0.381,0.501-0.535c0.19-0.158,0.399-0.289,0.626-0.396
		c0.226-0.104,0.465-0.188,0.715-0.244c0.25-0.055,0.504-0.082,0.762-0.082c0.52,0,0.991,0.098,1.413,0.279
		c0.422,0.186,0.784,0.441,1.084,0.771c0.301,0.324,0.532,0.711,0.694,1.152C163.533,691.039,163.614,691.515,163.614,692.025z
		 M162.612,692.054c0-0.373-0.061-0.725-0.182-1.059c-0.122-0.334-0.294-0.625-0.519-0.873c-0.225-0.248-0.494-0.445-0.809-0.59
		c-0.315-0.146-0.666-0.223-1.052-0.223c-0.387,0-0.738,0.07-1.056,0.215c-0.318,0.141-0.586,0.328-0.809,0.572
		c-0.221,0.242-0.393,0.527-0.515,0.855c-0.121,0.324-0.182,0.672-0.182,1.045c0,0.381,0.055,0.744,0.165,1.09
		c0.109,0.346,0.272,0.65,0.486,0.912c0.215,0.264,0.479,0.471,0.794,0.627c0.315,0.154,0.678,0.232,1.088,0.232
		c0.391,0,0.747-0.078,1.066-0.232c0.319-0.156,0.591-0.361,0.815-0.619s0.398-0.557,0.522-0.895
		C162.55,692.775,162.612,692.421,162.612,692.054z"/>
	<path fill="#231F20" d="M173.018,692.083c0,0.52-0.091,1.004-0.272,1.455c-0.182,0.451-0.437,0.842-0.766,1.174
		c-0.329,0.33-0.724,0.592-1.184,0.783c-0.46,0.188-0.969,0.287-1.527,0.287s-1.063-0.102-1.517-0.287
		c-0.454-0.191-0.841-0.453-1.163-0.783c-0.322-0.332-0.57-0.723-0.744-1.174c-0.174-0.451-0.261-0.939-0.261-1.455
		c0-0.525,0.091-1.012,0.272-1.461c0.181-0.447,0.435-0.838,0.762-1.17c0.327-0.33,0.72-0.592,1.181-0.779
		c0.46-0.188,0.969-0.283,1.528-0.283c0.562,0,1.072,0.1,1.527,0.287c0.455,0.191,0.843,0.453,1.163,0.787
		c0.319,0.334,0.566,0.727,0.74,1.174C172.931,691.085,173.018,691.568,173.018,692.083z M171.987,692.083
		c0-0.367-0.06-0.721-0.179-1.057c-0.12-0.336-0.293-0.637-0.522-0.895s-0.508-0.465-0.837-0.619
		c-0.33-0.15-0.704-0.229-1.123-0.229c-0.416,0-0.791,0.076-1.127,0.229c-0.337,0.154-0.623,0.357-0.859,0.613
		c-0.236,0.254-0.419,0.551-0.547,0.891c-0.129,0.338-0.193,0.693-0.193,1.066c0,0.371,0.059,0.727,0.179,1.063
		c0.119,0.342,0.293,0.639,0.522,0.896c0.229,0.256,0.509,0.463,0.84,0.615c0.331,0.148,0.707,0.229,1.127,0.229
		c0.429,0,0.812-0.074,1.148-0.225c0.336-0.152,0.62-0.355,0.851-0.611c0.232-0.258,0.409-0.557,0.533-0.895
		C171.925,692.818,171.987,692.458,171.987,692.083z"/>
	<path fill="#231F20" d="M182.879,695.925h-0.429l-2.24-5.553l-2.225,5.553h-0.458l-3.048-7.371h1.116l2.196,5.41h0.029l2.226-5.588
		h0.365l2.232,5.588h0.042l2.168-5.41h1.117L182.879,695.925z"/>
	<path fill="#231F20" d="M188.477,692.248c0.01,0.41,0.084,0.781,0.222,1.111c0.138,0.332,0.326,0.611,0.562,0.846
		c0.236,0.229,0.512,0.41,0.827,0.535c0.314,0.127,0.651,0.188,1.009,0.188c0.529,0,0.988-0.129,1.377-0.391
		c0.389-0.26,0.712-0.607,0.97-1.047l0.894,0.232c-0.148,0.33-0.335,0.621-0.562,0.881c-0.226,0.254-0.484,0.469-0.772,0.643
		c-0.289,0.174-0.602,0.307-0.937,0.396c-0.337,0.094-0.688,0.139-1.056,0.139c-0.544,0-1.035-0.1-1.474-0.285
		c-0.439-0.191-0.814-0.453-1.127-0.785c-0.312-0.33-0.553-0.723-0.723-1.172c-0.169-0.451-0.254-0.939-0.254-1.457
		c0-0.51,0.086-0.988,0.258-1.439c0.172-0.443,0.412-0.84,0.723-1.174c0.31-0.334,0.682-0.598,1.116-0.791
		c0.434-0.188,0.913-0.289,1.438-0.289c0.558,0,1.056,0.098,1.492,0.279c0.437,0.188,0.805,0.447,1.105,0.787
		c0.301,0.338,0.528,0.744,0.683,1.217c0.155,0.471,0.23,0.996,0.226,1.574h-5.997V692.248z M193.156,690.601
		c-0.119-0.273-0.277-0.518-0.472-0.723c-0.196-0.205-0.436-0.365-0.719-0.479c-0.284-0.115-0.617-0.176-0.999-0.176
		c-0.344,0-0.658,0.063-0.944,0.178c-0.286,0.113-0.537,0.275-0.751,0.48s-0.388,0.445-0.519,0.727
		c-0.131,0.271-0.214,0.57-0.247,0.895h4.909C193.361,691.179,193.275,690.878,193.156,690.601z"/>
	<path fill="#231F20" d="M199.798,689.457c-0.134-0.029-0.27-0.043-0.408-0.043c-0.449,0-0.794,0.215-1.038,0.643
		c-0.243,0.436-0.365,1.102-0.365,2.002v3.564h-1.073v-7.064h1.073v0.967h0.028c0.167-0.381,0.39-0.66,0.669-0.844
		c0.279-0.182,0.617-0.27,1.012-0.27c0.125,0,0.244,0.016,0.358,0.043c0.115,0.023,0.227,0.063,0.336,0.104l-0.236,1.031
		C200.051,689.529,199.932,689.486,199.798,689.457z"/>
	<path fill="#231F20" d="M202.734,692.248c0.009,0.41,0.083,0.781,0.222,1.111c0.139,0.332,0.326,0.611,0.562,0.846
		c0.236,0.229,0.512,0.41,0.827,0.535c0.315,0.127,0.651,0.188,1.009,0.188c0.53,0,0.989-0.129,1.377-0.391
		c0.389-0.26,0.712-0.607,0.969-1.047l0.895,0.232c-0.147,0.33-0.335,0.621-0.561,0.881c-0.227,0.254-0.485,0.469-0.773,0.643
		c-0.289,0.174-0.601,0.307-0.938,0.396c-0.336,0.094-0.688,0.139-1.055,0.139c-0.544,0-1.035-0.1-1.473-0.285
		c-0.439-0.191-0.815-0.453-1.127-0.785c-0.312-0.33-0.553-0.723-0.723-1.172c-0.169-0.451-0.254-0.939-0.254-1.457
		c0-0.51,0.085-0.988,0.257-1.439c0.172-0.443,0.413-0.84,0.723-1.174s0.682-0.598,1.116-0.791c0.434-0.188,0.913-0.289,1.438-0.289
		c0.558,0,1.055,0.098,1.492,0.279c0.435,0.188,0.804,0.447,1.105,0.787c0.3,0.338,0.528,0.744,0.683,1.217
		c0.155,0.471,0.23,0.996,0.225,1.574h-5.996V692.248z M207.413,690.601c-0.119-0.273-0.276-0.518-0.472-0.723
		c-0.196-0.205-0.436-0.365-0.719-0.479c-0.284-0.115-0.617-0.176-0.998-0.176c-0.343,0-0.658,0.063-0.944,0.178
		c-0.287,0.113-0.537,0.275-0.752,0.48c-0.214,0.205-0.388,0.445-0.519,0.727c-0.131,0.271-0.213,0.57-0.247,0.895h4.908
		C207.618,691.179,207.532,690.878,207.413,690.601z"/>
	<path fill="#231F20" d="M216.753,695.617v-1.23h-0.036c-0.129,0.215-0.286,0.408-0.469,0.58c-0.185,0.172-0.389,0.318-0.616,0.439
		s-0.467,0.215-0.72,0.279c-0.253,0.063-0.511,0.098-0.773,0.098c-0.525,0-1.003-0.098-1.433-0.287
		c-0.43-0.191-0.796-0.453-1.1-0.787c-0.304-0.334-0.539-0.727-0.706-1.18s-0.25-0.941-0.25-1.461c0-0.51,0.08-0.988,0.24-1.438
		c0.16-0.449,0.391-0.84,0.691-1.17c0.3-0.332,0.666-0.594,1.096-0.783c0.43-0.189,0.912-0.287,1.447-0.287
		c0.258,0,0.511,0.029,0.76,0.092c0.248,0.061,0.485,0.145,0.709,0.258c0.225,0.111,0.433,0.25,0.624,0.416
		c0.19,0.164,0.357,0.352,0.501,0.561h0.036v-6.203h1.073v12.105h-1.074V695.617z M216.81,691.998c0-0.363-0.063-0.707-0.186-1.031
		c-0.125-0.324-0.299-0.604-0.523-0.854c-0.224-0.248-0.497-0.439-0.816-0.582c-0.32-0.146-0.674-0.215-1.061-0.215
		c-0.387,0-0.737,0.064-1.05,0.199c-0.313,0.141-0.578,0.326-0.796,0.57c-0.217,0.242-0.384,0.531-0.501,0.865
		s-0.176,0.701-0.176,1.102c0,0.367,0.061,0.725,0.183,1.063c0.122,0.338,0.293,0.639,0.516,0.896
		c0.221,0.268,0.492,0.477,0.81,0.627c0.318,0.154,0.669,0.232,1.056,0.232c0.411,0,0.774-0.078,1.089-0.236
		c0.315-0.156,0.581-0.369,0.795-0.633c0.215-0.266,0.379-0.57,0.491-0.916C216.754,692.742,216.81,692.378,216.81,691.998z"/>
	<path fill="#231F20" d="M232.656,692.025c0,0.527-0.085,1.021-0.253,1.479c-0.17,0.459-0.406,0.855-0.709,1.191
		c-0.303,0.336-0.667,0.602-1.091,0.795c-0.425,0.189-0.894,0.289-1.409,0.289c-0.257,0-0.517-0.031-0.776-0.096
		c-0.26-0.063-0.504-0.148-0.734-0.27c-0.229-0.115-0.435-0.262-0.619-0.438s-0.333-0.373-0.447-0.6h-0.029v1.23h-1.074v-12.105
		h1.074v6.217h0.029c0.132-0.215,0.295-0.4,0.486-0.564c0.19-0.164,0.399-0.309,0.626-0.418c0.226-0.115,0.467-0.201,0.723-0.266
		c0.255-0.061,0.512-0.09,0.77-0.09c0.52,0,0.99,0.094,1.413,0.279c0.423,0.184,0.784,0.439,1.084,0.77
		c0.3,0.326,0.531,0.711,0.693,1.154C232.574,691.039,232.656,691.515,232.656,692.025z M231.639,692.054
		c0-0.387-0.058-0.748-0.175-1.088c-0.116-0.338-0.283-0.633-0.5-0.879c-0.217-0.248-0.483-0.445-0.797-0.588
		c-0.315-0.146-0.673-0.215-1.074-0.215c-0.386,0-0.738,0.068-1.056,0.215c-0.317,0.143-0.586,0.34-0.808,0.588
		c-0.222,0.246-0.394,0.535-0.516,0.861c-0.121,0.326-0.182,0.676-0.182,1.049c0,0.381,0.054,0.746,0.165,1.094
		c0.109,0.35,0.271,0.656,0.486,0.922c0.214,0.271,0.479,0.48,0.794,0.641c0.315,0.156,0.678,0.232,1.087,0.232
		c0.392,0,0.746-0.078,1.063-0.232c0.318-0.156,0.588-0.367,0.813-0.631c0.224-0.264,0.396-0.564,0.519-0.902
		C231.578,692.775,231.639,692.421,231.639,692.054z"/>
	<path fill="#231F20" d="M236.636,699.617h-1.095l1.803-4.102l-3.37-6.963h1.181l2.727,5.816h0.029l2.468-5.816h1.138
		L236.636,699.617z"/>
</g>
</svg>
