<?xml version="1.0" encoding="utf-8"?>
<!-- Generator: Adobe Illustrator 15.1.0, SVG Export Plug-In . SVG Version: 6.00 Build 0)  -->
<!DOCTYPE svg PUBLIC "-//W3C//DTD SVG 1.1//EN" "http://www.w3.org/Graphics/SVG/1.1/DTD/svg11.dtd">
<svg version="1.1" id="Layer_1" xmlns="http://www.w3.org/2000/svg" xmlns:xlink="http://www.w3.org/1999/xlink" x="0px" y="0px"
	 width="699.932px" height="133.511px" viewBox="37.921 213.213 699.932 133.511"
	 enable-background="new 37.921 213.213 699.932 133.511" xml:space="preserve">
<g>
	<g>
		<polygon id="SVGID_1_" fill="#231F20" points="45.272,256.946 37.921,256.946 37.921,346.828 45.272,346.828 45.272,264.296 
			105.751,264.296 105.751,256.946 		"/>
	</g>
</g>
<g>
	<g>
		<polygon id="SVGID_3_" fill="#231F20" points="257.487,213.213 257.487,256.946 235.432,256.946 235.432,264.296 257.487,264.296 
			257.487,346.828 264.841,346.828 325.389,346.828 325.389,339.478 264.841,339.478 264.841,264.296 303.348,264.296 
			303.348,256.946 264.841,256.946 264.841,213.213 		"/>
	</g>
</g>
<g>
	<g>
		<polygon id="SVGID_5_" fill="#231F20" points="423.425,256.946 340.892,256.946 340.892,264.296 423.425,264.296 423.425,339.478 
			348.242,339.478 348.242,286.267 408.79,286.267 408.79,278.913 348.242,278.913 340.892,278.913 340.892,346.828 
			348.242,346.828 423.425,346.828 430.773,346.828 430.773,256.946 		"/>
	</g>
	<g>
		<g>
			<defs>
				<polygon id="SVGID_2_" points="423.425,256.946 340.892,256.946 340.892,264.296 423.425,264.296 423.425,339.478 
					348.242,339.478 348.242,286.267 408.79,286.267 408.79,278.913 348.242,278.913 340.892,278.913 340.892,346.828 
					348.242,346.828 423.425,346.828 430.773,346.828 430.773,256.946 				"/>
			</defs>
			<clipPath id="SVGID_4_">
				<use xlink:href="#SVGID_2_"  overflow="visible"/>
			</clipPath>
			<polygon clip-path="url(#SVGID_4_)" fill="#231F20" points="341.204,251.623 335.572,346.515 430.458,352.15 436.095,257.262 			
				"/>
		</g>
	</g>
</g>
<g>
	<g>
		<polygon id="SVGID_7_" fill="#231F20" points="461.451,213.213 461.451,346.828 468.8,346.828 543.984,346.828 551.339,346.828 
			551.339,346.806 551.339,256.946 543.984,256.946 483.421,256.946 483.421,264.296 543.984,264.296 543.984,339.478 
			468.8,339.478 468.8,213.213 		"/>
	</g>
</g>
<g>
	<g>
		<polygon id="SVGID_9_" fill="#231F20" points="655.375,256.946 648.021,256.946 648.021,346.828 655.375,346.828 737.853,346.828 
			737.853,339.478 655.375,339.478 655.375,264.296 730.507,264.296 730.507,279.037 669.873,279.037 669.873,286.388 
			730.507,286.388 737.853,286.388 737.853,264.296 737.853,256.946 		"/>
	</g>
</g>
<g>
	<g>
		<polygon id="SVGID_11_" fill="#231F20" points="581.912,213.213 581.912,213.213 581.912,346.828 589.265,346.828 
			627.873,346.828 627.873,339.478 589.265,339.478 589.265,213.213 		"/>
	</g>
</g>
<g>
	<g>
		<path id="SVGID_13_" fill="#231F20" d="M151.85,315.843l4.595-32.698l32.697,4.595l-4.595,32.696L151.85,315.843z
			 M125.566,256.861v89.863h0.021h89.839v-0.026v-89.836h-0.025H125.566z"/>
	</g>
	<g>
		<g>
			<defs>
				<path id="SVGID_6_" d="M151.85,315.843l4.595-32.698l32.697,4.595l-4.595,32.696L151.85,315.843z M125.566,256.861v89.863h0.021
					h89.839v-0.026v-89.836h-0.025H125.566z"/>
			</defs>
			<clipPath id="SVGID_8_">
				<use xlink:href="#SVGID_6_"  overflow="visible"/>
			</clipPath>
			<polygon clip-path="url(#SVGID_8_)" fill="#231F20" points="125.882,251.545 120.243,346.404 215.107,352.041 220.746,257.177 
							"/>
		</g>
	</g>
</g>
<rect x="-264.728" y="158.509" fill="none" width="189.833" height="47.946"/>
<text transform="matrix(1 0 0 1 -264.7275 184.1143)" font-family="'LuzSans-Book'" font-size="31">powered by</text>
<g>
	<path fill="#231F20" d="M53.604,231.913c0,1.164-0.186,2.247-0.558,3.253c-0.372,1.005-0.89,1.878-1.556,2.616
		c-0.666,0.739-1.464,1.319-2.396,1.745c-0.933,0.424-1.965,0.637-3.096,0.637c-0.566,0-1.129-0.066-1.689-0.197
		c-0.56-0.131-1.089-0.319-1.588-0.566c-0.497-0.246-0.95-0.547-1.359-0.903c-0.408-0.355-0.75-0.759-1.021-1.21h-0.063v11.299
		h-2.357v-24.295h2.357v2.404h0.063c0.314-0.44,0.681-0.833,1.1-1.178c0.418-0.346,0.877-0.637,1.375-0.873
		c0.497-0.235,1.021-0.414,1.571-0.535c0.551-0.121,1.108-0.181,1.674-0.181c1.141,0,2.176,0.205,3.103,0.613
		c0.928,0.409,1.721,0.972,2.381,1.69c0.66,0.717,1.168,1.563,1.525,2.537C53.426,229.745,53.604,230.792,53.604,231.913z
		 M51.404,231.976c0-0.817-0.133-1.592-0.4-2.326c-0.268-0.733-0.647-1.372-1.139-1.917c-0.493-0.544-1.084-0.977-1.776-1.296
		c-0.691-0.32-1.461-0.479-2.31-0.479s-1.621,0.155-2.318,0.464c-0.697,0.308-1.289,0.73-1.776,1.265
		c-0.486,0.534-0.863,1.158-1.131,1.87c-0.266,0.712-0.4,1.477-0.4,2.294c0,0.839,0.12,1.637,0.362,2.396
		c0.24,0.76,0.597,1.428,1.068,2.003c0.471,0.577,1.053,1.035,1.744,1.375c0.692,0.34,1.488,0.511,2.389,0.511
		c0.859,0,1.64-0.17,2.342-0.511c0.702-0.34,1.298-0.793,1.792-1.359c0.492-0.565,0.874-1.22,1.147-1.964
		C51.267,233.559,51.404,232.783,51.404,231.976z"/>
	<path fill="#231F20" d="M74.259,232.039c0,1.143-0.2,2.208-0.597,3.198c-0.399,0.99-0.959,1.848-1.682,2.577
		c-0.723,0.729-1.589,1.303-2.601,1.721c-1.011,0.418-2.128,0.629-3.355,0.629c-1.226,0-2.335-0.21-3.331-0.629
		s-1.847-0.993-2.554-1.721s-1.252-1.587-1.634-2.577c-0.382-0.99-0.574-2.055-0.574-3.198c0-1.152,0.199-2.221,0.598-3.206
		c0.398-0.984,0.955-1.841,1.673-2.569c0.718-0.728,1.582-1.299,2.593-1.713c1.011-0.414,2.129-0.621,3.355-0.621
		c1.235,0,2.354,0.209,3.355,0.629c1,0.419,1.851,0.995,2.553,1.729c0.702,0.733,1.244,1.592,1.626,2.577
		C74.067,229.849,74.259,230.908,74.259,232.039z M71.995,232.039c0-0.807-0.131-1.579-0.393-2.317
		c-0.262-0.739-0.645-1.392-1.147-1.957c-0.503-0.566-1.116-1.019-1.839-1.36c-0.723-0.34-1.545-0.51-2.467-0.51
		c-0.912,0-1.737,0.167-2.475,0.502c-0.739,0.335-1.368,0.783-1.886,1.344c-0.519,0.56-0.92,1.213-1.202,1.956
		c-0.283,0.745-0.424,1.525-0.424,2.342s0.13,1.598,0.393,2.341c0.262,0.744,0.645,1.398,1.147,1.963
		c0.502,0.566,1.118,1.018,1.846,1.353c0.728,0.335,1.553,0.502,2.475,0.502c0.943,0,1.783-0.165,2.523-0.495
		c0.738-0.33,1.362-0.777,1.869-1.343c0.509-0.566,0.898-1.221,1.171-1.965C71.859,233.652,71.995,232.867,71.995,232.039z"/>
	<path fill="#231F20" d="M95.917,240.478h-0.943l-4.919-12.195l-4.887,12.195h-1.005l-6.695-16.187h2.452l4.824,11.88h0.063
		l4.888-12.273h0.801l4.903,12.273h0.094l4.762-11.88h2.452L95.917,240.478z"/>
	<path fill="#231F20" d="M108.211,232.4c0.021,0.901,0.184,1.716,0.487,2.444c0.304,0.728,0.715,1.346,1.234,1.854
		c0.519,0.508,1.124,0.902,1.815,1.178c0.691,0.278,1.43,0.417,2.216,0.417c1.162,0,2.17-0.286,3.024-0.857s1.564-1.337,2.13-2.302
		l1.964,0.519c-0.325,0.723-0.736,1.365-1.234,1.925c-0.497,0.561-1.063,1.032-1.697,1.415c-0.634,0.382-1.32,0.673-2.058,0.872
		c-0.739,0.198-1.512,0.299-2.318,0.299c-1.194,0-2.273-0.21-3.237-0.629c-0.964-0.418-1.789-0.993-2.476-1.721
		c-0.686-0.729-1.215-1.587-1.587-2.577c-0.372-0.99-0.558-2.055-0.558-3.198c0-1.121,0.189-2.174,0.566-3.159
		c0.377-0.984,0.905-1.844,1.587-2.578c0.681-0.732,1.498-1.312,2.452-1.736c0.953-0.425,2.005-0.637,3.159-0.637
		c1.225,0,2.318,0.205,3.276,0.613c0.96,0.409,1.768,0.985,2.428,1.729s1.161,1.634,1.5,2.671c0.341,1.037,0.506,2.19,0.496,3.458
		H108.211L108.211,232.4z M118.489,228.786c-0.262-0.608-0.608-1.137-1.037-1.587c-0.43-0.451-0.956-0.801-1.579-1.053
		c-0.624-0.251-1.355-0.377-2.192-0.377c-0.755,0-1.446,0.127-2.075,0.384c-0.628,0.258-1.179,0.611-1.65,1.062
		c-0.472,0.45-0.852,0.98-1.14,1.587c-0.288,0.607-0.469,1.263-0.542,1.964h10.781C118.939,230.054,118.75,229.394,118.489,228.786z
		"/>
	<path fill="#231F20" d="M133.077,226.272c-0.293-0.063-0.592-0.095-0.896-0.095c-0.985,0-1.744,0.471-2.279,1.413
		c-0.534,0.942-0.801,2.407-0.801,4.396v7.816h-2.358v-15.51h2.358v2.122h0.062c0.367-0.838,0.857-1.456,1.469-1.854
		c0.613-0.398,1.354-0.597,2.224-0.597c0.273,0,0.535,0.031,0.786,0.094c0.252,0.063,0.498,0.142,0.739,0.236l-0.519,2.263
		C133.633,226.429,133.37,226.334,133.077,226.272z"/>
	<path fill="#231F20" d="M139.525,232.4c0.021,0.901,0.184,1.716,0.487,2.444c0.304,0.728,0.716,1.346,1.233,1.854
		c0.519,0.508,1.124,0.902,1.816,1.178c0.691,0.278,1.431,0.417,2.215,0.417c1.164,0,2.172-0.286,3.025-0.857
		c0.854-0.571,1.563-1.337,2.129-2.302l1.965,0.519c-0.324,0.723-0.736,1.365-1.233,1.925c-0.499,0.561-1.065,1.032-1.698,1.415
		c-0.634,0.382-1.319,0.673-2.06,0.872c-0.738,0.198-1.511,0.299-2.318,0.299c-1.194,0-2.273-0.21-3.236-0.629
		c-0.965-0.418-1.79-0.993-2.476-1.721c-0.685-0.729-1.215-1.587-1.587-2.577c-0.371-0.99-0.558-2.055-0.558-3.198
		c0-1.121,0.188-2.174,0.566-3.159c0.377-0.984,0.906-1.844,1.587-2.578c0.681-0.732,1.499-1.312,2.451-1.736
		c0.954-0.425,2.006-0.637,3.16-0.637c1.225,0,2.318,0.205,3.277,0.613c0.957,0.409,1.767,0.985,2.427,1.729s1.16,1.634,1.5,2.671
		c0.341,1.037,0.505,2.19,0.495,3.458H139.525L139.525,232.4z M149.802,228.786c-0.261-0.608-0.607-1.137-1.036-1.587
		c-0.43-0.451-0.957-0.801-1.579-1.053c-0.624-0.251-1.355-0.377-2.192-0.377c-0.754,0-1.446,0.127-2.074,0.384
		c-0.629,0.258-1.179,0.611-1.651,1.062c-0.471,0.45-0.852,0.98-1.139,1.587c-0.289,0.607-0.469,1.263-0.542,1.964h10.78
		C150.252,230.054,150.063,229.394,149.802,228.786z"/>
	<path fill="#231F20" d="M170.315,239.802v-2.703h-0.078c-0.284,0.471-0.628,0.896-1.031,1.273
		c-0.405,0.377-0.854,0.699-1.354,0.966c-0.498,0.267-1.025,0.472-1.581,0.613c-0.556,0.142-1.122,0.212-1.699,0.212
		c-1.155,0-2.203-0.21-3.147-0.629c-0.944-0.419-1.75-0.995-2.416-1.728s-1.183-1.598-1.549-2.593
		c-0.367-0.995-0.55-2.064-0.55-3.206c0-1.121,0.174-2.173,0.526-3.158c0.351-0.985,0.857-1.841,1.519-2.569
		c0.66-0.729,1.463-1.302,2.407-1.721c0.944-0.419,2.003-0.629,3.178-0.629c0.566,0,1.123,0.065,1.668,0.197
		c0.545,0.131,1.064,0.319,1.557,0.565c0.494,0.246,0.95,0.55,1.37,0.912c0.418,0.36,0.785,0.772,1.101,1.233h0.078v-13.625h2.357
		v26.589L170.315,239.802L170.315,239.802z M170.441,231.85c0-0.795-0.137-1.55-0.409-2.263c-0.273-0.712-0.656-1.338-1.149-1.877
		c-0.493-0.54-1.092-0.967-1.794-1.281c-0.703-0.314-1.479-0.472-2.329-0.472s-1.618,0.149-2.306,0.448
		c-0.688,0.299-1.269,0.715-1.748,1.25c-0.476,0.534-0.843,1.168-1.101,1.901c-0.258,0.733-0.386,1.54-0.386,2.42
		c0,0.807,0.134,1.583,0.402,2.326c0.268,0.744,0.645,1.404,1.133,1.979c0.486,0.577,1.08,1.036,1.778,1.375
		c0.698,0.341,1.47,0.512,2.32,0.512c0.902,0,1.7-0.172,2.393-0.519c0.693-0.346,1.275-0.81,1.747-1.391
		c0.472-0.582,0.832-1.251,1.078-2.012C170.318,233.487,170.441,232.689,170.441,231.85z"/>
	<path fill="#231F20" d="M205.243,231.913c0,1.164-0.187,2.247-0.557,3.253c-0.374,1.005-0.892,1.878-1.558,2.616
		c-0.665,0.739-1.464,1.319-2.396,1.745c-0.933,0.424-1.964,0.637-3.095,0.637c-0.565,0-1.134-0.069-1.705-0.205
		c-0.572-0.136-1.108-0.332-1.611-0.589c-0.503-0.257-0.956-0.576-1.359-0.959c-0.403-0.382-0.73-0.819-0.981-1.312h-0.063v2.703
		h-2.359v-26.589h2.359v13.656h0.063c0.291-0.472,0.649-0.888,1.068-1.25c0.418-0.361,0.877-0.668,1.375-0.919
		c0.498-0.252,1.026-0.443,1.588-0.574c0.56-0.131,1.124-0.197,1.689-0.197c1.142,0,2.176,0.205,3.103,0.613
		c0.929,0.409,1.722,0.972,2.382,1.69c0.66,0.717,1.167,1.563,1.523,2.537C205.064,229.745,205.243,230.792,205.243,231.913z
		 M203.011,231.976c0-0.849-0.128-1.645-0.385-2.389c-0.256-0.743-0.622-1.388-1.099-1.933c-0.476-0.544-1.061-0.975-1.751-1.289
		c-0.692-0.314-1.479-0.471-2.359-0.471c-0.847,0-1.62,0.157-2.318,0.471c-0.696,0.314-1.287,0.744-1.775,1.289
		c-0.487,0.544-0.864,1.176-1.132,1.894c-0.265,0.718-0.399,1.485-0.399,2.302c0,0.839,0.12,1.641,0.361,2.404
		c0.241,0.765,0.597,1.441,1.068,2.027c0.472,0.587,1.052,1.054,1.745,1.399c0.691,0.346,1.488,0.518,2.388,0.518
		c0.86,0,1.637-0.172,2.333-0.518c0.698-0.346,1.292-0.808,1.785-1.383c0.491-0.576,0.872-1.239,1.139-1.988
		C202.876,233.561,203.011,232.783,203.011,231.976z"/>
	<path fill="#231F20" d="M213.984,248.586h-2.404l3.96-9.005l-7.402-15.29h2.593l5.988,12.775h0.063l5.42-12.775h2.5
		L213.984,248.586z"/>
</g>
<rect x="-207.062" y="222.85" fill="none" width="178.001" height="44.957"/>
<text transform="matrix(1 0 0 1 -207.0605 246.8604)" font-family="'LuzSans-Book'" font-size="29.0678">.info</text>
<g>
	<path fill="#231F20" d="M670.648,327.521c0,0.463-0.158,0.854-0.477,1.17c-0.314,0.315-0.709,0.475-1.17,0.475
		c-0.453,0-0.838-0.156-1.154-0.475c-0.316-0.316-0.477-0.707-0.477-1.17c0-0.228,0.043-0.439,0.129-0.638
		c0.084-0.199,0.201-0.373,0.348-0.524c0.148-0.154,0.32-0.275,0.518-0.365c0.199-0.09,0.41-0.137,0.637-0.137
		c0.23,0,0.441,0.047,0.646,0.137c0.201,0.09,0.377,0.211,0.523,0.365c0.148,0.151,0.266,0.325,0.35,0.524
		C670.607,327.082,670.648,327.294,670.648,327.521z"/>
	<path fill="#231F20" d="M682.462,306.365c0,0.215-0.047,0.418-0.137,0.608c-0.09,0.193-0.209,0.361-0.357,0.511
		c-0.145,0.146-0.318,0.262-0.518,0.348c-0.195,0.086-0.404,0.127-0.619,0.127c-0.229,0-0.441-0.041-0.646-0.127
		c-0.203-0.086-0.379-0.201-0.523-0.348c-0.146-0.147-0.266-0.316-0.35-0.511c-0.084-0.19-0.129-0.396-0.129-0.608
		c0-0.453,0.158-0.832,0.479-1.14c0.313-0.305,0.709-0.457,1.17-0.457c0.215,0,0.424,0.039,0.619,0.117
		c0.195,0.08,0.369,0.193,0.518,0.34c0.148,0.148,0.268,0.316,0.357,0.511C682.414,305.93,682.462,306.138,682.462,306.365z
		 M679.542,328.742v-16.746h2.545v16.746H679.542z"/>
	<path fill="#231F20" d="M700.281,328.742v-10.246c0-0.713-0.059-1.363-0.168-1.953c-0.115-0.588-0.311-1.094-0.586-1.518
		c-0.279-0.425-0.66-0.752-1.146-0.984c-0.486-0.23-1.104-0.348-1.85-0.348c-0.725,0-1.361,0.151-1.918,0.459
		c-0.553,0.305-1.02,0.729-1.398,1.271c-0.377,0.542-0.666,1.185-0.865,1.916c-0.195,0.736-0.297,1.527-0.297,2.377v9.025h-2.545
		v-16.746h2.545v2.393h0.068c0.52-0.881,1.213-1.565,2.078-2.053s1.896-0.729,3.096-0.729c1.764,0,3.129,0.534,4.09,1.608
		c0.959,1.074,1.441,2.646,1.441,4.717v10.81L700.281,328.742L700.281,328.742z"/>
	<path fill="#231F20" d="M712.669,314.253v14.488h-2.545v-14.488h-1.916v-2.258h1.916v-6.601c0-1.006,0.125-1.875,0.375-2.604
		c0.246-0.73,0.592-1.33,1.033-1.799c0.439-0.469,0.973-0.814,1.588-1.035c0.617-0.221,1.287-0.33,2.01-0.33
		c0.236,0,0.527,0.025,0.873,0.076s0.631,0.127,0.857,0.229v2.291c-0.451-0.205-0.945-0.307-1.486-0.307
		c-0.428,0-0.811,0.066-1.148,0.195c-0.34,0.131-0.625,0.348-0.854,0.651c-0.232,0.308-0.404,0.711-0.523,1.213
		c-0.119,0.507-0.178,1.136-0.178,1.894v6.125h4.191v2.258L712.669,314.253L712.669,314.253z"/>
	<path fill="#231F20" d="M737.853,320.361c0,1.231-0.215,2.383-0.645,3.453c-0.43,1.067-1.035,1.995-1.816,2.78
		c-0.777,0.787-1.715,1.406-2.805,1.857c-1.094,0.453-2.301,0.68-3.625,0.68c-1.322,0-2.52-0.227-3.598-0.68
		c-1.074-0.451-1.99-1.07-2.754-1.857c-0.768-0.785-1.355-1.713-1.768-2.78c-0.414-1.07-0.619-2.222-0.619-3.453
		c0-1.244,0.217-2.398,0.646-3.461c0.43-1.063,1.033-1.986,1.807-2.773s1.707-1.402,2.801-1.85c1.09-0.447,2.297-0.67,3.621-0.67
		c1.334,0,2.541,0.227,3.623,0.678c1.078,0.453,1.998,1.076,2.758,1.867c0.756,0.791,1.342,1.719,1.756,2.78
		C737.646,317.998,737.853,319.14,737.853,320.361z M735.41,320.361c0-0.871-0.141-1.705-0.422-2.502
		c-0.283-0.8-0.695-1.502-1.24-2.113c-0.541-0.609-1.205-1.101-1.984-1.467c-0.777-0.367-1.67-0.552-2.664-0.552
		c-0.98,0-1.875,0.181-2.67,0.543c-0.799,0.361-1.479,0.847-2.037,1.449c-0.561,0.605-0.992,1.312-1.297,2.113
		c-0.307,0.803-0.461,1.645-0.461,2.527c0,0.881,0.146,1.725,0.426,2.524c0.281,0.806,0.695,1.512,1.24,2.121
		c0.541,0.611,1.207,1.098,1.99,1.459c0.787,0.363,1.68,0.543,2.674,0.543c1.02,0,1.926-0.178,2.725-0.533
		c0.799-0.354,1.471-0.842,2.02-1.448c0.549-0.611,0.971-1.318,1.266-2.121C735.263,322.103,735.41,321.255,735.41,320.361z"/>
</g>
<g>
	<g>
		<polygon id="SVGID_15_" fill="#231F20" points="160.072,703.423 156.725,703.423 156.725,744.347 160.072,744.347 
			160.072,706.769 187.608,706.769 187.608,703.423 		"/>
	</g>
	<g>
		<g>
			<defs>
				<polygon id="SVGID_10_" points="162.577,702.122 159.253,701.726 154.41,742.358 157.731,742.754 162.18,705.444 
					189.52,708.704 189.917,705.382 				"/>
			</defs>
			<clipPath id="SVGID_12_">
				<use xlink:href="#SVGID_10_"  overflow="visible"/>
			</clipPath>
			
				<rect x="150.825" y="707.244" transform="matrix(0.0593 -0.9982 0.9982 0.0593 -560.6414 852.8036)" clip-path="url(#SVGID_12_)" fill="#231F20" width="42.682" height="33.253"/>
		</g>
	</g>
</g>
<g>
	<g>
		<polygon id="SVGID_17_" fill="#231F20" points="256.695,683.511 256.695,703.423 246.653,703.423 246.653,706.769 
			256.695,706.769 256.695,744.347 260.043,744.347 287.61,744.347 287.61,741 260.043,741 260.043,706.769 277.575,706.769 
			277.575,703.423 260.043,703.423 260.043,683.511 		"/>
	</g>
	<g>
		<g>
			<defs>
				<polygon id="SVGID_14_" points="260.374,682.506 258.015,702.276 248.045,701.087 247.651,704.409 257.621,705.599 
					253.172,742.908 256.496,743.305 283.867,746.567 284.262,743.244 256.893,739.981 260.945,705.994 278.352,708.07 
					278.749,704.748 261.339,702.672 263.698,682.902 				"/>
			</defs>
			<clipPath id="SVGID_16_">
				<use xlink:href="#SVGID_14_"  overflow="visible"/>
			</clipPath>
			
				<rect x="235.558" y="691.698" transform="matrix(0.0593 -0.9982 0.9982 0.0593 -461.3936 938.2621)" clip-path="url(#SVGID_16_)" fill="#231F20" width="63.153" height="44.487"/>
		</g>
	</g>
</g>
<g>
	<g>
		<polygon id="SVGID_19_" fill="#231F20" points="332.247,703.423 294.669,703.423 294.669,706.769 332.247,706.769 332.247,741 
			298.016,741 298.016,716.773 325.583,716.773 325.583,713.423 298.016,713.423 294.669,713.423 294.669,744.347 298.016,744.347 
			332.247,744.347 335.593,744.347 335.593,703.423 		"/>
	</g>
	<g>
		<g>
			<defs>
				<polygon id="SVGID_18_" points="334.563,705.639 297.253,701.19 296.856,704.513 334.167,708.961 330.114,742.948 
					296.128,738.896 298.996,714.84 326.366,718.104 326.764,714.778 299.392,711.515 296.068,711.119 292.409,741.822 
					295.731,742.219 329.719,746.271 333.042,746.667 337.885,706.035 				"/>
			</defs>
			<clipPath id="SVGID_20_">
				<use xlink:href="#SVGID_18_"  overflow="visible"/>
			</clipPath>
			
				<rect x="293.508" y="702.291" transform="matrix(0.0593 -0.9982 0.9982 0.0593 -426.1961 995.5894)" clip-path="url(#SVGID_20_)" fill="#231F20" width="43.277" height="43.274"/>
		</g>
	</g>
</g>
<g>
	<g>
		<polygon id="SVGID_21_" fill="#231F20" points="349.56,683.511 349.56,744.347 352.907,744.347 387.138,744.347 390.487,744.347 
			390.487,744.337 390.487,703.423 387.138,703.423 359.563,703.423 359.563,706.769 387.138,706.769 387.138,741 352.907,741 
			352.907,683.511 		"/>
	</g>
	<g>
		<g>
			<defs>
				<polygon id="SVGID_22_" points="353.302,681.296 346.099,741.698 349.423,742.095 383.412,746.147 386.736,746.543 
					386.736,746.533 391.582,705.912 388.255,705.516 360.877,702.25 360.479,705.572 387.859,708.837 383.806,742.824 
					349.818,738.771 356.626,681.692 				"/>
			</defs>
			<clipPath id="SVGID_24_">
				<use xlink:href="#SVGID_22_"  overflow="visible"/>
			</clipPath>
			
				<rect x="338.445" y="691.69" transform="matrix(0.0593 -0.9982 0.9982 0.0593 -364.5881 1040.9485)" clip-path="url(#SVGID_24_)" fill="#231F20" width="63.149" height="44.46"/>
		</g>
	</g>
</g>
<g>
	<g>
		<polygon id="SVGID_23_" fill="#231F20" points="437.855,703.423 434.507,703.423 434.507,744.347 437.855,744.347 
			475.408,744.347 475.408,741 437.855,741 437.855,706.769 472.062,706.769 472.062,713.482 444.457,713.482 444.457,716.828 
			472.062,716.828 475.408,716.828 475.408,706.769 475.408,703.423 		"/>
	</g>
</g>
<g>
	<g>
		<polygon id="SVGID_25_" fill="#231F20" points="404.406,683.511 404.406,683.511 404.406,744.347 407.755,744.347 
			425.332,744.347 425.332,741 407.755,741 407.755,683.511 		"/>
	</g>
</g>
<g>
	<g>
		<path id="SVGID_27_" fill="#231F20" d="M208.598,730.24l2.092-14.89l14.887,2.093l-2.092,14.889L208.598,730.24z M196.63,703.384
			V744.3h0.009h40.904v-0.014v-40.902h-0.011H196.63L196.63,703.384z"/>
	</g>
	<g>
		<g>
			<defs>
				<path id="SVGID_26_" d="M207.896,729.165l3.839-14.534l14.533,3.84l-3.839,14.534L207.896,729.165z M199.192,701.085
					l-4.844,40.623l0.008,0.001l40.613,4.843l0.003-0.013l4.843-40.61l-0.012-0.001L199.192,701.085z"/>
			</defs>
			<clipPath id="SVGID_28_">
				<use xlink:href="#SVGID_26_"  overflow="visible"/>
			</clipPath>
			
				<rect x="195.449" y="702.186" transform="matrix(0.0593 -0.9982 0.9982 0.0593 -518.3365 897.5972)" clip-path="url(#SVGID_28_)" fill="#231F20" width="43.264" height="43.266"/>
		</g>
	</g>
</g>
<g>
	<path fill="#231F20" d="M163.614,692.025c0,0.528-0.085,1.022-0.254,1.479c-0.169,0.459-0.405,0.855-0.708,1.191
		c-0.303,0.336-0.667,0.602-1.091,0.795c-0.425,0.19-0.895,0.289-1.41,0.289c-0.258,0-0.514-0.029-0.769-0.091
		c-0.255-0.061-0.496-0.146-0.723-0.258c-0.226-0.11-0.433-0.25-0.619-0.412c-0.186-0.159-0.341-0.346-0.465-0.551h-0.028v5.146
		h-1.073v-11.064h1.073v1.098h0.028c0.144-0.2,0.311-0.381,0.501-0.536c0.19-0.158,0.399-0.289,0.626-0.396
		c0.226-0.106,0.465-0.188,0.715-0.244c0.25-0.055,0.504-0.082,0.762-0.082c0.52,0,0.991,0.095,1.413,0.279
		c0.422,0.186,0.784,0.441,1.084,0.771c0.301,0.325,0.532,0.711,0.694,1.153C163.533,691.039,163.614,691.515,163.614,692.025z
		 M162.612,692.054c0-0.373-0.061-0.725-0.182-1.059c-0.122-0.334-0.294-0.625-0.519-0.873c-0.225-0.248-0.494-0.445-0.809-0.59
		c-0.315-0.146-0.666-0.22-1.052-0.22c-0.387,0-0.738,0.07-1.056,0.212c-0.318,0.141-0.586,0.331-0.809,0.575
		c-0.221,0.242-0.393,0.527-0.515,0.853c-0.121,0.324-0.182,0.672-0.182,1.045c0,0.381,0.055,0.744,0.165,1.09
		c0.109,0.346,0.272,0.65,0.486,0.912c0.215,0.264,0.479,0.471,0.794,0.627c0.315,0.154,0.678,0.232,1.088,0.232
		c0.391,0,0.747-0.078,1.066-0.232c0.319-0.156,0.591-0.361,0.815-0.619s0.398-0.557,0.522-0.895
		C162.55,692.775,162.612,692.421,162.612,692.054z"/>
	<path fill="#231F20" d="M173.018,692.083c0,0.521-0.091,1.004-0.272,1.455c-0.182,0.451-0.437,0.842-0.766,1.174
		c-0.329,0.33-0.724,0.592-1.184,0.783c-0.46,0.188-0.969,0.287-1.527,0.287s-1.063-0.099-1.517-0.287
		c-0.454-0.191-0.841-0.453-1.163-0.783c-0.322-0.332-0.57-0.723-0.744-1.174c-0.174-0.451-0.261-0.937-0.261-1.455
		c0-0.525,0.091-1.012,0.272-1.461c0.181-0.447,0.435-0.838,0.762-1.17c0.327-0.33,0.72-0.592,1.181-0.779
		c0.46-0.188,0.969-0.283,1.528-0.283c0.562,0,1.072,0.099,1.527,0.287c0.455,0.191,0.843,0.453,1.163,0.787
		c0.319,0.334,0.566,0.726,0.74,1.174C172.931,691.085,173.018,691.568,173.018,692.083z M171.987,692.083
		c0-0.367-0.06-0.721-0.179-1.057c-0.12-0.336-0.293-0.634-0.522-0.892s-0.508-0.465-0.837-0.619
		c-0.33-0.153-0.704-0.231-1.123-0.231c-0.416,0-0.791,0.076-1.127,0.229c-0.337,0.154-0.623,0.357-0.859,0.613
		c-0.236,0.254-0.419,0.551-0.547,0.891c-0.129,0.339-0.193,0.693-0.193,1.066c0,0.371,0.059,0.727,0.179,1.063
		c0.119,0.341,0.293,0.638,0.522,0.896s0.509,0.463,0.84,0.615c0.331,0.151,0.707,0.229,1.127,0.229
		c0.429,0,0.812-0.073,1.148-0.225s0.62-0.354,0.851-0.611c0.232-0.258,0.409-0.557,0.533-0.895
		C171.925,692.818,171.987,692.458,171.987,692.083z"/>
	<path fill="#231F20" d="M182.879,695.925h-0.429l-2.24-5.553l-2.225,5.553h-0.458l-3.048-7.371h1.116l2.196,5.41h0.029l2.226-5.588
		h0.365l2.232,5.588h0.042l2.168-5.41h1.117L182.879,695.925z"/>
	<path fill="#231F20" d="M188.477,692.248c0.01,0.41,0.084,0.781,0.222,1.111c0.138,0.332,0.326,0.612,0.562,0.846
		c0.236,0.229,0.512,0.41,0.827,0.535c0.314,0.127,0.651,0.188,1.009,0.188c0.529,0,0.988-0.129,1.377-0.391
		c0.389-0.26,0.712-0.607,0.97-1.047l0.894,0.233c-0.148,0.33-0.335,0.621-0.562,0.88c-0.226,0.254-0.484,0.469-0.772,0.643
		c-0.289,0.174-0.602,0.307-0.937,0.396c-0.337,0.093-0.688,0.138-1.056,0.138c-0.544,0-1.035-0.099-1.474-0.285
		c-0.439-0.191-0.814-0.453-1.127-0.785c-0.312-0.33-0.553-0.723-0.723-1.172c-0.169-0.451-0.254-0.938-0.254-1.457
		c0-0.51,0.086-0.988,0.258-1.438c0.172-0.447,0.412-0.841,0.723-1.175c0.31-0.334,0.682-0.598,1.116-0.791
		c0.434-0.19,0.913-0.289,1.438-0.289c0.558,0,1.056,0.095,1.492,0.279c0.437,0.187,0.805,0.447,1.105,0.787
		c0.301,0.338,0.528,0.744,0.683,1.217c0.155,0.472,0.23,0.996,0.226,1.574h-5.997V692.248z M193.156,690.601
		c-0.119-0.274-0.277-0.518-0.472-0.723c-0.196-0.205-0.436-0.365-0.719-0.479c-0.284-0.115-0.617-0.173-0.999-0.173
		c-0.344,0-0.658,0.06-0.944,0.175c-0.286,0.116-0.537,0.278-0.751,0.483s-0.388,0.445-0.519,0.724
		c-0.131,0.274-0.214,0.573-0.247,0.895h4.909C193.361,691.179,193.275,690.878,193.156,690.601z"/>
	<path fill="#231F20" d="M199.798,689.457c-0.134-0.029-0.27-0.043-0.408-0.043c-0.449,0-0.794,0.215-1.038,0.643
		c-0.243,0.433-0.365,1.099-0.365,2.002v3.562h-1.073v-7.064h1.073v0.967h0.028c0.167-0.381,0.39-0.661,0.669-0.844
		c0.279-0.182,0.617-0.271,1.012-0.271c0.125,0,0.244,0.016,0.358,0.043c0.115,0.026,0.227,0.063,0.336,0.104l-0.236,1.031
		C200.051,689.529,199.932,689.486,199.798,689.457z"/>
	<path fill="#231F20" d="M202.734,692.248c0.009,0.41,0.083,0.781,0.222,1.111c0.139,0.332,0.326,0.612,0.562,0.846
		c0.236,0.229,0.512,0.41,0.827,0.535c0.315,0.127,0.651,0.188,1.009,0.188c0.53,0,0.989-0.129,1.377-0.391
		c0.389-0.26,0.712-0.607,0.969-1.047l0.895,0.233c-0.147,0.33-0.335,0.621-0.561,0.88c-0.227,0.254-0.485,0.469-0.773,0.643
		c-0.289,0.174-0.601,0.307-0.938,0.396c-0.336,0.093-0.688,0.138-1.055,0.138c-0.544,0-1.035-0.099-1.473-0.285
		c-0.439-0.191-0.815-0.453-1.127-0.785c-0.312-0.33-0.553-0.723-0.723-1.172c-0.169-0.451-0.254-0.938-0.254-1.457
		c0-0.51,0.085-0.988,0.257-1.438c0.172-0.447,0.413-0.841,0.723-1.175s0.682-0.598,1.116-0.791c0.434-0.19,0.913-0.289,1.438-0.289
		c0.558,0,1.055,0.095,1.492,0.279c0.435,0.187,0.804,0.447,1.105,0.787c0.3,0.338,0.528,0.744,0.683,1.217
		c0.155,0.472,0.23,0.996,0.225,1.574h-5.996V692.248z M207.413,690.601c-0.119-0.274-0.276-0.518-0.472-0.723
		c-0.196-0.205-0.436-0.365-0.719-0.479c-0.284-0.115-0.617-0.173-0.998-0.173c-0.343,0-0.658,0.06-0.944,0.175
		c-0.287,0.116-0.537,0.278-0.752,0.483c-0.214,0.205-0.388,0.445-0.519,0.724c-0.131,0.274-0.213,0.573-0.247,0.895h4.908
		C207.618,691.179,207.532,690.878,207.413,690.601z"/>
	<path fill="#231F20" d="M216.753,695.617v-1.23h-0.036c-0.129,0.215-0.286,0.408-0.469,0.58c-0.185,0.172-0.389,0.318-0.616,0.439
		s-0.467,0.215-0.72,0.279c-0.253,0.063-0.511,0.098-0.773,0.098c-0.525,0-1.003-0.098-1.433-0.287
		c-0.43-0.191-0.796-0.453-1.1-0.787c-0.304-0.334-0.539-0.727-0.706-1.18s-0.25-0.941-0.25-1.461c0-0.51,0.08-0.988,0.24-1.438
		c0.16-0.448,0.391-0.84,0.691-1.17c0.3-0.332,0.666-0.594,1.096-0.783c0.43-0.19,0.912-0.286,1.447-0.286
		c0.258,0,0.511,0.028,0.76,0.09c0.248,0.061,0.485,0.146,0.709,0.258c0.225,0.111,0.433,0.25,0.624,0.416
		c0.19,0.164,0.357,0.352,0.501,0.561h0.036v-6.203h1.073v12.105H216.753L216.753,695.617z M216.81,691.998
		c0-0.363-0.063-0.707-0.186-1.031c-0.125-0.324-0.299-0.606-0.523-0.854s-0.497-0.439-0.816-0.582
		c-0.32-0.146-0.674-0.215-1.061-0.215c-0.387,0-0.737,0.065-1.05,0.2c-0.313,0.14-0.578,0.326-0.796,0.57
		c-0.217,0.242-0.384,0.531-0.501,0.865s-0.176,0.701-0.176,1.102c0,0.367,0.061,0.724,0.183,1.062
		c0.122,0.338,0.293,0.639,0.516,0.897c0.221,0.267,0.492,0.476,0.81,0.627c0.318,0.154,0.669,0.232,1.056,0.232
		c0.411,0,0.774-0.078,1.089-0.236c0.315-0.156,0.581-0.369,0.795-0.633c0.215-0.266,0.379-0.57,0.491-0.916
		C216.754,692.742,216.81,692.378,216.81,691.998z"/>
	<path fill="#231F20" d="M232.656,692.025c0,0.528-0.085,1.022-0.253,1.479c-0.17,0.459-0.406,0.855-0.709,1.191
		c-0.303,0.336-0.667,0.602-1.091,0.795c-0.425,0.19-0.894,0.289-1.409,0.289c-0.257,0-0.517-0.031-0.776-0.095
		c-0.26-0.063-0.504-0.149-0.734-0.27c-0.229-0.115-0.435-0.262-0.619-0.436c-0.184-0.175-0.333-0.373-0.447-0.599h-0.029v1.23
		h-1.074v-12.105h1.074v6.217h0.029c0.132-0.215,0.295-0.403,0.486-0.567c0.19-0.164,0.399-0.306,0.626-0.418
		c0.226-0.115,0.467-0.201,0.723-0.263c0.255-0.061,0.512-0.09,0.77-0.09c0.52,0,0.99,0.094,1.413,0.279
		c0.423,0.184,0.784,0.44,1.084,0.77c0.3,0.326,0.531,0.711,0.693,1.154C232.574,691.039,232.656,691.515,232.656,692.025z
		 M231.639,692.054c0-0.387-0.058-0.748-0.175-1.088c-0.116-0.338-0.283-0.633-0.5-0.879c-0.217-0.248-0.483-0.445-0.797-0.588
		c-0.315-0.144-0.673-0.215-1.074-0.215c-0.386,0-0.738,0.071-1.056,0.215c-0.317,0.143-0.586,0.34-0.808,0.588
		c-0.222,0.246-0.394,0.535-0.516,0.861c-0.121,0.326-0.182,0.676-0.182,1.049c0,0.381,0.054,0.746,0.165,1.094
		c0.109,0.349,0.271,0.656,0.486,0.922c0.214,0.271,0.479,0.48,0.794,0.64c0.315,0.158,0.678,0.233,1.087,0.233
		c0.392,0,0.746-0.078,1.063-0.233c0.318-0.156,0.588-0.367,0.813-0.631c0.224-0.263,0.396-0.563,0.519-0.902
		C231.578,692.775,231.639,692.421,231.639,692.054z"/>
	<path fill="#231F20" d="M236.636,699.617h-1.095l1.803-4.101l-3.37-6.963h1.181l2.727,5.816h0.029l2.468-5.816h1.138
		L236.636,699.617z"/>
</g>
</svg>
