<?xml version="1.0" encoding="utf-8"?>
<!-- Generator: Adobe Illustrator 15.1.0, SVG Export Plug-In . SVG Version: 6.00 Build 0)  -->
<!DOCTYPE svg PUBLIC "-//W3C//DTD SVG 1.1//EN" "http://www.w3.org/Graphics/SVG/1.1/DTD/svg11.dtd">
<svg version="1.1" id="Layer_1" xmlns="http://www.w3.org/2000/svg" xmlns:xlink="http://www.w3.org/1999/xlink" x="0px" y="0px"
	 width="142.048px" height="96.429px" viewBox="0 0 142.048 96.429" enable-background="new 0 0 142.048 96.429"
	 xml:space="preserve">
<path d="M109.681,29.063v39.446H75.8l-6.39,6.349h46.431V22.698h-22.26l-2.405,6.364H109.681z M109.681,29.063"/>
<path d="M34.335,62.696v12.161h23.875l2.199-6.349H40.499V29.063h37.945l6.562-6.364H34.335v11.956
	c-2.484,0-8.128-0.461-8.128,4.195v18.852C26.208,63.334,32.18,62.696,34.335,62.696L34.335,62.696z M34.335,62.696"/>
<path fill="#6ABD45" stroke="#010101" stroke-width="0.5" stroke-miterlimit="10" d="M104.412,63.226V34.33H89.183l-3.789,9.635
	l13.131-0.013L81.108,63.226H104.412z M104.412,63.226"/>
<path fill="#6ABD45" stroke="#010101" stroke-width="0.5" stroke-miterlimit="10" d="M51.819,57.146l21.2-22.815H45.291
	l-0.026,28.896h17.507l2.278-6.08H51.819z M51.819,57.146"/>
<path fill="#FFCE22" stroke="#010101" stroke-width="0.5" stroke-miterlimit="10" d="M69.163,54.419L58.169,82.146l33.946-35.521
	L80.55,46.776l14.281-32.494L57.585,54.581L69.163,54.419z M69.163,54.419"/>
</svg>
