<?xml version="1.0" encoding="utf-8"?>
<!-- Generator: Adobe Illustrator 15.1.0, SVG Export Plug-In . SVG Version: 6.00 Build 0)  -->
<!DOCTYPE svg PUBLIC "-//W3C//DTD SVG 1.1//EN" "http://www.w3.org/Graphics/SVG/1.1/DTD/svg11.dtd">
<svg version="1.1" id="Layer_1" xmlns="http://www.w3.org/2000/svg" xmlns:xlink="http://www.w3.org/1999/xlink" x="0px" y="0px"
	 width="112.295px" height="313.934px" viewBox="0 0 112.295 313.934" enable-background="new 0 0 112.295 313.934"
	 xml:space="preserve">
<g>
	<path fill="#FFFFFF" d="M0,0v313.934c22.978-95.87,112.295-94.836,112.295-156.704c0-0.045,0-0.154,0-0.263s0-0.218,0-0.263
		C112.295,94.836,22.978,95.87,0,0z"/>
	<path fill="#0170BF" d="M63.414,136.264L63.48,147.1c0,0,12.66,9.457,13.973,9.86c-0.005,0-0.005,0.008-0.01,0.008
		c0.005,0,0.005,0,0.01,0c-1.313,0.409-13.973,9.86-13.973,9.86l-0.066,10.842l28.023-20.113v-0.589v-0.594L63.414,136.264z"/>
</g>
</svg>
