<?xml version="1.0" encoding="utf-8"?>
<!-- Generator: Adobe Illustrator 15.1.0, SVG Export Plug-In . SVG Version: 6.00 Build 0)  -->
<!DOCTYPE svg PUBLIC "-//W3C//DTD SVG 1.1//EN" "http://www.w3.org/Graphics/SVG/1.1/DTD/svg11.dtd">
<svg version="1.1" id="Layer_1" xmlns="http://www.w3.org/2000/svg" xmlns:xlink="http://www.w3.org/1999/xlink" x="0px" y="0px"
	 width="595.28px" height="841.89px" viewBox="0 0 595.28 841.89" enable-background="new 0 0 595.28 841.89" xml:space="preserve">
<g>
	<defs>
		<rect id="SVGID_1_" x="248.748" y="186.669" width="149.336" height="466.667"/>
	</defs>
	<clipPath id="SVGID_2_">
		<use xlink:href="#SVGID_1_"  overflow="visible"/>
	</clipPath>
	<g clip-path="url(#SVGID_2_)">
		
			<image overflow="visible" width="867" height="2146" xlink:href="85E92612.png"  transform="matrix(0.24 0 0 0.24 193.4063 163.1147)">
		</image>
	</g>
	<path clip-path="url(#SVGID_2_)" fill="#FFFFFF" d="M243.406,213.739l-10.205,173.475c-2.426,0.646-3.795,1.05-3.795,1.05
		l1.867,31.738l-1.867,31.738c0,0,1.369,0.404,3.795,1.05l10.205,173.476c0-146.851,117.637-135.001,117.637-206.001
		c0-0.045,0-0.154,0-0.263s0-0.218,0-0.263C361.043,348.739,243.406,360.589,243.406,213.739z"/>
	<path clip-path="url(#SVGID_2_)" fill="#0170BF" d="M312.162,399.299l0.066,10.835c0,0,12.66,9.457,13.973,9.86
		c-0.005,0-0.005,0.008-0.01,0.008c0.005,0,0.005,0,0.01,0c-1.313,0.409-13.973,9.86-13.973,9.86l-0.066,10.842l28.023-20.113
		v-0.589v-0.594L312.162,399.299z"/>
</g>
</svg>
