<?xml version="1.0" encoding="utf-8"?>
<!-- Generator: Adobe Illustrator 15.1.0, SVG Export Plug-In . SVG Version: 6.00 Build 0)  -->
<!DOCTYPE svg PUBLIC "-//W3C//DTD SVG 1.1//EN" "http://www.w3.org/Graphics/SVG/1.1/DTD/svg11.dtd">
<svg version="1.1" id="Layer_1" xmlns="http://www.w3.org/2000/svg" xmlns:xlink="http://www.w3.org/1999/xlink" x="0px" y="0px"
	 width="595.28px" height="841.89px" viewBox="0 0 595.28 841.89" enable-background="new 0 0 595.28 841.89" xml:space="preserve">
<g>
	<defs>
		<rect id="SVGID_1_" x="255" y="166.813" width="131.333" height="510"/>
	</defs>
	<clipPath id="SVGID_2_">
		<use xlink:href="#SVGID_1_"  overflow="visible"/>
	</clipPath>
	<g clip-path="url(#SVGID_2_)">
		<g>
			
				<image overflow="visible" width="713" height="2188" xlink:href="E513FE67.png"  transform="matrix(0.24 0 0 0.24 208.3345 158.6636)">
			</image>
		</g>
		<path fill="#FFFFFF" d="M254.297,214.884l-7.262,173.475c-1.727,0.645-2.701,1.049-2.701,1.049l1.329,31.738l-1.329,31.739
			c0,0,0.974,0.404,2.701,1.051l7.262,173.475c0-146.85,83.713-135,83.713-206c0-0.045,0-0.154,0-0.264c0-0.107,0-0.217,0-0.262
			C338.011,349.884,254.297,361.734,254.297,214.884z"/>
		<path fill="#0170BF" d="M299.729,400.444l0.033,10.835c0,0,6.992,9.869,6.995,9.869c-0.657,0.408-6.995,9.862-6.995,9.862
			l-0.033,10.84l14.029-20.112v-0.59v-0.594L299.729,400.444z"/>
	</g>
</g>
</svg>
