<?xml version="1.0" encoding="utf-8"?>
<!-- Generator: Adobe Illustrator 15.1.0, SVG Export Plug-In . SVG Version: 6.00 Build 0)  -->
<!DOCTYPE svg PUBLIC "-//W3C//DTD SVG 1.1//EN" "http://www.w3.org/Graphics/SVG/1.1/DTD/svg11.dtd">
<svg version="1.1" id="Layer_1" xmlns="http://www.w3.org/2000/svg" xmlns:xlink="http://www.w3.org/1999/xlink" x="0px" y="0px"
	 width="131.333px" height="123.811px" viewBox="0 0 131.333 123.811" enable-background="new 0 0 131.333 123.811"
	 xml:space="preserve">
<g>
	<path fill="#FFFFFF" d="M83.458,47.89h-4.845H52.691h-4.814l0.768,8.302l0,0l2.715,29.292c0.23,2.479,2.443,4.497,4.934,4.497
		H74.42c2.521,0,4.707-1.963,4.977-4.469l3.541-32.809l0,0L83.458,47.89z M67.221,51.115h4.418l-1.941,35.642h-2.477V51.115z
		 M63.996,86.756h-2.475l-1.943-35.642h4.418V86.756z M54.57,85.186L51.557,52.66l-0.025-0.272c-0.033-0.35,0.068-0.672,0.283-0.906
		c0.215-0.235,0.525-0.365,0.877-0.365h3.656l1.943,35.642h-1.998C55.453,86.756,54.648,86.022,54.57,85.186z M76.191,85.167
		c-0.092,0.849-0.918,1.59-1.771,1.59h-1.494l1.943-35.642h3.743c0.349,0,0.652,0.126,0.857,0.354
		c0.204,0.228,0.295,0.543,0.262,0.885l-1.047,9.7l0,0L76.191,85.167z"/>
	<path fill="#FFFFFF" d="M49.645,45.562h7.941l0.004,0.095l1.564-0.095h13.063l1.564,0.095l0.004-0.095h7.877
		c0.889,0,1.61-0.723,1.61-1.612s-0.724-1.612-1.61-1.612h-7.826c-0.146-1.729-0.676-4.405-2.461-6.305
		c-1.084-1.153-2.453-1.851-4.076-2.098v-0.106h-1.357H65.43h-1.357v0.106c-1.621,0.247-2.99,0.943-4.076,2.097
		c-1.785,1.898-2.313,4.576-2.461,6.306h-7.891c-0.891,0-1.611,0.723-1.611,1.612S48.754,45.562,49.645,45.562z M62.346,38.242
		c0.752-0.8,1.762-1.188,3.084-1.188h0.512c1.318,0,2.326,0.387,3.078,1.181c1.072,1.136,1.449,2.862,1.578,4.104h-9.822
		C60.906,41.097,61.283,39.372,62.346,38.242z"/>
</g>
</svg>
