<?xml version="1.0" encoding="utf-8"?>
<!-- Generator: Adobe Illustrator 15.1.0, SVG Export Plug-In . SVG Version: 6.00 Build 0)  -->
<!DOCTYPE svg PUBLIC "-//W3C//DTD SVG 1.1//EN" "http://www.w3.org/Graphics/SVG/1.1/DTD/svg11.dtd">
<svg version="1.1" id="Layer_1" xmlns="http://www.w3.org/2000/svg" xmlns:xlink="http://www.w3.org/1999/xlink" x="0px" y="0px"
	 width="142.048px" height="96.429px" viewBox="0 0 142.048 96.429" enable-background="new 0 0 142.048 96.429"
	 xml:space="preserve">
<g>
	<path fill="#62B5E5" d="M27.906,40.57l-7.027-7.025c13.415-13.416,31.224-20.804,50.146-20.804c18.92,0,36.729,7.388,50.144,20.802
		l-7.031,7.025C102.603,29.031,87.29,22.681,71.025,22.681C54.754,22.681,39.441,29.031,27.906,40.57L27.906,40.57z M27.906,40.57"
		/>
	<path fill="#62B5E5" d="M41.111,53.772l-7.028-7.026c9.88-9.884,23.001-15.326,36.938-15.326c13.941,0,27.06,5.442,36.943,15.324
		l-7.027,7.028c-8.004-8.006-18.626-12.415-29.916-12.415C59.736,41.357,49.111,45.767,41.111,53.772L41.111,53.772z M41.111,53.772
		"/>
	<path fill="#62B5E5" d="M54.311,66.977l-7.027-7.027c6.35-6.348,14.779-9.846,23.742-9.846c8.953,0,17.387,3.498,23.739,9.846
		l-7.028,7.025c-4.473-4.473-10.41-6.934-16.711-6.934C64.718,60.039,58.784,62.502,54.311,66.977L54.311,66.977z M54.311,66.977"/>
	<path fill="#225FAC" d="M71.025,68.982c-4.061,0-7.74,1.646-10.399,4.307l10.399,10.398l10.396-10.398
		C78.76,70.629,75.083,68.982,71.025,68.982L71.025,68.982z M71.025,68.982"/>
</g>
</svg>
