<?xml version="1.0" encoding="utf-8"?>
<!-- Generator: Adobe Illustrator 15.1.0, SVG Export Plug-In . SVG Version: 6.00 Build 0)  -->
<!DOCTYPE svg PUBLIC "-//W3C//DTD SVG 1.1//EN" "http://www.w3.org/Graphics/SVG/1.1/DTD/svg11.dtd">
<svg version="1.1" id="Layer_1" xmlns="http://www.w3.org/2000/svg" xmlns:xlink="http://www.w3.org/1999/xlink" x="0px" y="0px"
	 width="131.333px" height="123.811px" viewBox="0 0 131.333 123.811" enable-background="new 0 0 131.333 123.811"
	 xml:space="preserve">
<g>
	<g>
		<path fill="#FFFFFF" d="M91.146,61.489h-47c-0.828,0-1.5-0.671-1.5-1.5V39.322c0-0.829,0.672-1.5,1.5-1.5h47
			c0.828,0,1.5,0.671,1.5,1.5v20.667C92.646,60.818,91.975,61.489,91.146,61.489z M45.646,58.489h44V40.822h-44V58.489z"/>
		<path fill="#FFFFFF" d="M87.688,65.447h-47.5c-0.828,0-1.5-0.671-1.5-1.5V45.114c0-0.829,0.672-1.5,1.5-1.5s1.5,0.671,1.5,1.5
			v17.333h46c0.828,0,1.5,0.671,1.5,1.5S88.516,65.447,87.688,65.447z"/>
		<g>
			<path fill="#FFFFFF" d="M67.646,56.947c-3.859,0-7-3.271-7-7.292s3.141-7.292,7-7.292c3.858,0,7,3.271,7,7.292
				S71.506,56.947,67.646,56.947z M67.646,45.364c-2.207,0-4,1.925-4,4.292s1.793,4.292,4,4.292c2.205,0,4-1.925,4-4.292
				S69.852,45.364,67.646,45.364z"/>
			<path fill="#FFFFFF" d="M57.928,57.51h-9.5c-0.828,0-1.5-0.672-1.5-1.5V43.864c0-0.829,0.672-1.5,1.5-1.5h9.5
				c0.828,0,1.5,0.671,1.5,1.5s-0.672,1.5-1.5,1.5h-8v9.146h8c0.828,0,1.5,0.671,1.5,1.5C59.428,56.839,58.756,57.51,57.928,57.51z"
				/>
			<path fill="#FFFFFF" d="M86.866,57.229h-9.5c-0.828,0-1.5-0.671-1.5-1.5s0.672-1.5,1.5-1.5h8v-9.146h-8
				c-0.828,0-1.5-0.671-1.5-1.5s0.672-1.5,1.5-1.5h9.5c0.827,0,1.5,0.671,1.5,1.5v12.146C88.366,56.557,87.693,57.229,86.866,57.229
				z"/>
		</g>
		<path fill="#FFFFFF" d="M56.865,81.33c-4.098,0-7.432-3.334-7.432-7.432c0-4.099,3.334-7.434,7.432-7.434
			c4.1,0,7.434,3.335,7.434,7.434C64.299,77.996,60.965,81.33,56.865,81.33z M56.865,69.465c-2.443,0-4.432,1.988-4.432,4.434
			c0,2.442,1.988,4.432,4.432,4.432c2.445,0,4.434-1.988,4.434-4.432C61.299,71.454,59.311,69.465,56.865,69.465z"/>
		<path fill="#FFFFFF" d="M62.762,90.421c-3.623,0-6.805-2.658-7.35-6.348c-0.119-0.819,0.445-1.582,1.266-1.703
			c0.813-0.117,1.582,0.445,1.703,1.267c0.357,2.417,2.604,4.098,5.033,3.737c1.17-0.174,2.205-0.792,2.911-1.742
			c0.707-0.95,1-2.118,0.825-3.288c-0.207-1.406-1.045-2.597-2.301-3.268c-0.73-0.391-1.006-1.3-0.615-2.03
			c0.391-0.731,1.301-1.005,2.029-0.615c2.071,1.105,3.514,3.152,3.854,5.475c0.289,1.964-0.203,3.923-1.387,5.517
			c-1.184,1.595-2.918,2.632-4.881,2.92C63.484,90.396,63.121,90.421,62.762,90.421z"/>
		<path fill="#FFFFFF" d="M75.333,78.102c-1.136,0-2.263-0.264-3.308-0.783c-3.668-1.827-5.166-6.298-3.34-9.966
			c0.369-0.742,1.271-1.045,2.012-0.675c0.74,0.368,1.044,1.27,0.675,2.011c-1.09,2.188-0.195,4.854,1.991,5.943
			c1.062,0.528,2.261,0.612,3.386,0.235c1.121-0.376,2.03-1.167,2.559-2.227c0.633-1.271,0.625-2.729-0.021-3.994
			c-0.377-0.738-0.084-1.644,0.654-2.02c0.736-0.376,1.643-0.083,2.018,0.653c1.068,2.094,1.082,4.598,0.035,6.697
			c-0.885,1.775-2.408,3.103-4.291,3.732C76.926,77.973,76.127,78.102,75.333,78.102z"/>
	</g>
</g>
</svg>
