<?xml version="1.0" encoding="utf-8"?>
<!-- Generator: Adobe Illustrator 15.1.0, SVG Export Plug-In . SVG Version: 6.00 Build 0)  -->
<!DOCTYPE svg PUBLIC "-//W3C//DTD SVG 1.1//EN" "http://www.w3.org/Graphics/SVG/1.1/DTD/svg11.dtd">
<svg version="1.1" id="Layer_1" xmlns="http://www.w3.org/2000/svg" xmlns:xlink="http://www.w3.org/1999/xlink" x="0px" y="0px"
	 width="142.048px" height="96.429px" viewBox="0 0 142.048 96.429" enable-background="new 0 0 142.048 96.429"
	 xml:space="preserve">
<path d="M34.335,22.132v11.961c-2.484,0-8.128-0.463-8.128,4.192V57.14c0,5.633,5.973,4.995,8.128,4.995v12.161h81.505V22.132
	H34.335z M109.681,67.949H40.499V28.501h69.182V67.949z"/>
<path fill="#ED2224" d="M73.777,55.879l-1.834-21.179c-0.156-1.678,1.523-2.83,3.144-2.83c1.626,0,3.303,1.152,3.148,2.83
	l-1.834,21.179H73.777z M75.087,58.606c1.626,0,3.095,1.307,3.095,2.984c0,1.677-1.418,2.988-3.095,2.988
	c-1.675,0-3.092-1.312-3.092-2.988C71.995,59.913,73.467,58.606,75.087,58.606z"/>
</svg>
