<?xml version="1.0" encoding="utf-8"?>
<!-- Generator: Adobe Illustrator 15.1.0, SVG Export Plug-In . SVG Version: 6.00 Build 0)  -->
<!DOCTYPE svg PUBLIC "-//W3C//DTD SVG 1.1//EN" "http://www.w3.org/Graphics/SVG/1.1/DTD/svg11.dtd">
<svg version="1.1" id="Layer_1" xmlns="http://www.w3.org/2000/svg" xmlns:xlink="http://www.w3.org/1999/xlink" x="0px" y="0px"
	 width="131.333px" height="123.81px" viewBox="0 0 131.333 123.81" enable-background="new 0 0 131.333 123.81"
	 xml:space="preserve">
<g>
	<circle fill="#00FF00" cx="65.667" cy="61.905" r="43.621"/>
	<g>
		<path fill="#FFFFFF" d="M91.146,61.489h-47c-0.828,0-1.5-0.671-1.5-1.5V39.322c0-0.829,0.672-1.5,1.5-1.5h47
			c0.828,0,1.5,0.671,1.5,1.5v20.667C92.646,60.818,91.975,61.489,91.146,61.489z M45.646,58.489h44V40.822h-44V58.489z"/>
		<path fill="#FFFFFF" d="M87.688,65.447h-47.5c-0.828,0-1.5-0.671-1.5-1.5V45.114c0-0.829,0.672-1.5,1.5-1.5s1.5,0.671,1.5,1.5
			v17.333h46c0.828,0,1.5,0.671,1.5,1.5C89.188,64.776,88.516,65.447,87.688,65.447z"/>
		<g>
			<path fill="#FFFFFF" d="M67.646,56.947c-3.859,0-7-3.271-7-7.292c0-4.021,3.141-7.292,7-7.292s7,3.271,7,7.292
				C74.646,53.676,71.506,56.947,67.646,56.947z M67.646,45.364c-2.207,0-4,1.925-4,4.292c0,2.367,1.793,4.292,4,4.292
				c2.205,0,4-1.925,4-4.292C71.646,47.289,69.852,45.364,67.646,45.364z"/>
			<path fill="#FFFFFF" d="M57.928,57.51h-9.5c-0.828,0-1.5-0.671-1.5-1.5V43.864c0-0.829,0.672-1.5,1.5-1.5h9.5
				c0.828,0,1.5,0.671,1.5,1.5s-0.672,1.5-1.5,1.5h-8v9.146h8c0.828,0,1.5,0.671,1.5,1.5S58.756,57.51,57.928,57.51z"/>
			<path fill="#FFFFFF" d="M86.865,57.229h-9.5c-0.828,0-1.5-0.671-1.5-1.5s0.672-1.5,1.5-1.5h8v-9.146h-8
				c-0.828,0-1.5-0.671-1.5-1.5s0.672-1.5,1.5-1.5h9.5c0.828,0,1.5,0.671,1.5,1.5v12.146C88.365,56.557,87.693,57.229,86.865,57.229
				z"/>
		</g>
		<path fill="#FFFFFF" d="M56.865,81.33c-4.098,0-7.432-3.334-7.432-7.432s3.334-7.433,7.432-7.433c4.1,0,7.434,3.335,7.434,7.433
			S60.965,81.33,56.865,81.33z M56.865,69.465c-2.443,0-4.432,1.988-4.432,4.433c0,2.443,1.988,4.432,4.432,4.432
			c2.445,0,4.434-1.988,4.434-4.432C61.299,71.454,59.311,69.465,56.865,69.465z"/>
		<path fill="#FFFFFF" d="M62.762,90.421c-3.623,0-6.805-2.659-7.35-6.348c-0.119-0.819,0.445-1.582,1.266-1.703
			c0.813-0.117,1.582,0.445,1.703,1.266c0.357,2.417,2.604,4.098,5.033,3.738c1.17-0.174,2.205-0.792,2.91-1.742
			c0.707-0.951,1-2.119,0.826-3.289c-0.207-1.406-1.045-2.596-2.301-3.267c-0.73-0.391-1.006-1.3-0.615-2.03
			c0.391-0.732,1.301-1.005,2.029-0.616c2.072,1.106,3.514,3.153,3.855,5.475c0.289,1.964-0.203,3.923-1.387,5.517
			s-2.918,2.631-4.881,2.92C63.484,90.396,63.121,90.421,62.762,90.421z"/>
		<path fill="#FFFFFF" d="M75.332,78.102c-1.135,0-2.262-0.263-3.307-0.783c-3.668-1.827-5.166-6.298-3.34-9.966
			c0.369-0.742,1.27-1.045,2.012-0.675c0.74,0.369,1.043,1.27,0.674,2.011c-1.09,2.188-0.195,4.854,1.992,5.944
			c1.061,0.528,2.26,0.612,3.385,0.235c1.121-0.376,2.031-1.167,2.559-2.227c0.633-1.271,0.625-2.728-0.021-3.994
			c-0.377-0.738-0.084-1.643,0.654-2.019c0.736-0.376,1.643-0.083,2.018,0.653c1.068,2.094,1.082,4.598,0.035,6.697
			c-0.885,1.776-2.408,3.103-4.291,3.733C76.926,77.973,76.127,78.102,75.332,78.102z"/>
	</g>
</g>
</svg>
